<svg width="38" height="27" viewBox="0 0 38 27" fill="none" xmlns="http://www.w3.org/2000/svg">
<path d="M33.2969 15.625H30.9531C30.0156 15.625 29.1953 15.918 28.4922 16.3867C29.0781 16.7969 29.5469 17.207 30.0156 17.7344C30.3086 17.6172 30.6016 17.5 30.9531 17.5H33.2969C34.7031 17.5 35.875 18.7891 35.875 20.3125C35.875 20.8398 36.2852 21.25 36.8125 21.25C37.2812 21.25 37.75 20.8398 37.75 20.3125C37.75 17.7344 35.6992 15.625 33.2969 15.625ZM32.125 13.75C34.7031 13.75 36.8125 11.6992 36.8125 9.0625C36.8125 6.48438 34.7031 4.375 32.125 4.375C29.4883 4.375 27.4375 6.48438 27.4375 9.0625C27.4375 11.6992 29.4883 13.75 32.125 13.75ZM32.125 6.25C33.6484 6.25 34.9375 7.53906 34.9375 9.0625C34.9375 10.6445 33.6484 11.875 32.125 11.875C30.543 11.875 29.3125 10.6445 29.3125 9.0625C29.3125 7.53906 30.543 6.25 32.125 6.25ZM23.6875 16.8555C22.9844 16.8555 22.2812 16.9141 21.5781 17.1484C20.7578 17.3828 19.8789 17.5 19 17.5C18.0625 17.5 17.1836 17.3828 16.3633 17.1484C15.7188 16.9141 15.0156 16.8555 14.2539 16.8555C12.1445 16.8555 10.0938 17.793 8.86328 19.5508C8.16016 20.6641 7.75 21.9531 7.75 23.3594V24.0625C7.75 25.6445 8.98047 26.875 10.5625 26.875H27.4375C28.9609 26.875 30.25 25.6445 30.25 24.0625V23.3594C30.25 21.9531 29.7812 20.6641 29.0781 19.5508C27.8477 17.793 25.7969 16.8555 23.6875 16.8555ZM28.375 24.0625C28.375 24.5898 27.9062 25 27.4375 25H10.5625C10.0352 25 9.625 24.5898 9.625 24.0625V23.3594C9.625 22.3633 9.85938 21.4258 10.4453 20.6055C11.207 19.4336 12.6719 18.7305 14.2539 18.7305C14.7812 18.7305 15.3086 18.7891 15.8359 18.9062C16.832 19.2578 17.8867 19.375 19 19.375C20.0547 19.375 21.1094 19.2578 22.1055 18.9062C22.6328 18.7891 23.1602 18.7305 23.6875 18.7305C25.2695 18.7305 26.7344 19.4336 27.4961 20.6055C28.082 21.4258 28.375 22.3633 28.375 23.3594V24.0625ZM5.875 13.75C8.45312 13.75 10.5625 11.6992 10.5625 9.0625C10.5625 6.48438 8.45312 4.375 5.875 4.375C3.23828 4.375 1.1875 6.48438 1.1875 9.0625C1.1875 11.6992 3.23828 13.75 5.875 13.75ZM5.875 6.25C7.39844 6.25 8.6875 7.53906 8.6875 9.0625C8.6875 10.6445 7.39844 11.875 5.875 11.875C4.29297 11.875 3.0625 10.6445 3.0625 9.0625C3.0625 7.53906 4.29297 6.25 5.875 6.25ZM9.44922 16.3867C8.74609 15.918 7.92578 15.625 7.04688 15.625H4.70312C2.24219 15.625 0.25 17.7344 0.25 20.3125C0.25 20.8398 0.660156 21.25 1.1875 21.25C1.65625 21.25 2.125 20.8398 2.125 20.3125C2.125 18.7891 3.23828 17.5 4.70312 17.5H7.04688C7.33984 17.5 7.63281 17.6172 7.92578 17.7344C8.39453 17.207 8.86328 16.7969 9.44922 16.3867ZM19 15.625C22.5742 15.625 25.5625 12.6953 25.5625 9.0625V0.625L22.2812 2.26562L19 0.625L15.7188 2.26562L12.4375 0.625V9.0625C12.4375 12.6953 15.3672 15.625 19 15.625ZM14.3125 3.67188L15.7188 4.375L19 2.73438L22.2812 4.375L23.6875 3.67188V6.25H14.3125V3.67188ZM14.3125 8.125H23.6875V9.0625C23.6875 11.6992 21.5781 13.75 19 13.75C16.3633 13.75 14.3125 11.6992 14.3125 9.0625V8.125Z" fill="#589EB8"/>
</svg>
