<svg width="34" height="31" viewBox="0 0 34 31" fill="none" xmlns="http://www.w3.org/2000/svg">
<path d="M17 12.9375C14.3633 12.9375 12.3125 15.0469 12.3125 17.625C12.3125 20.2617 14.3633 22.3125 17 22.3125C19.5781 22.3125 21.6875 20.2617 21.6875 17.625C21.6875 15.0469 19.5781 12.9375 17 12.9375ZM17 20.4375C15.418 20.4375 14.1875 19.207 14.1875 17.625C14.1875 16.1016 15.418 14.8125 17 14.8125C18.5234 14.8125 19.8125 16.1016 19.8125 17.625C19.8125 19.207 18.5234 20.4375 17 20.4375ZM30.125 4.5H20.75V2.625C20.75 1.62891 19.8711 0.75 18.875 0.75H15.125C14.0703 0.75 13.25 1.62891 13.25 2.625V4.5H3.875C1.76562 4.5 0.125 6.19922 0.125 8.25V27C0.125 29.1094 1.76562 30.75 3.875 30.75H30.125C32.1758 30.75 33.875 29.1094 33.875 27V8.25C33.875 6.19922 32.1758 4.5 30.125 4.5ZM15.125 2.625H18.875V8.25H15.125V2.625ZM22.625 28.875H11.375V27.6445C11.375 27.1172 11.4922 26.5898 11.7852 26.1797C12.1953 25.5352 12.957 25.125 13.8359 25.125C14.7734 25.125 15.2422 25.5938 17 25.5938C18.6992 25.5938 19.168 25.125 20.1055 25.125C20.9844 25.125 21.7461 25.5352 22.1562 26.1797C22.4492 26.5898 22.625 27.1172 22.625 27.6445V28.875ZM32 27C32 28.0547 31.1211 28.875 30.125 28.875H24.5V27.6445C24.5 26.707 24.207 25.8281 23.7383 25.125C22.918 23.8945 21.5117 23.25 20.1055 23.25C18.8164 23.25 18.4648 23.7188 17 23.7188C15.4766 23.7188 15.125 23.25 13.8359 23.25C12.4297 23.25 11.082 23.8945 10.2617 25.125C9.79297 25.8281 9.5 26.707 9.5 27.6445V28.875H3.875C2.82031 28.875 2 28.0547 2 27V8.25C2 7.25391 2.82031 6.375 3.875 6.375H13.25V10.125H20.75V6.375H30.125C31.1211 6.375 32 7.25391 32 8.25V27Z" fill="#589EB8"/>
</svg>
