<svg width="34" height="27" viewBox="0 0 34 27" fill="none" xmlns="http://www.w3.org/2000/svg">
<path d="M21.2188 17.5H27.7812C28.0156 17.5 28.25 17.3242 28.25 17.0312V16.0938C28.25 15.8594 28.0156 15.625 27.7812 15.625H21.2188C20.9258 15.625 20.75 15.8594 20.75 16.0938V17.0312C20.75 17.3242 20.9258 17.5 21.2188 17.5ZM21.2188 13.75H27.7812C28.0156 13.75 28.25 13.5742 28.25 13.2812V12.3438C28.25 12.1094 28.0156 11.875 27.7812 11.875H21.2188C20.9258 11.875 20.75 12.1094 20.75 12.3438V13.2812C20.75 13.5742 20.9258 13.75 21.2188 13.75ZM21.2188 21.25H27.7812C28.0156 21.25 28.25 21.0742 28.25 20.7812V19.8438C28.25 19.6094 28.0156 19.375 27.7812 19.375H21.2188C20.9258 19.375 20.75 19.6094 20.75 19.8438V20.7812C20.75 21.0742 20.9258 21.25 21.2188 21.25ZM11.375 19.375C13.9531 19.375 16.0625 17.3242 16.0625 14.6875C16.0625 12.1094 13.9531 10 11.375 10C8.73828 10 6.6875 12.1094 6.6875 14.6875C6.6875 17.3242 8.73828 19.375 11.375 19.375ZM11.375 11.875C12.8984 11.875 14.1875 13.1641 14.1875 14.6875C14.1875 16.2695 12.8984 17.5 11.375 17.5C9.79297 17.5 8.5625 16.2695 8.5625 14.6875C8.5625 13.1641 9.79297 11.875 11.375 11.875ZM30.125 0.625H3.875C1.76562 0.625 0.125 2.32422 0.125 4.375V23.125C0.125 25.2344 1.76562 26.875 3.875 26.875H30.125C32.1758 26.875 33.875 25.2344 33.875 23.125V4.375C33.875 2.32422 32.1758 0.625 30.125 0.625ZM16.0625 25H6.6875V24.1211C6.6875 23.7109 6.80469 23.3594 7.03906 23.0078C7.33203 22.4805 7.91797 22.2461 8.62109 22.2461C9.32422 22.2461 9.85156 22.6562 11.375 22.6562C12.8984 22.6562 13.3672 22.2461 14.0703 22.2461C14.7734 22.2461 15.3594 22.5391 15.7109 23.0078C15.9453 23.3594 16.0625 23.7109 16.0625 24.1211V25ZM32 23.125C32 24.1797 31.1211 25 30.125 25H17.9375V24.1211C17.9375 23.3008 17.6445 22.5977 17.2344 21.9531C16.5312 20.8984 15.3008 20.3125 14.0703 20.3125C12.957 20.3125 12.6641 20.7227 11.375 20.7227C10.0273 20.7227 9.73438 20.3125 8.62109 20.3125C7.39062 20.3125 6.16016 20.8984 5.45703 21.9531C5.04688 22.5977 4.8125 23.3008 4.8125 24.1211V25H3.875C2.82031 25 2 24.1797 2 23.125V8.125H32V23.125ZM32 6.25H2V4.375C2 3.37891 2.82031 2.5 3.875 2.5H30.125C31.1211 2.5 32 3.37891 32 4.375V6.25Z" fill="#589EB8"/>
</svg>
