<svg width="24" height="32" viewBox="0 0 24 32" fill="none" xmlns="http://www.w3.org/2000/svg">
<path d="M13.6875 20.5L10.875 19.625C10.5 19.5625 10.3125 19.25 10.3125 18.875C10.3125 18.375 10.625 18 11.0625 18H12.8125C13.0625 18 13.375 18.125 13.625 18.25C13.8125 18.375 14.0625 18.375 14.25 18.1875L14.9375 17.5C15.1875 17.3125 15.1875 16.9375 14.9375 16.75C14.375 16.3125 13.6875 16.0625 12.9375 16.0625V14.5C12.9375 14.25 12.75 14 12.4375 14H11.4375C11.1875 14 10.9375 14.25 10.9375 14.5V16.0625C9.5 16.0625 8.3125 17.3125 8.3125 18.875C8.3125 20.125 9.125 21.1875 10.25 21.5625L13.0625 22.4375C13.4375 22.5 13.625 22.8125 13.625 23.1875C13.625 23.6875 13.3125 24 12.875 24H11.125C10.875 24 10.5625 23.9375 10.3125 23.8125C10.125 23.6875 9.875 23.6875 9.6875 23.875L9 24.5625C8.75 24.75 8.75 25.125 9 25.3125C9.5625 25.75 10.25 26 11 26V27.5C11 27.8125 11.1875 28 11.5 28H12.5C12.75 28 13 27.8125 13 27.5V26C14.4375 26 15.625 24.75 15.625 23.1875C15.625 21.9375 14.8125 20.8125 13.6875 20.5ZM4.5 6H11.5C11.75 6 12 5.8125 12 5.5V4.5C12 4.25 11.75 4 11.5 4H4.5C4.1875 4 4 4.25 4 4.5V5.5C4 5.8125 4.1875 6 4.5 6ZM12 9.5V8.5C12 8.25 11.75 8 11.5 8H4.5C4.1875 8 4 8.25 4 8.5V9.5C4 9.8125 4.1875 10 4.5 10H11.5C11.75 10 12 9.8125 12 9.5ZM23.0625 6.125L17.875 0.9375C17.3125 0.375 16.5 0 15.75 0H2.9375C1.3125 0.0625 0 1.375 0 3.0625V29.0625C0 30.6875 1.3125 32 2.9375 32H21C22.625 32 24 30.6875 24 29.0625V8.25C24 7.5 23.625 6.6875 23.0625 6.125ZM16 2.0625C16.125 2.125 16.3125 2.1875 16.4375 2.3125L21.6875 7.5625C21.8125 7.6875 21.875 7.875 21.9375 8.0625H16V2.0625ZM22 29.0625C22 29.5625 21.5 30.0625 21 30.0625H2.9375C2.4375 30.0625 1.9375 29.5625 1.9375 29.0625V3.0625C1.9375 2.5 2.4375 2 2.9375 2H14V8.5625C14 9.375 14.625 10 15.5 10H22V29.0625Z" fill="#22B8CF"/>
</svg>
