<svg width="32" height="33" viewBox="0 0 32 33" fill="none" xmlns="http://www.w3.org/2000/svg">
<path d="M31.6875 24.5C31.625 24.25 31.375 24.0625 31.0625 24.1875L29.8125 24.5L27.25 15C27 13.9375 25.875 13.3125 24.8125 13.625L16.875 15.75C16.9375 15.5 17 15.25 17 15C17 13.5625 15.875 12.3125 14.5 12.0625L13 6.375C12.875 6.125 12.625 6 12.375 6.0625L11.375 6.3125C11.125 6.375 10.9375 6.625 11.0625 6.9375L12.375 12H12.1875L8.6875 8.5C8.5 8.3125 8.375 8.25 8.1875 8.0625C8.625 7.75 9 7.3125 9.3125 6.875C9.9375 5.8125 10.125 4.625 9.8125 3.4375C9.375 1.4375 7.5625 0 5.5 0C4.125 0 2.5625 0.6875 1.625 2.1875C1 3.25 0.8125 4.4375 1.125 5.625C1.3125 6.4375 1.75 7.1875 2.375 7.75C0.9375 8.6875 0 10.25 0 12V29C0 30.6875 1.3125 32 3 32C4.625 32 6 30.6875 6 29V24.875L6.1875 25.125L7 29.5625C7.3125 31.0625 8.75 32.3125 10.5 32C11.3125 31.8125 12 31.375 12.4375 30.75C12.875 30.0625 13.0625 29.25 12.9375 28.5L12.0625 23.6875C11.8125 22.5625 11.25 21.5 10.3125 20.75L8 18.75V16.25L9.75 18H14L15.8125 24.6875C14.6875 25.375 14 26.625 14 28C14 30.25 15.75 32 18 32C19.9375 32 21.5625 30.5625 21.875 28.6875L31.625 26.0625C31.875 26 32 25.75 31.9375 25.5L31.6875 24.5ZM5.5 2C6.625 2 7.625 2.8125 7.875 3.9375C8.3125 5.625 7 7 5.5 7C4.375 7 3.3125 6.25 3.0625 5.125C2.625 3.4375 4 2 5.5 2ZM4 29C4 29.5625 3.5 30 3 30C2.4375 30 2 29.5625 2 29V21.5L4 23.1875V29ZM10.5625 16L6.8125 12.3125C6.75 12.1875 6.625 12.125 6.5 12.125C6.25 12.125 6 12.375 6 12.625V19.625L9.0625 22.25C9.5625 22.75 9.9375 23.375 10.0625 24.0625L10.9375 28.875C11.0625 29.375 10.6875 29.9375 10.1875 30C10.125 30 10.0625 30 10 30C9.5 30 9.0625 29.6875 9 29.1875L8.125 24.4375C8.0625 24.1875 7.9375 23.9375 7.75 23.8125L3 19.75C2.375 19.1875 2 18.375 2 17.4375V12C2 10.4375 3.25 9.0625 4.8125 9H5C5.9375 9 6.6875 9.375 7.25 9.9375L11.375 14H14C14.5 14 15 14.5 15 15C15 15.5625 14.5 16 14 16H10.5625ZM18 30C16.875 30 16 29.125 16 28C16 26.9375 16.875 26 18 26C19.0625 26 20 26.9375 20 28C20 29.125 19.0625 30 18 30ZM21.75 26.6875C21.1875 25.125 19.6875 24 18 24C17.875 24 17.8125 24.0625 17.6875 24.0625L16.0625 18L25.3125 15.5L27.875 25L21.75 26.6875Z" fill="#22B8CF"/>
</svg>
