<svg width="41" height="33" viewBox="0 0 41 33" fill="none" xmlns="http://www.w3.org/2000/svg">
<path d="M7.25 25.9375L20.5625 21.6875C21.625 21.3125 22.1875 20.1875 21.875 19.1875L18.25 7.75C17.875 6.6875 16.75 6.125 15.6875 6.4375L2.375 10.6875C1.3125 11 0.75 12.125 1.0625 13.1875L4.75 24.625C5.0625 25.6875 6.1875 26.25 7.25 25.9375ZM10.625 10.1875L11.8125 14L9.9375 14.5625L8.6875 10.75L10.625 10.1875ZM6.8125 11.375L8.625 17.125L14.3125 15.25L12.5 9.5625L16.3125 8.3125L20 19.75L6.625 24.0625L3 12.625L6.8125 11.375ZM27 2H41V0H27C24.75 0 23 1.8125 23 4V23.25L1.3125 30.0625C1.0625 30.125 0.9375 30.4375 1 30.6875L1.25 31.625C1.3125 31.9375 1.625 32.0625 1.875 32L23.9375 25H27C27 28.875 30.125 32 34 32C37.8125 32 41 28.875 41 25C41 21.1875 37.8125 18 34 18C30.8125 18 28.1875 20.125 27.3125 23H25V4C25 2.9375 25.875 2 27 2ZM34 20C36.75 20 39 22.25 39 25C39 27.8125 36.75 30 34 30C31.1875 30 29 27.8125 29 25C29 22.25 31.1875 20 34 20Z" fill="#22B8CF"/>
</svg>
