<svg width="28" height="31" viewBox="0 0 28 31" fill="none" xmlns="http://www.w3.org/2000/svg">
<path d="M21.0312 14.8125H6.96875C6.67578 14.8125 6.5 15.0469 6.5 15.2812V16.2188C6.5 16.5117 6.67578 16.6875 6.96875 16.6875H21.0312C21.2656 16.6875 21.5 16.5117 21.5 16.2188V15.2812C21.5 15.0469 21.2656 14.8125 21.0312 14.8125ZM21.0312 20.4375H6.96875C6.67578 20.4375 6.5 20.6719 6.5 20.9062V21.8438C6.5 22.1367 6.67578 22.3125 6.96875 22.3125H21.0312C21.2656 22.3125 21.5 22.1367 21.5 21.8438V20.9062C21.5 20.6719 21.2656 20.4375 21.0312 20.4375ZM25.3672 0.75C25.0156 0.75 24.6641 0.867188 24.3125 1.10156L21.793 2.91797L19.5078 1.33594C19.0391 0.984375 18.4531 0.808594 17.8672 0.808594C17.2812 0.808594 16.7539 0.984375 16.2266 1.33594L14 2.91797L11.7148 1.33594C11.2461 0.984375 10.6602 0.808594 10.0742 0.808594C9.48828 0.808594 8.90234 0.984375 8.43359 1.33594L6.14844 2.91797L3.62891 1.10156C3.27734 0.867188 2.92578 0.75 2.57422 0.75C1.69531 0.808594 0.875 1.51172 0.875 2.50781V29.0508C0.875 30.0469 1.69531 30.75 2.57422 30.75C2.92578 30.75 3.27734 30.6914 3.62891 30.457L6.14844 28.582L8.43359 30.2227C8.90234 30.5742 9.48828 30.75 10.0742 30.75C10.6602 30.75 11.2461 30.5742 11.7148 30.2227L14 28.582L16.2266 30.2227C16.7539 30.5742 17.2812 30.75 17.8672 30.75C18.4531 30.75 19.0391 30.5742 19.5078 30.2227L21.793 28.582L24.3125 30.457C24.6641 30.6914 25.0156 30.75 25.3672 30.75C26.2461 30.75 27.0664 30.0469 27.0664 29.0508V2.50781C27.125 1.51172 26.2461 0.75 25.3672 0.75ZM25.25 28.7578L22.9062 27.0586L21.793 26.2969L20.6797 27.0586L18.4531 28.6992C18.2773 28.8164 18.1016 28.875 17.8672 28.875C17.6914 28.875 17.5156 28.8164 17.3398 28.6992L15.0547 27.0586L14 26.2969L12.8867 27.0586L10.6016 28.6992C10.4258 28.8164 10.25 28.875 10.0742 28.875C9.83984 28.875 9.66406 28.8164 9.48828 28.6992L7.26172 27.0586L6.14844 26.2969L5.09375 27.0586L2.75 28.8164V2.80078L5.09375 4.44141L6.14844 5.26172L7.26172 4.44141L9.54688 2.85938C9.66406 2.74219 9.89844 2.68359 10.0742 2.68359C10.25 2.68359 10.4258 2.74219 10.6016 2.85938L12.8867 4.44141L14 5.26172L15.0547 4.44141L17.3398 2.85938C17.5156 2.74219 17.6914 2.68359 17.8672 2.68359C18.1016 2.68359 18.2773 2.74219 18.4531 2.85938L20.6797 4.44141L21.793 5.26172L22.9062 4.44141L25.25 2.80078V28.7578ZM21.0312 9.1875H6.96875C6.67578 9.1875 6.5 9.42188 6.5 9.65625V10.5938C6.5 10.8867 6.67578 11.0625 6.96875 11.0625H21.0312C21.2656 11.0625 21.5 10.8867 21.5 10.5938V9.65625C21.5 9.42188 21.2656 9.1875 21.0312 9.1875Z" fill="#22B8CF"/>
</svg>
