<svg width="27" height="31" viewBox="0 0 27 31" fill="none" xmlns="http://www.w3.org/2000/svg">
<path fill-rule="evenodd" clip-rule="evenodd" d="M23.4375 1.10156C23.7891 0.867188 24.1406 0.75 24.4922 0.75C25.3711 0.75 26.25 1.51172 26.1914 2.50781V29.0508C26.1914 30.0469 25.3711 30.75 24.4922 30.75C24.1406 30.75 23.7891 30.6914 23.4375 30.457L20.918 28.582L18.6328 30.2227C18.1641 30.5742 17.5781 30.75 16.9922 30.75C16.4062 30.75 15.8789 30.5742 15.3516 30.2227L13.125 28.582L10.8398 30.2227C10.3711 30.5742 9.78516 30.75 9.19922 30.75C8.61328 30.75 8.02734 30.5742 7.55859 30.2227L5.27344 28.582L2.75391 30.457C2.40234 30.6914 2.05078 30.75 1.69922 30.75C0.820312 30.75 0 30.0469 0 29.0508V2.50781C0 1.51172 0.820312 0.808594 1.69922 0.75C2.05078 0.75 2.40234 0.867188 2.75391 1.10156L5.27344 2.91797L7.55859 1.33594C8.02734 0.984375 8.61328 0.808594 9.19922 0.808594C9.78516 0.808594 10.3711 0.984375 10.8398 1.33594L13.125 2.91797L15.3516 1.33594C15.8789 0.984375 16.4062 0.808594 16.9922 0.808594C17.5781 0.808594 18.1641 0.984375 18.6328 1.33594L20.918 2.91797L23.4375 1.10156ZM22.0312 27.0586L24.375 28.7578V2.80078L22.0312 4.44141L20.918 5.26172L19.8047 4.44141L17.5781 2.85938C17.4023 2.74219 17.2266 2.68359 16.9922 2.68359C16.8164 2.68359 16.6406 2.74219 16.4648 2.85938L14.1797 4.44141L13.125 5.26172L12.0117 4.44141L9.72656 2.85938C9.55078 2.74219 9.375 2.68359 9.19922 2.68359C9.02344 2.68359 8.78906 2.74219 8.67188 2.85938L6.38672 4.44141L5.27344 5.26172L4.21875 4.44141L1.875 2.80078V28.8164L4.21875 27.0586L5.27344 26.2969L6.38672 27.0586L8.61328 28.6992C8.78906 28.8164 8.96484 28.875 9.19922 28.875C9.375 28.875 9.55078 28.8164 9.72656 28.6992L12.0117 27.0586L13.125 26.2969L14.1797 27.0586L16.4648 28.6992C16.6406 28.8164 16.8164 28.875 16.9922 28.875C17.2266 28.875 17.4023 28.8164 17.5781 28.6992L19.8047 27.0586L20.918 26.2969L22.0312 27.0586ZM20.2066 8.29289C20.5971 8.68341 20.5971 9.31658 20.2066 9.7071L14.7268 15.1869L20.2071 20.6673C20.5976 21.0578 20.5976 21.6909 20.2071 22.0815C19.8166 22.472 19.1834 22.472 18.7929 22.0815L13.3126 16.6011L7.83225 22.0815C7.44173 22.472 6.80856 22.472 6.41804 22.0815C6.02751 21.6909 6.02751 21.0578 6.41804 20.6673L11.8984 15.1869L6.41853 9.7071C6.02801 9.31658 6.02801 8.68341 6.41853 8.29289C6.80906 7.90237 7.44222 7.90237 7.83275 8.29289L13.3126 13.7727L18.7924 8.29289C19.1829 7.90236 19.8161 7.90236 20.2066 8.29289Z" fill="#22B8CF"/>
</svg>
