<svg width="28" height="31" viewBox="0 0 28 31" fill="none" xmlns="http://www.w3.org/2000/svg">
<path fill-rule="evenodd" clip-rule="evenodd" d="M24.3125 1.10156C24.6641 0.867188 25.0156 0.75 25.3672 0.75C26.2461 0.75 27.125 1.51172 27.0664 2.50781V29.0508C27.0664 30.0469 26.2461 30.75 25.3672 30.75C25.0156 30.75 24.6641 30.6914 24.3125 30.457L21.793 28.582L19.5078 30.2227C19.0391 30.5742 18.4531 30.75 17.8672 30.75C17.2812 30.75 16.7539 30.5742 16.2266 30.2227L14 28.582L11.7148 30.2227C11.2461 30.5742 10.6602 30.75 10.0742 30.75C9.48828 30.75 8.90234 30.5742 8.43359 30.2227L6.14844 28.582L3.62891 30.457C3.27734 30.6914 2.92578 30.75 2.57422 30.75C1.69531 30.75 0.875 30.0469 0.875 29.0508V2.50781C0.875 1.51172 1.69531 0.808594 2.57422 0.75C2.92578 0.75 3.27734 0.867188 3.62891 1.10156L6.14844 2.91797L8.43359 1.33594C8.90234 0.984375 9.48828 0.808594 10.0742 0.808594C10.6602 0.808594 11.2461 0.984375 11.7148 1.33594L14 2.91797L16.2266 1.33594C16.7539 0.984375 17.2812 0.808594 17.8672 0.808594C18.4531 0.808594 19.0391 0.984375 19.5078 1.33594L21.793 2.91797L24.3125 1.10156ZM22.9062 27.0586L25.25 28.7578V2.80078L22.9062 4.44141L21.793 5.26172L20.6797 4.44141L18.4531 2.85938C18.2773 2.74219 18.1016 2.68359 17.8672 2.68359C17.6914 2.68359 17.5156 2.74219 17.3398 2.85938L15.0547 4.44141L14 5.26172L12.8867 4.44141L10.6016 2.85938C10.4258 2.74219 10.25 2.68359 10.0742 2.68359C9.89844 2.68359 9.66406 2.74219 9.54688 2.85938L7.26172 4.44141L6.14844 5.26172L5.09375 4.44141L2.75 2.80078V28.8164L5.09375 27.0586L6.14844 26.2969L7.26172 27.0586L9.48828 28.6992C9.66406 28.8164 9.83984 28.875 10.0742 28.875C10.25 28.875 10.4258 28.8164 10.6016 28.6992L12.8867 27.0586L14 26.2969L15.0547 27.0586L17.3398 28.6992C17.5156 28.8164 17.6914 28.875 17.8672 28.875C18.1016 28.875 18.2773 28.8164 18.4531 28.6992L20.6797 27.0586L21.793 26.2969L22.9062 27.0586ZM23.2917 12.5312C23.2917 11.7018 22.5898 11 21.7604 11H10.5312C9.66992 11 9 11.7018 9 12.5312V23.7604C9 24.6217 9.66992 25.2917 10.5312 25.2917H21.7604C22.5898 25.2917 23.2917 24.6217 23.2917 23.7604V12.5312ZM21.7604 23.569C21.7604 23.6966 21.6647 23.7604 21.569 23.7604H10.7227C10.5951 23.7604 10.5312 23.6966 10.5312 23.569V12.7227C10.5312 12.627 10.5951 12.5312 10.7227 12.5312H21.569C21.6647 12.5312 21.7604 12.627 21.7604 12.7227V23.569ZM15.8587 21.1126C16.0182 21.2721 16.2415 21.2721 16.401 21.1126L20.3249 17.1888C20.4844 17.0293 20.4844 16.806 20.3249 16.6465L19.5911 15.9447C19.4635 15.7852 19.2083 15.7852 19.0488 15.9447L16.1458 18.8477L13.2109 15.9447C13.0514 15.7852 12.8281 15.7852 12.6686 15.9447L11.9349 16.6465C11.8073 16.806 11.8073 17.0293 11.9349 17.1888L15.8587 21.1126Z" fill="#22B8CF"/>
</svg>
