<svg width="28" height="27" viewBox="0 0 28 27" fill="none" xmlns="http://www.w3.org/2000/svg">
<path d="M27.0664 9.0625C27.0664 8.47656 26.9492 7.83203 26.6562 7.30469L23.7852 1.91406C23.4922 1.15234 22.7891 0.625 21.9688 0.625H5.97266C5.15234 0.625 4.44922 1.15234 4.15625 1.91406L1.28516 7.30469C0.992188 7.89062 0.875 8.47656 0.875 9.12109C0.875 12.6367 0.875 25 0.875 25C0.875 26.0547 1.69531 26.875 2.75 26.875H25.25C26.2461 26.875 27.125 26.0547 27.125 25C27.125 25 27.0664 12.6367 27.0664 9.0625ZM21.9688 2.5L24.957 8.125H17.6328L16.9297 2.5H21.9688ZM12.125 10H15.875V13.75H12.125V10ZM14.9961 2.5L15.6992 8.125H12.2422L12.9453 2.5H14.9961ZM5.97266 2.5H11.0117L10.3086 8.125H2.98438L5.97266 2.5ZM2.75 25C2.75 25 2.75 14.3945 2.75 10H10.25V13.75C10.25 14.8047 11.0703 15.625 12.125 15.625H15.875C16.8711 15.625 17.75 14.8047 17.75 13.75V10H25.1914C25.1914 14.3945 25.25 25 25.25 25H2.75Z" fill="#22B8CF"/>
</svg>
