<svg width="22" height="30" viewBox="0 0 22 30" fill="none" xmlns="http://www.w3.org/2000/svg">
<path d="M10.5417 5.625H4.125C3.83854 5.625 3.66667 5.44922 3.66667 5.15625V4.21875C3.66667 3.98438 3.83854 3.75 4.125 3.75H10.5417C10.7708 3.75 11 3.98438 11 4.21875V5.15625C11 5.44922 10.7708 5.625 10.5417 5.625Z" fill="#22B8CF"/>
<path d="M10.5417 9.375H4.125C3.83854 9.375 3.66667 9.19922 3.66667 8.90625V7.96875C3.66667 7.73438 3.83854 7.5 4.125 7.5H10.5417C10.7708 7.5 11 7.73438 11 7.96875V8.90625C11 9.19922 10.7708 9.375 10.5417 9.375Z" fill="#22B8CF"/>
<path d="M5.43889 18C5.11806 18 4.88889 17.7656 4.88889 17.4375V17.0625C4.88889 16.7578 5.11806 16.5 5.43889 16.5H13.6889V15.375C13.6889 14.8828 14.2618 14.625 14.6056 15L16.4389 16.875C16.6681 17.0859 16.6681 17.4375 16.4389 17.6484L14.6056 19.5234C14.2618 19.875 13.6889 19.6406 13.6889 19.125V18H5.43889Z" fill="#22B8CF"/>
<path d="M7.82222 21H16.0722C16.3701 21 16.6222 21.2578 16.6222 21.5625V21.9375C16.6222 22.2656 16.3701 22.5 16.0722 22.5H7.82222V23.625C7.82222 24.1406 7.22639 24.375 6.88264 24.0234L5.04931 22.1484C4.82014 21.9375 4.82014 21.5859 5.04931 21.375L6.88264 19.5C7.22639 19.125 7.82222 19.3828 7.82222 19.875V21Z" fill="#22B8CF"/>
<path fill-rule="evenodd" clip-rule="evenodd" d="M16.3854 0.878906L21.1406 5.74219C21.6562 6.26953 22 7.03125 22 7.73438V27.2461C22 28.7695 20.7396 30 19.25 30H2.69271C1.20312 30 0 28.7695 0 27.2461V2.87109C0 1.28906 1.20312 0.0585938 2.69271 0H14.4375C15.125 0 15.8698 0.351562 16.3854 0.878906ZM14.7559 1.97586C14.724 1.96126 14.6937 1.94743 14.6667 1.93359V7.55859H20.1094C20.0521 7.38281 19.9948 7.20703 19.8802 7.08984L15.0677 2.16797C14.9802 2.07845 14.8592 2.02312 14.7559 1.97586ZM19.25 28.1836C19.7083 28.1836 20.1667 27.7148 20.1667 27.2461V9.375H14.2083C13.4062 9.375 12.8333 8.78906 12.8333 8.02734V1.875H2.69271C2.23437 1.875 1.77604 2.34375 1.77604 2.87109V27.2461C1.77604 27.7148 2.23437 28.1836 2.69271 28.1836H19.25Z" fill="#22B8CF"/>
</svg>
