<svg width="28" height="31" viewBox="0 0 28 31" fill="none" xmlns="http://www.w3.org/2000/svg">
<path fill-rule="evenodd" clip-rule="evenodd" d="M6.96875 14.8125H16.0312C16.2656 14.8125 16.5 15.0469 16.5 15.2812V16.2188C16.5 16.5117 16.2656 16.6875 16.0312 16.6875H6.96875C6.67578 16.6875 6.5 16.5117 6.5 16.2188V15.2812C6.5 15.0469 6.67578 14.8125 6.96875 14.8125ZM24.3125 1.10156C24.6641 0.867188 25.0156 0.75 25.3672 0.75C26.2461 0.75 27.125 1.51172 27.0664 2.50781V29.0508C27.0664 30.0469 26.2461 30.75 25.3672 30.75C25.0156 30.75 24.6641 30.6914 24.3125 30.457L21.793 28.582L19.5078 30.2227C19.0391 30.5742 18.4531 30.75 17.8672 30.75C17.2812 30.75 16.7539 30.5742 16.2266 30.2227L14 28.582L11.7148 30.2227C11.2461 30.5742 10.6602 30.75 10.0742 30.75C9.48828 30.75 8.90234 30.5742 8.43359 30.2227L6.14844 28.582L3.62891 30.457C3.27734 30.6914 2.92578 30.75 2.57422 30.75C1.69531 30.75 0.875 30.0469 0.875 29.0508V2.50781C0.875 1.51172 1.69531 0.808594 2.57422 0.75C2.92578 0.75 3.27734 0.867188 3.62891 1.10156L6.14844 2.91797L8.43359 1.33594C8.90234 0.984375 9.48828 0.808594 10.0742 0.808594C10.6602 0.808594 11.2461 0.984375 11.7148 1.33594L14 2.91797L16.2266 1.33594C16.7539 0.984375 17.2812 0.808594 17.8672 0.808594C18.4531 0.808594 19.0391 0.984375 19.5078 1.33594L21.793 2.91797L24.3125 1.10156ZM22.9062 27.0586L25.25 28.7578V2.80078L22.9062 4.44141L21.793 5.26172L20.6797 4.44141L18.4531 2.85938C18.2773 2.74219 18.1016 2.68359 17.8672 2.68359C17.6914 2.68359 17.5156 2.74219 17.3398 2.85938L15.0547 4.44141L14 5.26172L12.8867 4.44141L10.6016 2.85938C10.4258 2.74219 10.25 2.68359 10.0742 2.68359C9.89844 2.68359 9.66406 2.74219 9.54688 2.85938L7.26172 4.44141L6.14844 5.26172L5.09375 4.44141L2.75 2.80078V28.8164L5.09375 27.0586L6.14844 26.2969L7.26172 27.0586L9.48828 28.6992C9.66406 28.8164 9.83984 28.875 10.0742 28.875C10.25 28.875 10.4258 28.8164 10.6016 28.6992L12.8867 27.0586L14 26.2969L15.0547 27.0586L17.3398 28.6992C17.5156 28.8164 17.6914 28.875 17.8672 28.875C18.1016 28.875 18.2773 28.8164 18.4531 28.6992L20.6797 27.0586L21.793 26.2969L22.9062 27.0586ZM6.96875 9.1875H16.0312C16.2656 9.1875 16.5 9.42188 16.5 9.65625V10.5938C16.5 10.8867 16.2656 11.0625 16.0312 11.0625H6.96875C6.67578 11.0625 6.5 10.8867 6.5 10.5938V9.65625C6.5 9.42188 6.67578 9.1875 6.96875 9.1875ZM19.001 7.66024L19.001 21.4649H17.6601C17.0735 21.4649 16.7662 22.1802 17.2132 22.5928L19.448 24.7936C19.6994 25.0687 20.314 25.0687 20.5655 24.7936L22.8003 22.5928C23.2193 22.1802 22.9399 21.4649 22.3254 21.4649H20.9845L20.9845 7.66024C20.9845 7.30261 20.7051 7 20.314 7H19.6714C19.3083 7 19.001 7.30261 19.001 7.66024Z" fill="#22B8CF"/>
</svg>
