<svg width="28" height="27" viewBox="0 0 28 27" fill="none" xmlns="http://www.w3.org/2000/svg">
<path d="M23.8438 0.625H4.15625C2.33984 0.625 0.875 2.14844 0.875 3.90625V23.5938C0.875 25.4102 2.33984 26.875 4.15625 26.875H23.8438C25.6016 26.875 27.125 25.4102 27.125 23.5938V3.90625C27.125 2.14844 25.6016 0.625 23.8438 0.625ZM25.25 23.5938C25.25 24.4141 24.6055 25 23.8438 25H4.15625C3.33594 25 2.75 24.4141 2.75 23.5938V3.90625C2.75 3.14453 3.33594 2.5 4.15625 2.5H23.8438C24.6055 2.5 25.25 3.14453 25.25 3.90625V23.5938ZM18.6875 4.375H9.3125C8.25781 4.375 7.4375 5.25391 7.4375 6.25V10.9375C7.4375 14.2773 9.83984 16.9727 13.0625 17.4414V21.25H10.7188C10.4258 21.25 10.25 21.4844 10.25 21.7188V22.6562C10.25 22.9492 10.4258 23.125 10.7188 23.125H17.2812C17.5156 23.125 17.75 22.9492 17.75 22.6562V21.7188C17.75 21.4844 17.5156 21.25 17.2812 21.25H14.9375V17.4414C18.1016 16.9727 20.5625 14.2773 20.5625 10.9375V6.25C20.5625 5.25391 19.6836 4.375 18.6875 4.375ZM18.6875 10.9375C18.6875 13.5742 16.5781 15.625 14 15.625C11.3633 15.625 9.3125 13.5742 9.3125 10.9375V6.25H13.2969C13.4727 6.66016 13.5898 7.07031 13.7656 7.42188C13.2969 7.89062 11.5977 9.70703 11.5977 9.70703C11.5977 9.70703 14.4102 11.7578 15.582 12.2852C15.6992 12.3438 15.875 12.3438 16.0508 12.2266C16.2266 12.0508 16.2852 11.7578 16.168 11.5234C15.6406 10.8203 14.4102 9.58984 14.4102 9.58984L16.1094 7.89062C16.1094 7.89062 15.5234 6.60156 15.4062 6.25H18.6875V10.9375Z" fill="#22B8CF"/>
</svg>
