<svg width="38" height="31" viewBox="0 0 38 31" fill="none" xmlns="http://www.w3.org/2000/svg">
<path d="M37.6328 14.8125L34.5859 8.77734C34.4688 8.48438 34.1172 8.25 33.7656 8.25C33.707 8.25 34 8.25 30.4258 8.66016L32.0078 4.5C32.3594 3.50391 31.832 2.44922 30.8945 2.09766L27.6133 0.867188C26.6172 0.515625 25.5625 1.04297 25.2109 1.98047L22.6914 8.89453C22.5156 4.38281 18.8242 0.75 14.3125 0.75C9.85938 0.75 6.28516 4.14844 5.93359 8.48438C4.17578 8.25 4.29297 8.25 4.17578 8.25C3.82422 8.25 3.53125 8.48438 3.35547 8.77734L0.308594 14.8125C0.0742188 15.3398 0.367188 15.9844 0.894531 16.1602L4 17.0391V25.6523C4 26.5312 4.58594 27.293 5.40625 27.4688L18.0625 30.6914C18.8828 30.8672 19.5273 30.75 19.8789 30.6914L32.5352 27.4688C33.4141 27.293 34 26.5312 34 25.6523V17.0391L37.0469 16.1602C37.6328 15.9844 37.8672 15.3398 37.6328 14.8125ZM26.9688 2.625L30.25 3.85547L28.375 8.95312L24.5078 9.42188L26.9688 2.625ZM2.47656 14.6953L4.70312 10.2422L15.8945 11.6484L12.3789 17.5078L2.47656 14.6953ZM18.0625 28.6992L5.875 25.6523V17.5664C13.082 19.6758 12.6133 19.5 12.7891 19.5C13.082 19.5 13.4336 19.3828 13.6094 19.0898L18.0625 11.707V28.6992ZM19 10.125C13.375 9.42188 9.91797 9.01172 7.75 8.71875C8.04297 5.32031 10.8555 2.625 14.3125 2.625C17.8867 2.625 20.875 5.61328 20.875 9.1875C20.875 9.48047 20.8164 9.71484 20.7578 9.94922L19 10.125ZM32.125 25.6523L19.9375 28.6992V11.707L24.332 19.0312C24.5078 19.3242 24.8594 19.5 25.1523 19.5C25.3867 19.5 24.8594 19.6172 32.125 17.5664V25.6523ZM25.5625 17.5078L22.0469 11.6484L33.2383 10.2422L35.4648 14.6953L25.5625 17.5078Z" fill="#22B8CF"/>
</svg>
