<svg width="24" height="31" viewBox="0 0 24 31" fill="none" xmlns="http://www.w3.org/2000/svg">
<path d="M22.3711 6.49219L17.5078 1.62891C16.9805 1.10156 16.2188 0.75 15.5156 0.75H3.50391C1.98047 0.808594 0.75 2.03906 0.75 3.62109V27.9961C0.75 29.5195 1.98047 30.75 3.50391 30.75H20.4375C21.9609 30.75 23.25 29.5195 23.25 27.9961V8.48438C23.25 7.78125 22.8984 7.01953 22.3711 6.49219ZM15.75 2.68359C15.8672 2.74219 16.043 2.80078 16.1602 2.91797L21.082 7.83984C21.1992 7.95703 21.2578 8.13281 21.3164 8.30859H15.75V2.68359ZM21.375 27.9961C21.375 28.4648 20.9062 28.9336 20.4375 28.9336H3.50391C3.03516 28.9336 2.56641 28.4648 2.56641 27.9961V3.62109C2.56641 3.09375 3.03516 2.625 3.50391 2.625H13.875V8.77734C13.875 9.53906 14.4609 10.125 15.2812 10.125H21.375V27.9961ZM12 12V19.5H19.4414C19.5 19.5 19.4414 19.5 19.4414 19.5C19.4414 15.3984 16.1016 12.0586 12 12ZM13.875 14.2266C15.457 14.8125 16.6875 16.043 17.2734 17.625H13.875V14.2266ZM11.0625 25.125C8.42578 25.125 6.375 23.0742 6.375 20.4375C6.375 18.2109 7.95703 16.3359 10.125 15.8672V13.9922C6.90234 14.4609 4.5 17.1562 4.5 20.4375C4.5 24.0703 7.42969 27 11.0625 27C14.3438 27 17.0391 24.5977 17.5078 21.375H15.6328C15.1641 23.543 13.2891 25.125 11.0625 25.125Z" fill="#22B8CF"/>
</svg>
