<svg width="30" height="27" viewBox="0 0 30 27" fill="none" xmlns="http://www.w3.org/2000/svg">
<path d="M29.0625 25H28.125V22.6562C28.125 21.8945 27.4805 21.25 26.7188 21.25H24.375V10.9375H22.5V21.25H18.75V10.9375H16.875V21.25H13.125V10.9375H11.25V21.25H7.5V10.9375H5.625V21.25H3.28125C2.46094 21.25 1.875 21.8945 1.875 22.6562V25H0.9375C0.410156 25 0 25.4688 0 25.9375V26.4062C0 26.6992 0.175781 26.875 0.46875 26.875H29.5312C29.7656 26.875 30 26.6992 30 26.4062V25.9375C30 25.4688 29.5312 25 29.0625 25ZM3.75 23.125H26.25V25H3.75V23.125ZM29.5312 6.71875L15.8789 0.800781C15.5859 0.683594 15.293 0.683594 15 0.683594C14.6484 0.683594 14.3555 0.683594 14.0625 0.800781L0.410156 6.71875C0.175781 6.83594 0 7.12891 0 7.42188V7.89062C0 8.30078 0.292969 8.59375 0.703125 8.59375H1.875V9.29688C1.875 9.70703 2.16797 10 2.57812 10H27.4219C27.7734 10 28.125 9.70703 28.125 9.29688V8.59375H29.2969C29.6484 8.59375 30 8.30078 30 7.89062V7.42188C30 7.12891 29.7656 6.83594 29.5312 6.71875ZM26.25 8.125H3.75V7.36328L14.707 2.55859C14.8242 2.55859 14.8828 2.55859 15 2.55859C15.0586 2.55859 15.1172 2.55859 15.2344 2.55859L26.25 7.36328V8.125Z" fill="#82C91E"/>
</svg>
