<svg width="30" height="30" viewBox="0 0 30 30" fill="none" xmlns="http://www.w3.org/2000/svg">
<path d="M15 0.21875C6.97266 0.21875 0.46875 6.72266 0.46875 14.75C0.46875 22.7773 6.97266 29.2812 15 29.2812C23.0273 29.2812 29.5312 22.7773 29.5312 14.75C29.5312 6.72266 23.0273 0.21875 15 0.21875ZM15 27.4062C7.96875 27.4062 2.34375 21.7812 2.34375 14.75C2.34375 7.77734 7.96875 2.09375 15 2.09375C21.9727 2.09375 27.6562 7.77734 27.6562 14.75C27.6562 21.7812 21.9727 27.4062 15 27.4062ZM17.3438 14.457L13.125 13.2852C12.4219 13.1094 11.8945 12.4648 11.8945 11.7031C11.8945 10.8242 12.6562 10.0625 13.5938 10.0625H16.2305C16.875 10.0625 17.5195 10.2969 17.9883 10.707C18.2227 10.8242 18.457 10.8242 18.6328 10.6484L19.2773 9.94531C19.4531 9.76953 19.4531 9.41797 19.2188 9.24219C18.3984 8.59766 17.3438 8.1875 16.2305 8.1875H15.9375V5.84375C15.9375 5.60938 15.7031 5.375 15.4688 5.375H14.5312C14.2383 5.375 14.0625 5.60938 14.0625 5.84375V8.1875H13.5938C11.6016 8.1875 10.0195 9.76953 10.0195 11.7031C10.0195 13.2852 11.0742 14.6328 12.5977 15.1016L16.8164 16.2734C17.5195 16.4492 18.0469 17.0938 18.0469 17.8555C18.0469 18.7344 17.2852 19.4375 16.3477 19.4375H13.7109C13.0664 19.4375 12.4219 19.2617 11.9531 18.8516C11.7188 18.7344 11.4844 18.7344 11.3086 18.9102L10.6641 19.6133C10.4883 19.7891 10.4883 20.1406 10.7227 20.3164C11.543 20.9609 12.5977 21.3125 13.7109 21.3125H14.0625V23.6562C14.0625 23.9492 14.2383 24.125 14.5312 24.125H15.4688C15.7031 24.125 15.9375 23.9492 15.9375 23.6562V21.3125H16.3477C18.3398 21.3125 19.9219 19.7891 19.9219 17.8555C19.9219 16.2734 18.8672 14.8672 17.3438 14.457Z" fill="#82C91E"/>
</svg>
