<svg width="30" height="31" viewBox="0 0 30 31" fill="none" xmlns="http://www.w3.org/2000/svg">
<path d="M29.3555 27.293L3.45703 1.39453C3.04688 0.984375 2.51953 0.75 2.05078 0.75C0.996094 0.75 0 1.62891 0 2.85938V28.6992C0 29.8711 0.878906 30.75 2.05078 30.75H27.8906C29.7656 30.75 30.6445 28.582 29.3555 27.293ZM28.0664 28.8164C28.0078 28.875 27.9492 28.875 27.8906 28.875H2.05078C1.93359 28.875 1.875 28.8164 1.875 28.6992V2.85938C1.875 2.68359 2.05078 2.625 2.05078 2.625C2.05078 2.625 2.10938 2.68359 2.16797 2.68359L6.50391 7.01953L5.50781 8.01562C5.27344 8.19141 5.27344 8.48438 5.50781 8.71875L6.15234 9.36328C6.21094 9.42188 6.32812 9.48047 6.50391 9.48047C6.62109 9.48047 6.73828 9.42188 6.79688 9.36328L7.79297 8.36719L10.4297 11.0039L9.49219 12C9.25781 12.1758 9.25781 12.4688 9.49219 12.6445L10.1367 13.3477C10.1953 13.4062 10.3125 13.4648 10.4297 13.4648C10.6055 13.4648 10.7227 13.4062 10.7812 13.3477L11.7773 12.3516L14.4141 14.9883L13.418 15.9844C13.2422 16.1602 13.2422 16.4531 13.418 16.6289L14.1211 17.332C14.1797 17.3906 14.2969 17.4492 14.4141 17.4492C14.5312 17.4492 14.6484 17.3906 14.7656 17.332L15.7617 16.3359L18.3984 18.9727L17.4023 19.9688C17.2266 20.1445 17.2266 20.4375 17.4023 20.6133L18.1055 21.2578C18.1641 21.375 18.2812 21.4336 18.3984 21.4336C18.5156 21.4336 18.6328 21.375 18.75 21.2578L19.7461 20.3203L22.3828 22.957L21.3867 23.9531C21.2109 24.1289 21.2109 24.4219 21.3867 24.5977L22.0312 25.2422C22.1484 25.3594 22.2656 25.418 22.3828 25.418C22.5 25.418 22.6172 25.3594 22.7344 25.2422L23.7305 24.2461L28.0664 28.582C28.0664 28.6406 28.125 28.6992 28.0664 28.8164ZM7.20703 14.168C6.91406 13.9336 6.50391 13.8164 6.15234 13.9922C5.85938 14.1094 5.625 14.4609 5.625 14.8125V24.1875C5.625 24.7148 6.03516 25.125 6.5625 25.125H15.9375C16.2891 25.125 16.6406 24.9492 16.7578 24.5977C16.8164 24.4805 16.8164 24.3633 16.8164 24.2461C16.8164 23.9531 16.7578 23.7188 16.582 23.543L7.20703 14.168ZM7.5 23.25V17.0977L13.6523 23.25H7.5Z" fill="#82C91E"/>
</svg>
