<svg width="38" height="31" viewBox="0 0 38 31" fill="none" xmlns="http://www.w3.org/2000/svg">
<path d="M37.3984 22.7812L31.0117 12.4688C30.8359 12.1758 30.543 12 30.25 12C29.8984 12 29.6055 12.1758 29.4297 12.4688L23.043 22.7812C22.8086 23.0742 22.6914 23.4844 22.75 23.8945C23.043 27.7617 26.2656 30.75 30.25 30.75C34.1758 30.75 37.3984 27.7617 37.6914 23.8945C37.75 23.4844 37.6328 23.0742 37.3984 22.7812ZM30.1914 14.7539L35.5234 23.25H24.918L30.1914 14.7539ZM30.25 28.875C27.7891 28.875 25.7383 27.3516 24.918 25.125H35.5234C34.7617 27.293 32.6523 28.875 30.25 28.875ZM31.2461 10.3008L31.5391 9.42188C31.6562 9.1875 31.5391 8.89453 31.2461 8.83594L22.457 5.90625C22.6328 5.4375 22.75 5.02734 22.75 4.5C22.75 2.44922 21.0508 0.75 19 0.75C17.2422 0.75 15.8359 1.92188 15.3672 3.50391L7.28125 0.808594C7.04688 0.75 6.75391 0.867188 6.69531 1.10156L6.40234 1.98047C6.28516 2.21484 6.40234 2.50781 6.69531 2.56641L15.3672 5.49609C15.7188 6.78516 16.7148 7.78125 18.0625 8.13281V28.875H6.34375C6.05078 28.875 5.875 29.1094 5.875 29.3438V30.2812C5.875 30.5742 6.05078 30.75 6.34375 30.75H19.4688C19.7031 30.75 19.9375 30.5742 19.9375 30.2812V8.13281C20.4062 8.01562 20.875 7.78125 21.2852 7.48828L30.6602 10.5938C30.8945 10.7109 31.1875 10.5352 31.2461 10.3008ZM19 6.375C17.9453 6.375 17.125 5.55469 17.125 4.5C17.125 3.50391 17.9453 2.625 19 2.625C19.9961 2.625 20.875 3.50391 20.875 4.5C20.875 5.55469 19.9961 6.375 19 6.375ZM15.1914 16.3945C15.25 15.9844 15.1328 15.5742 14.8984 15.2812L8.51172 4.96875C8.33594 4.67578 8.04297 4.5 7.75 4.5C7.39844 4.5 7.10547 4.67578 6.92969 4.96875L0.542969 15.2812C0.308594 15.5742 0.191406 15.9844 0.25 16.3945C0.542969 20.2617 3.76562 23.25 7.75 23.25C11.6758 23.25 14.8984 20.2617 15.1914 16.3945ZM7.69141 7.25391L13.0234 15.75H2.41797L7.69141 7.25391ZM2.41797 17.625H13.0234C12.2617 19.793 10.1523 21.375 7.75 21.375C5.28906 21.375 3.23828 19.8516 2.41797 17.625Z" fill="#82C91E"/>
</svg>
