<svg width="30" height="27" viewBox="0 0 30 27" fill="none" xmlns="http://www.w3.org/2000/svg">
<path d="M27.1875 6.25H20.625V2.03125C20.625 1.26953 19.9805 0.625 19.2188 0.625H10.7812C9.96094 0.625 9.375 1.26953 9.375 2.03125V6.25H2.8125C1.23047 6.25 0 7.53906 0 9.0625V24.0625C0 25.6445 1.23047 26.875 2.8125 26.875H27.1875C28.7109 26.875 30 25.6445 30 24.0625V9.0625C30 7.53906 28.7109 6.25 27.1875 6.25ZM11.25 2.5H18.75V6.25H11.25V2.5ZM28.125 24.0625C28.125 24.5898 27.6562 25 27.1875 25H2.8125C2.28516 25 1.875 24.5898 1.875 24.0625V15.625H11.25V17.9688C11.25 18.7891 11.8359 19.375 12.6562 19.375H17.3438C18.1055 19.375 18.75 18.7891 18.75 17.9688V15.625H28.125V24.0625ZM13.125 17.5V15.625H16.875V17.5H13.125ZM28.125 13.75H1.875V9.0625C1.875 8.59375 2.28516 8.125 2.8125 8.125H27.1875C27.6562 8.125 28.125 8.59375 28.125 9.0625V13.75Z" fill="#82C91E"/>
</svg>
