<svg width="34" height="31" viewBox="0 0 34 31" fill="none" xmlns="http://www.w3.org/2000/svg">
<path d="M32.9375 10.125C32.8203 10.125 32.7031 10.1836 32.5859 10.2422L22.625 13.875L21.9805 13.6992C23.3867 11.6484 24.5 9.53906 24.5 7.95703C24.5 3.97266 21.1016 0.75 17 0.75C12.8398 0.75 9.5 4.03125 9.5 7.95703C9.5 8.66016 9.73438 9.48047 10.0859 10.3594L1.29688 13.4062C0.59375 13.6992 0.125 14.4023 0.125 15.1641V29.8125C0.125 30.3984 0.535156 30.75 1.0625 30.75C1.17969 30.75 1.29688 30.75 1.41406 30.6914L11.375 27L21.4531 30.5742C22.2148 30.8086 23.0352 30.8672 23.7969 30.5742L32.6445 27.4688C33.4062 27.2344 33.875 26.5312 33.875 25.7695V11.0625C33.875 10.5352 33.4062 10.125 32.9375 10.125ZM10.4375 25.3594L1.94141 28.4648L1.88281 15.2227L10.4375 12.2344V25.3594ZM17 2.625C20.0469 2.625 22.625 5.02734 22.625 7.95703C22.625 9.53906 20.3398 13.1719 17 17.1562C13.6016 13.1719 11.375 9.53906 11.375 7.95703C11.375 5.02734 13.8945 2.625 17 2.625ZM21.6875 28.6992L12.3125 25.3594V14.168C13.7188 16.2773 15.3594 18.1523 16.2383 19.207C16.4141 19.4414 16.707 19.5 17 19.5C17.2344 19.5 17.5273 19.4414 17.7031 19.207C18.4648 18.3281 19.6953 16.9219 20.8672 15.2812L21.6875 15.5742V28.6992ZM23.5625 28.6992V15.5742L32 12.4102L32.0586 25.7109L23.5625 28.6992ZM18.4062 8.25C18.4062 7.48828 17.7617 6.84375 17 6.84375C16.1797 6.84375 15.5938 7.48828 15.5938 8.25C15.5938 9.07031 16.1797 9.65625 17 9.65625C17.7617 9.65625 18.4062 9.07031 18.4062 8.25Z" fill="#82C91E"/>
</svg>
