<svg width="34" height="31" viewBox="0 0 34 31" fill="none" xmlns="http://www.w3.org/2000/svg">
<path d="M13.25 14.5195C14.4805 14.4609 15.5352 13.3477 15.5352 12.0586C15.5352 10.9453 14.832 9.94922 13.7773 9.59766L11.3164 8.89453C11.082 8.83594 10.9062 8.54297 10.9062 8.25C10.9062 7.89844 11.1406 7.60547 11.4922 7.60547H13.0156C13.25 7.60547 13.4258 7.66406 13.6602 7.83984C13.8359 7.89844 14.0703 7.89844 14.2461 7.72266L14.8906 7.07812C15.125 6.90234 15.125 6.55078 14.8906 6.375C14.3633 6.02344 13.8359 5.84766 13.25 5.78906V4.96875C13.25 4.73438 13.0156 4.5 12.7812 4.5H11.8438C11.5508 4.5 11.375 4.73438 11.375 4.96875V5.78906C10.0859 5.84766 9.03125 6.96094 9.03125 8.25C9.03125 9.36328 9.73438 10.3594 10.7891 10.7109L13.25 11.4141C13.4844 11.4727 13.6602 11.7656 13.6602 12.0586C13.6602 12.4102 13.4258 12.7031 13.0742 12.7031H11.5508C11.3164 12.7031 11.1406 12.5859 10.9062 12.4688C10.7305 12.4102 10.4961 12.4102 10.3203 12.5859L9.67578 13.2305C9.44141 13.4062 9.5 13.7578 9.67578 13.9336C10.2031 14.2852 10.7305 14.4609 11.375 14.5195V15.2812C11.375 15.5742 11.5508 15.75 11.8438 15.75H12.7812C13.0156 15.75 13.25 15.5742 13.25 15.2812V14.5195ZM30.125 10.125H24.5V4.5C24.5 2.44922 22.8008 0.75 20.75 0.75H3.875C1.76562 0.75 0.125 2.44922 0.125 4.5V15.75C0.125 17.8594 1.76562 19.5 3.875 19.5H5.75V22.5469C5.75 23.0156 6.04297 23.25 6.45312 23.25C6.57031 23.25 6.6875 23.25 6.86328 23.1328L11.375 20.6133V23.25C11.375 25.3594 13.0156 27 15.125 27H20.75L27.0781 30.6328C27.2539 30.75 27.3711 30.75 27.4883 30.75C27.8984 30.75 28.25 30.5156 28.25 30.0469V27H30.125C32.1758 27 33.875 25.3594 33.875 23.25V13.875C33.875 11.8242 32.1758 10.125 30.125 10.125ZM7.625 20.5547V17.625H3.875C2.82031 17.625 2 16.8047 2 15.75V4.5C2 3.50391 2.82031 2.625 3.875 2.625H20.75C21.7461 2.625 22.625 3.50391 22.625 4.5V15.75C22.625 16.8047 21.7461 17.625 20.75 17.625H12.7227L7.625 20.5547ZM32 23.25C32 24.3047 31.1211 25.125 30.125 25.125H26.375V28.0547L21.2188 25.125H15.125C14.0703 25.125 13.25 24.3047 13.25 23.25V19.5H20.75C22.8008 19.5 24.5 17.8594 24.5 15.75V12H30.125C31.1211 12 32 12.8789 32 13.875V23.25Z" fill="#82C91E"/>
</svg>
