<svg width="24" height="31" viewBox="0 0 24 31" fill="none" xmlns="http://www.w3.org/2000/svg">
<path d="M22.3711 6.49219L17.5078 1.62891C16.9805 1.10156 16.2773 0.75 15.5156 0.75H3.5625C1.98047 0.75 0.75 2.03906 0.75 3.5625V27.9375C0.75 29.5195 1.98047 30.75 3.5625 30.75H20.4375C21.9609 30.75 23.25 29.5195 23.25 27.9375V8.48438C23.25 7.72266 22.8984 7.01953 22.3711 6.49219ZM21.082 7.83984C21.1992 7.95703 21.2578 8.13281 21.3164 8.25H15.75V2.68359C15.8672 2.74219 16.043 2.80078 16.1602 2.91797L21.082 7.83984ZM20.4375 28.875H3.5625C3.03516 28.875 2.625 28.4648 2.625 27.9375V3.5625C2.625 3.09375 3.03516 2.625 3.5625 2.625H13.875V8.71875C13.875 9.53906 14.4609 10.125 15.2812 10.125H21.375V27.9375C21.375 28.4648 20.9062 28.875 20.4375 28.875ZM18.3867 16.5703C18.6797 16.2773 18.6797 15.8086 18.3867 15.5742L17.918 15.0469C17.625 14.7539 17.1562 14.7539 16.9219 15.0469L10.0078 21.9023L7.01953 18.9141C6.78516 18.6797 6.31641 18.6797 6.02344 18.9141L5.55469 19.4414C5.26172 19.6758 5.26172 20.1445 5.55469 20.4375L9.48047 24.3633C9.77344 24.6562 10.2422 24.6562 10.4766 24.3633L18.3867 16.5703Z" fill="#82C91E"/>
</svg>
