<svg width="25" height="34" viewBox="0 0 25 34" fill="none" xmlns="http://www.w3.org/2000/svg">
<path d="M16.6319 14.45H15.5903C15.2648 14.45 15.0694 14.7156 15.0694 14.9812V21.3563C15.0694 21.6883 15.2648 21.8875 15.5903 21.8875H16.6319C16.8924 21.8875 17.1528 21.6883 17.1528 21.3563V14.9812C17.1528 14.7156 16.8924 14.45 16.6319 14.45ZM8.57639 8.075H7.53472C7.2092 8.075 7.01389 8.34062 7.01389 8.60625V21.3563C7.01389 21.6883 7.2092 21.8875 7.53472 21.8875H8.57639C8.83681 21.8875 9.09722 21.6883 9.09722 21.3563V8.60625C9.09722 8.34062 8.83681 8.075 8.57639 8.075ZM11.1806 12.8562V21.3563C11.1806 21.6883 11.3759 21.8875 11.7014 21.8875H12.7431C13.0035 21.8875 13.2639 21.6883 13.2639 21.3563V12.8562C13.2639 12.5906 13.0035 12.325 12.7431 12.325H11.7014C11.3759 12.325 11.1806 12.5906 11.1806 12.8562ZM24.0234 6.50781L18.6198 0.996094C18.0339 0.398438 17.1875 0 16.4062 0H3.0599C1.36719 0.0664062 0 1.46094 0 3.25391V30.8789C0 32.6055 1.36719 34 3.0599 34H21.875C23.5677 34 25 32.6055 25 30.8789V8.76562C25 7.96875 24.6094 7.10547 24.0234 6.50781ZM16.6667 2.19141C16.7969 2.25781 16.9922 2.32422 17.1224 2.45703L22.5911 8.03516C22.7214 8.16797 22.7865 8.36719 22.8516 8.56641H16.6667V2.19141ZM22.9167 30.8789C22.9167 31.4102 22.3958 31.9414 21.875 31.9414H3.0599C2.53906 31.9414 2.01823 31.4102 2.01823 30.8789V3.25391C2.01823 2.65625 2.53906 2.125 3.0599 2.125H14.5833V9.09766C14.5833 9.96094 15.2344 10.625 16.1458 10.625H22.9167V30.8789Z" fill="#82C91E"/>
</svg>
