<svg width="32" height="27" viewBox="0 0 32 27" fill="none" xmlns="http://www.w3.org/2000/svg">
<path d="M31.0586 16.1523L24.4961 4.84375C22.6797 1.73828 18.6953 0.683594 15.5898 2.44141C14.3594 3.20312 13.4219 4.25781 12.8945 5.48828C12.1328 2.67578 9.61328 0.625 6.625 0.625C2.99219 0.625 0.0625 3.61328 0.0625 7.1875V20.3125C0.0625 23.9453 2.99219 26.875 6.625 26.875C10.1992 26.875 13.1875 23.9453 13.1875 20.3125V11.3477C13.1875 11.3477 13.1875 11.3477 13.1875 11.4062L19.6914 22.7148C20.9219 24.7656 23.1484 25.9375 25.375 25.9375C26.4883 25.9375 27.6016 25.7031 28.6562 25.0586C30.1797 24.2383 31.2344 22.832 31.7031 21.1328C32.1133 19.4336 31.8789 17.6758 31.0586 16.1523ZM6.625 2.5C9.20312 2.5 11.3125 4.60938 11.3125 7.1875V13.75H1.9375V7.1875C1.9375 4.60938 3.98828 2.5 6.625 2.5ZM6.625 25C3.98828 25 1.9375 22.9492 1.9375 20.3125V15.625H11.3125V20.3125C11.3125 22.9492 9.20312 25 6.625 25ZM16.5273 4.08203C18.8711 2.73438 21.6836 3.67188 22.9141 5.78125L25.668 10.5859L17.582 15.2734L14.8281 10.4688C13.5391 8.24219 14.3008 5.37109 16.5273 4.08203ZM29.8867 20.6641C29.5352 21.8359 28.7734 22.832 27.7188 23.4766C25.4922 24.7656 22.6211 24.0039 21.332 21.7773L18.5195 16.9141L26.6055 12.2266L29.418 17.0898C30.0625 18.2031 30.1797 19.4336 29.8867 20.6641Z" fill="#82C91E"/>
</svg>
