<svg width="30" height="31" viewBox="0 0 30 31" fill="none" xmlns="http://www.w3.org/2000/svg">
<path d="M30 15.8086C30 15.2227 29.6484 14.6953 29.1211 14.4609L23.2617 11.8828L29.1211 9.36328C29.6484 9.12891 30 8.60156 30 8.01562C30 7.42969 29.6484 6.90234 29.1211 6.72656L15.8789 0.984375C15.293 0.691406 14.6484 0.691406 14.0625 0.984375L0.820312 6.72656C0.292969 6.90234 0 7.42969 0 8.01562C0 8.60156 0.292969 9.12891 0.820312 9.36328L6.67969 11.8828L0.820312 14.4609C0.292969 14.6953 0 15.2227 0 15.8086C0 16.3359 0.292969 16.8633 0.820312 17.0977L6.67969 19.6758L0.820312 22.1953C0.292969 22.4297 0 22.957 0 23.543C0 24.1289 0.292969 24.6562 0.820312 24.832L14.0625 30.5742C14.2969 30.6914 14.6484 30.75 14.9414 30.75C15.293 30.75 15.5859 30.6914 15.8789 30.5742L29.1211 24.832C29.6484 24.6562 29.9414 24.1289 29.9414 23.543C29.9414 22.957 29.6484 22.4297 29.1211 22.1953L23.2617 19.6758L29.1211 17.0977C29.6484 16.8633 30 16.3359 30 15.8086ZM2.63672 8.01562L14.8242 2.74219C14.9414 2.68359 15 2.68359 15.1172 2.74219L27.3047 8.01562L15.1172 13.3477C15 13.3477 14.9414 13.3477 14.8242 13.3477L2.63672 8.01562ZM27.3047 23.543L15.1172 28.8164C15 28.875 14.9414 28.875 14.8242 28.8164L2.63672 23.543L9.08203 20.7305L14.0625 22.8398C14.2969 22.957 14.6484 23.0156 15 23.0156C15.293 23.0156 15.5859 22.957 15.8789 22.8398L20.8594 20.7305L27.3047 23.543ZM15.1172 21.082C15 21.1406 14.9414 21.1406 14.8242 21.082L2.63672 15.75L9.14062 12.9375L14.0625 15.1055C14.2969 15.2227 14.6484 15.2812 15 15.2812C15.293 15.2812 15.5859 15.2227 15.8789 15.1055L20.8594 12.9375L27.3047 15.8086L15.1172 21.082Z" fill="#82C91E"/>
</svg>
