<svg width="30" height="31" viewBox="0 0 30 31" fill="none" xmlns="http://www.w3.org/2000/svg">
<path d="M23.5547 3.73828C24.1992 3.03516 24.375 1.86328 24.3164 0.808594C23.5547 0.75 22.207 0.808594 21.3867 1.57031C20.3906 2.56641 20.5664 4.26562 20.625 4.5C21.6797 4.55859 22.793 4.38281 23.5547 3.73828ZM29.0625 13.875H27.5391C27.7148 13.4062 27.832 12.9375 27.9492 12.4102C28.7109 8.07422 26.4844 3.26953 20.5664 6.55078C16.7578 4.38281 15.0586 6.08203 14.9414 6.14062C14.8828 6.08203 13.1836 4.38281 9.375 6.55078C3.45703 3.26953 1.17188 8.13281 1.99219 12.4102C2.10938 12.9375 2.22656 13.4062 2.40234 13.875H0.9375C0.410156 13.875 0 14.3438 0 14.8125V29.8125C0 30.3398 0.410156 30.75 0.9375 30.75H29.0625C29.5312 30.75 30 30.3398 30 29.8125V14.8125C30 14.3438 29.5312 13.875 29.0625 13.875ZM19.6875 8.19141L20.5664 8.66016L21.5039 8.19141C24.7266 6.375 25.4297 7.95703 25.4883 8.01562C26.1914 9.01172 26.3086 10.8281 26.0742 12.0586C25.957 12.7617 25.7812 13.3477 25.5469 13.875H16.2891C16.4648 13.4062 16.6406 12.9375 16.6992 12.4102C16.9336 11.0625 16.875 9.07031 16.1133 7.60547C16.9922 6.96094 19.1016 7.83984 19.6875 8.19141ZM4.45312 8.01562C4.51172 7.95703 5.21484 6.375 8.4375 8.19141L9.375 8.66016L10.2539 8.19141C13.4766 6.375 14.1797 7.95703 14.2383 8.01562C14.9414 9.01172 15.0586 10.8281 14.8828 12.0586C14.7656 12.7617 14.5312 13.3477 14.2969 13.875H4.39453C4.16016 13.3477 3.92578 12.7617 3.80859 12.0586C3.63281 10.8281 3.80859 9.01172 4.45312 8.01562ZM28.125 28.875H1.875V23.25H28.125V28.875ZM28.125 21.375H1.875V15.75H28.125V21.375ZM4.6875 19.5C5.15625 19.5 5.625 19.0898 5.625 18.5625C5.625 18.0938 5.15625 17.625 4.6875 17.625C4.16016 17.625 3.75 18.0938 3.75 18.5625C3.75 19.0898 4.16016 19.5 4.6875 19.5ZM4.6875 27C5.15625 27 5.625 26.5898 5.625 26.0625C5.625 25.5938 5.15625 25.125 4.6875 25.125C4.16016 25.125 3.75 25.5938 3.75 26.0625C3.75 26.5898 4.16016 27 4.6875 27ZM25.3125 19.5C25.7812 19.5 26.25 19.0898 26.25 18.5625C26.25 18.0938 25.7812 17.625 25.3125 17.625C24.7852 17.625 24.375 18.0938 24.375 18.5625C24.375 19.0898 24.7852 19.5 25.3125 19.5ZM25.3125 27C25.7812 27 26.25 26.5898 26.25 26.0625C26.25 25.5938 25.7812 25.125 25.3125 25.125C24.7852 25.125 24.375 25.5938 24.375 26.0625C24.375 26.5898 24.7852 27 25.3125 27ZM12.3047 3.73828C12.9492 3.03516 13.125 1.86328 13.0664 0.808594C12.3047 0.75 11.0156 0.808594 10.1367 1.57031C9.19922 2.56641 9.31641 4.26562 9.375 4.5C10.4297 4.55859 11.6016 4.38281 12.3047 3.73828Z" fill="#82C91E"/>
</svg>
