<svg width="38" height="20" viewBox="0 0 38 20" fill="none" xmlns="http://www.w3.org/2000/svg">
<path d="M15.7188 0.375H1.59766C1.24609 0.375 0.894531 0.726562 0.894531 1.07812V1.95703C0.894531 2.36719 1.24609 2.66016 1.59766 2.66016H7.33984V18.4219C7.33984 18.832 7.69141 19.125 8.04297 19.125H9.27344C9.68359 19.125 9.97656 18.832 9.97656 18.4219V2.66016H15.7188C16.0703 2.66016 16.4219 2.36719 16.4219 1.95703V1.07812C16.4219 0.726562 16.0703 0.375 15.7188 0.375ZM37.75 18.3633L36.3438 1.01953C36.2852 0.667969 35.9922 0.375 35.6406 0.375H34C33.707 0.375 33.4141 0.550781 33.3555 0.84375L29.1953 10.5703C28.7852 11.5664 28.2578 13.0898 28.2578 13.0898H28.1992C28.1992 13.0898 27.7305 11.5664 27.3203 10.5703L23.1602 0.84375C23.043 0.550781 22.8086 0.375 22.5156 0.375H20.875C20.5234 0.375 20.2305 0.667969 20.1719 1.01953L18.7656 18.3633C18.7656 18.7734 19.0586 19.125 19.4688 19.125H20.6992C21.0508 19.125 21.3438 18.8906 21.4023 18.4805L22.2812 7.34766C22.3398 6.17578 22.2812 4.53516 22.2812 4.53516H22.3398C22.3398 4.53516 22.9258 6.35156 23.3945 7.34766L26.9102 15.375C27.0273 15.6094 27.2617 15.7852 27.5547 15.7852H28.9609C29.2539 15.7852 29.4883 15.6094 29.6055 15.375L33.1797 7.34766C33.6484 6.29297 34.1758 4.59375 34.1758 4.59375H34.2344C34.2344 4.59375 34.1758 6.17578 34.2344 7.34766L35.1133 18.4805C35.1719 18.8906 35.4648 19.1836 35.8164 19.1836H37.0469C37.457 19.125 37.75 18.7734 37.75 18.3633Z" fill="#82C91E"/>
</svg>
