<svg width="38" height="31" viewBox="0 0 38 31" fill="none" xmlns="http://www.w3.org/2000/svg">
<path d="M34.9375 0.75H29.3125C27.7305 0.75 26.5 2.03906 26.5 3.5625V5.4375H11.5V3.5625C11.5 2.03906 10.2109 0.75 8.6875 0.75H3.0625C1.48047 0.75 0.25 2.03906 0.25 3.5625V9.1875C0.25 10.7695 1.48047 12 3.0625 12H8.57031L13.7852 20.8477C13.4922 21.2578 13.3164 21.7852 13.3164 22.3125V27.9375C13.3164 29.5195 14.6055 30.75 16.1289 30.75H21.7539C23.3359 30.75 24.5664 29.5195 24.5664 27.9375V22.3125C24.5664 20.7891 23.3359 19.5 21.7539 19.5H16.1289C15.8359 19.5 15.543 19.6172 15.3086 19.6758L10.3867 11.4141C11.0312 10.8867 11.5 10.125 11.5 9.1875V7.3125H26.5V9.1875C26.5 10.7695 27.7305 12 29.3125 12H34.9375C36.4609 12 37.75 10.7695 37.75 9.1875V3.5625C37.75 2.03906 36.4609 0.75 34.9375 0.75ZM2.125 9.1875V3.5625C2.125 3.09375 2.53516 2.625 3.0625 2.625H8.6875C9.15625 2.625 9.625 3.09375 9.625 3.5625V9.1875C9.625 9.71484 9.15625 10.125 8.6875 10.125H3.0625C2.53516 10.125 2.125 9.71484 2.125 9.1875ZM21.8125 21.375C22.2812 21.375 22.75 21.8438 22.75 22.3125V27.9375C22.75 28.4648 22.2812 28.875 21.8125 28.875H16.1875C15.6602 28.875 15.25 28.4648 15.25 27.9375V22.3125C15.25 21.8438 15.6602 21.375 16.1875 21.375H21.8125ZM35.875 9.1875C35.875 9.71484 35.4062 10.125 34.9375 10.125H29.3125C28.7852 10.125 28.375 9.71484 28.375 9.1875V3.5625C28.375 3.09375 28.7852 2.625 29.3125 2.625H34.9375C35.4062 2.625 35.875 3.09375 35.875 3.5625V9.1875Z" fill="#82C91E"/>
</svg>
