<svg width="36" height="34" viewBox="0 0 36 34" fill="none" xmlns="http://www.w3.org/2000/svg">
<path fill-rule="evenodd" clip-rule="evenodd" d="M10.7334 8.56803H12.7356V7.82464C12.7356 4.58368 15.0925 1.95637 17.9998 1.95637C20.9072 1.95637 23.2641 4.58368 23.2641 7.82464V8.56803H25.2663V7.82464C25.2663 3.75343 22.2528 0 17.9998 0C13.7469 0 10.7334 3.75343 10.7334 7.82464V8.56803ZM8.00141 23.9373H27.9986C32.1661 23.9373 36 20.9864 36 16.8316C36 12.6768 32.1661 9.72587 27.9986 9.72587L8.00141 9.72587C3.83394 9.72587 0 12.6768 0 16.8316C0 20.9864 3.83394 23.9373 8.00141 23.9373ZM8.00141 21.981H27.9986C31.3118 21.981 33.9977 19.6755 33.9977 16.8316C33.9977 13.9877 31.3118 11.6822 27.9986 11.6822L8.00141 11.6822C4.68817 11.6822 2.00227 13.9877 2.00227 16.8316C2.00227 19.6755 4.68817 21.981 8.00141 21.981ZM18.6911 12.0984H17.3086V21.5649H18.6911V12.0984ZM25.2786 25.432H23.2764V26.1754C23.2764 29.4163 20.9195 32.0436 18.0121 32.0436C15.1048 32.0436 12.7479 29.4163 12.7479 26.1754V25.432H10.7457V26.1754C10.7457 30.2466 13.7592 34 18.0121 34C22.2651 34 25.2786 30.2466 25.2786 26.1754V25.432Z" fill="#82C91E"/>
</svg>
