<svg width="30" height="31" viewBox="0 0 30 31" fill="none" xmlns="http://www.w3.org/2000/svg">
<path d="M29.5312 12H22.8516L29.1211 5.78906C30.5273 4.38281 30.1172 1.98047 28.3594 1.10156C27.9492 0.867188 27.5391 0.808594 27.0703 0.75C26.4258 0.75 25.7812 0.984375 25.3125 1.33594L11.0742 12H0.46875C0.175781 12 0 12.2344 0 12.4688V13.4062C0 13.6992 0.175781 13.875 0.46875 13.875H1.875V15.75C1.875 20.5547 4.80469 24.5977 9.02344 26.2383C8.26172 27.2344 7.73438 28.4062 7.55859 29.6953C7.44141 30.2812 7.91016 30.75 8.49609 30.75H21.4453C22.0312 30.75 22.5 30.2812 22.3828 29.6953C22.207 28.4062 21.6797 27.2344 20.918 26.2383C25.1367 24.5977 28.125 20.5547 28.125 15.75V13.875H29.5312C29.7656 13.875 30 13.6992 30 13.4062V12.4688C30 12.2344 29.7656 12 29.5312 12ZM26.4258 2.85938C27.4219 2.09766 28.7109 3.50391 27.7734 4.44141L20.2148 12H14.1797L26.4258 2.85938ZM26.25 15.75C26.25 19.6758 23.8477 23.0742 20.2734 24.4805L17.9297 25.418L19.4531 27.4102C19.8047 27.8789 20.0977 28.3477 20.2734 28.875H9.66797C9.84375 28.3477 10.1367 27.8789 10.4883 27.4102L12.0117 25.418L9.66797 24.4805C6.09375 23.0742 3.75 19.6758 3.75 15.75V13.875H26.25V15.75Z" fill="#82C91E"/>
</svg>
