<svg width="31" height="31" viewBox="0 0 31 31" fill="none" xmlns="http://www.w3.org/2000/svg">
<path d="M30.8242 5.55469L26.1953 0.925781C26.0195 0.75 25.7266 0.75 25.5508 0.925781L24.8477 1.57031C24.6719 1.74609 24.6719 2.03906 24.8477 2.21484L26.5469 3.91406L23.8516 6.55078L20.5703 3.21094L19.5742 2.21484C19.3984 2.03906 19.1055 2.03906 18.9297 2.21484L18.2266 2.91797C18.0508 3.09375 18.0508 3.38672 18.2266 3.5625L19.2227 4.55859L5.92188 17.8594C4.92578 18.8555 4.39844 20.2617 4.57422 21.7266L4.98438 25.418L1.11719 29.2852C0.941406 29.5195 0.941406 29.8125 1.11719 29.9883L1.76172 30.6328C1.9375 30.8086 2.23047 30.8086 2.40625 30.6328L6.33203 26.7656L10.0234 27.1758C11.4297 27.293 12.8359 26.8242 13.8906 25.8281L27.1914 12.5273L28.1875 13.5234C28.3633 13.6992 28.6562 13.6992 28.832 13.5234L29.5352 12.8203C29.7109 12.6445 29.7109 12.3516 29.5352 12.1758L25.1992 7.89844L27.8359 5.20312L29.5352 6.90234C29.7109 7.07812 30.0039 7.07812 30.1797 6.90234L30.8242 6.19922C31 6.02344 31 5.73047 30.8242 5.55469ZM25.8438 11.1797L12.543 24.4805C11.957 25.125 11.1367 25.418 10.2578 25.3008L6.85938 24.9492L6.44922 21.4922C6.33203 20.6719 6.625 19.793 7.26953 19.207L8.61719 17.8008L10.9609 20.1445C11.1367 20.3203 11.4297 20.3203 11.6055 20.1445L12.3086 19.5C12.4844 19.3242 12.4844 19.0312 12.3086 18.7969L9.96484 16.5117L12.6016 13.875L14.9453 16.1602C15.1211 16.3359 15.4141 16.3359 15.5898 16.1602L16.2344 15.5156C16.4688 15.3398 16.4688 15.0469 16.2344 14.8711L13.9492 12.5273L16.5859 9.89062L18.9297 12.1758C19.1055 12.3516 19.3984 12.3516 19.5742 12.1758L20.2188 11.5312C20.3945 11.3555 20.3945 11.0625 20.2188 10.8867L17.9336 8.54297L20.5703 5.90625L25.8438 11.1797Z" fill="#82C91E"/>
</svg>
