<svg width="38" height="31" viewBox="0 0 38 31" fill="none" xmlns="http://www.w3.org/2000/svg">
<path d="M28.8438 21.8438C28.0234 21.8438 27.4375 22.4883 27.4375 23.25C27.4375 24.0703 28.0234 24.6562 28.8438 24.6562C29.6055 24.6562 30.25 24.0703 30.25 23.25C30.25 22.4883 29.6055 21.8438 28.8438 21.8438ZM28.1992 16.8633C26.9688 14.1094 25.3281 8.01562 23.9219 5.96484C21.6953 2.80078 18.0625 0.75 13.9609 0.75H11.7344C5.64062 0.75 0.425781 5.55469 0.25 11.6484C0.25 11.7656 0.191406 11.8828 0.191406 12.0586C0.191406 15.3398 1.65625 18.3281 4 20.3789V30.2812C4 30.5742 4.17578 30.75 4.46875 30.75H5.40625C5.64062 30.75 5.875 30.5742 5.875 30.2812V19.5586L5.52344 19.2656C4.35156 18.2109 3.41406 16.9219 2.82812 15.5156C0.132812 8.95312 5.40625 2.625 11.9688 2.625H13.9609C17.418 2.68359 20.5234 4.38281 22.3984 7.01953C23.1016 8.07422 24.0977 10.9453 24.8594 13.2305C25.4453 14.9297 25.9727 16.5117 26.5 17.625H22.75V20.4375H20.0547C18.4727 20.4375 17.125 21.668 17.125 23.1914C17.0664 23.25 17.0664 23.25 17.0664 23.3086C17.0664 24.832 18.3555 26.1211 19.8789 26.1211C19.8789 26.1211 19.8789 26.0625 19.9375 26.0625H22.75V27C22.75 28.0547 21.8711 28.875 20.875 28.875H17.5938C17.3008 28.875 17.125 29.1094 17.125 29.3438V30.2812C17.125 30.5742 17.3008 30.75 17.5938 30.75H20.875C22.9258 30.75 24.625 29.1094 24.625 27V25.125C24.625 24.6562 24.1562 24.1875 23.6875 24.1875H19.9375C19.4688 24.1875 19.0586 23.8945 19 23.4258C19 23.3672 18.9414 23.3086 18.9414 23.25C18.9414 22.7812 19.4102 22.3125 19.8789 22.3125C19.8789 22.3125 19.8789 22.3125 19.9375 22.3125H23.6875C24.1562 22.3125 24.625 21.9023 24.625 21.375V19.5H26.5C27.4961 19.5 28.3164 18.6797 28.3164 17.625C28.3164 17.3906 28.2578 17.0977 28.1992 16.8633ZM19 12C19 11.0039 18.1211 10.125 17.125 10.125C16.0703 10.125 15.25 11.0039 15.25 12C15.25 13.0547 16.0703 13.875 17.125 13.875C18.1211 13.875 19 13.0547 19 12ZM36.3438 18.5625C37.1055 18.5625 37.75 17.9766 37.75 17.1562C37.75 16.3945 37.1055 15.75 36.3438 15.75C35.5234 15.75 34.9375 16.3945 34.9375 17.1562C34.9375 17.9766 35.5234 18.5625 36.3438 18.5625ZM36.3438 21.8438C35.5234 21.8438 34.9375 22.4883 34.9375 23.25C34.9375 24.0703 35.5234 24.6562 36.3438 24.6562C37.1055 24.6562 37.75 24.0703 37.75 23.25C37.75 22.4883 37.1055 21.8438 36.3438 21.8438ZM36.3438 27.9375C35.5234 27.9375 34.9375 28.582 34.9375 29.3438C34.9375 30.1641 35.5234 30.75 36.3438 30.75C37.1055 30.75 37.75 30.1641 37.75 29.3438C37.75 28.582 37.1055 27.9375 36.3438 27.9375ZM32.5938 19.5C31.7734 19.5 31.1875 20.1445 31.1875 20.9062C31.1875 21.7266 31.7734 22.3125 32.5938 22.3125C33.3555 22.3125 34 21.7266 34 20.9062C34 20.1445 33.3555 19.5 32.5938 19.5ZM32.5938 25.125C31.7734 25.125 31.1875 25.7695 31.1875 26.5312C31.1875 27.3516 31.7734 27.9375 32.5938 27.9375C33.3555 27.9375 34 27.3516 34 26.5312C34 25.7695 33.3555 25.125 32.5938 25.125Z" fill="#82C91E"/>
</svg>
