<svg width="38" height="31" viewBox="0 0 38 31" fill="none" xmlns="http://www.w3.org/2000/svg">
<path d="M28.375 0.75C23.1602 0.75 19 4.96875 19 10.125C19 15.3398 23.1602 19.5 28.375 19.5C33.5312 19.5 37.75 15.3398 37.75 10.125C37.75 4.96875 33.5312 0.75 28.375 0.75ZM28.375 17.625C24.2148 17.625 20.875 14.2852 20.875 10.125C20.875 8.42578 21.4609 6.84375 22.457 5.55469L32.9453 16.043C31.6562 17.0391 30.0742 17.625 28.375 17.625ZM34.2344 14.7539L23.7461 4.26562C25.0352 3.26953 26.6172 2.625 28.375 2.625C32.4766 2.625 35.875 6.02344 35.875 10.125C35.875 11.8828 35.2305 13.4648 34.2344 14.7539ZM9.625 12C4.41016 12 0.25 16.2188 0.25 21.375C0.25 26.5898 4.41016 30.75 9.625 30.75C14.7812 30.75 19 26.5898 19 21.375C19 16.2188 14.7812 12 9.625 12ZM9.625 28.875C5.75781 28.875 2.65234 26.0625 2.18359 22.3125H17.0078C16.5391 26.0625 13.4336 28.875 9.625 28.875ZM2.18359 20.4375C2.65234 16.7461 5.75781 13.875 9.625 13.875C13.4336 13.875 16.5391 16.7461 17.0078 20.4375H2.18359Z" fill="#82C91E"/>
</svg>
