<svg width="38" height="31" viewBox="0 0 38 31" fill="none" xmlns="http://www.w3.org/2000/svg">
<path d="M28.5 17.25H31.7812C32.0156 17.25 32.25 17.4844 32.25 17.7188V20.5312C32.25 20.8242 32.0156 21 31.7812 21H28.5V24.2812C28.5 24.5742 28.2656 24.75 28.0312 24.75H25.2188C24.9258 24.75 24.75 24.5742 24.75 24.2812V21H21.4688C21.1758 21 21 20.8242 21 20.5312V17.7188C21 17.4844 21.1758 17.25 21.4688 17.25H24.75V13.9688C24.75 13.7344 24.9258 13.5 25.2188 13.5H28.0312C28.2656 13.5 28.5 13.7344 28.5 13.9688V17.25Z" fill="#82C91E"/>
<path fill-rule="evenodd" clip-rule="evenodd" d="M27.0859 2.68359L29.0781 8.60156C34.0586 9.77344 37.75 14.2266 37.75 19.5C37.75 25.7109 32.7109 30.75 26.5 30.75H3.0625C1.48047 30.75 0.25 29.5195 0.25 27.9375V12.4688C0.25 12.1758 0.25 11.8828 0.367188 11.5898L3.35547 2.68359C3.70703 1.57031 4.76172 0.75 5.99219 0.75H24.4492C25.6797 0.75 26.7344 1.57031 27.0859 2.68359ZM24.4492 2.625H16.1875V12H18.1211C20.1719 9.71484 23.1602 8.25 26.5 8.25C26.5879 8.25 26.6758 8.26465 26.7637 8.2793C26.8516 8.29395 26.9395 8.30859 27.0273 8.30859L25.3281 3.26953C25.2109 2.91797 24.8594 2.625 24.4492 2.625ZM5.99219 2.625C5.58203 2.625 5.23047 2.91797 5.11328 3.26953L2.18359 12H14.3125V2.625H5.99219ZM2.125 27.9375C2.125 28.4648 2.53516 28.875 3.0625 28.875H20.2891C17.2422 26.8828 15.25 23.4258 15.25 19.5C15.25 17.4492 15.7773 15.5742 16.7148 13.875H2.125V27.9375ZM17.125 19.5C17.125 24.7148 21.2852 28.875 26.5 28.875C31.6562 28.875 35.875 24.7148 35.875 19.5C35.875 14.3438 31.6562 10.125 26.5 10.125C21.2852 10.125 17.125 14.3438 17.125 19.5Z" fill="#82C91E"/>
</svg>
