<svg width="38" height="31" viewBox="0 0 38 31" fill="none" xmlns="http://www.w3.org/2000/svg">
<path d="M8.92188 12H6.57812C6.16797 12 5.875 12.3516 5.875 12.7031V15.0469C5.875 15.457 6.16797 15.75 6.57812 15.75H8.92188C9.27344 15.75 9.625 15.457 9.625 15.0469V12.7031C9.625 12.3516 9.27344 12 8.92188 12ZM8.92188 17.625H6.57812C6.16797 17.625 5.875 17.9766 5.875 18.3281V20.6719C5.875 21.082 6.16797 21.375 6.57812 21.375H8.92188C9.27344 21.375 9.625 21.082 9.625 20.6719V18.3281C9.625 17.9766 9.27344 17.625 8.92188 17.625ZM8.92188 23.25H6.57812C6.16797 23.25 5.875 23.6016 5.875 23.9531V26.2969C5.875 26.707 6.16797 27 6.57812 27H8.92188C9.27344 27 9.625 26.707 9.625 26.2969V23.9531C9.625 23.6016 9.27344 23.25 8.92188 23.25ZM14.5469 17.625H12.2031C11.793 17.625 11.5 17.9766 11.5 18.3281V20.6719C11.5 21.082 11.793 21.375 12.2031 21.375H14.5469C14.8984 21.375 15.25 21.082 15.25 20.6719V18.3281C15.25 17.9766 14.8984 17.625 14.5469 17.625ZM14.5469 12H12.2031C11.793 12 11.5 12.3516 11.5 12.7031V15.0469C11.5 15.457 11.793 15.75 12.2031 15.75H14.5469C14.8984 15.75 15.25 15.457 15.25 15.0469V12.7031C15.25 12.3516 14.8984 12 14.5469 12ZM14.5469 23.25H12.2031C11.793 23.25 11.5 23.6016 11.5 23.9531V26.2969C11.5 26.707 11.793 27 12.2031 27H14.5469C14.8984 27 15.25 26.707 15.25 26.2969V23.9531C15.25 23.6016 14.8984 23.25 14.5469 23.25ZM11.5 8.25H13.0234C13.1992 8.25 13.375 8.13281 13.375 7.89844V6.72656C13.375 6.55078 13.1992 6.375 13.0234 6.375H11.5V4.85156C11.5 4.67578 11.3242 4.5 11.1484 4.5H9.97656C9.74219 4.5 9.625 4.67578 9.625 4.85156V6.375H8.10156C7.86719 6.375 7.75 6.55078 7.75 6.72656V7.89844C7.75 8.13281 7.86719 8.25 8.10156 8.25H9.625V9.77344C9.625 10.0078 9.74219 10.125 9.97656 10.125H11.1484C11.3242 10.125 11.5 10.0078 11.5 9.77344V8.25ZM28.375 19.5C31.4219 19.5 34 16.9805 34 13.875C34 10.8281 31.4219 8.25 28.375 8.25C25.2695 8.25 22.75 10.8281 22.75 13.875C22.75 16.9805 25.2695 19.5 28.375 19.5ZM28.375 10.125C30.4258 10.125 32.125 11.8242 32.125 13.875C32.125 15.9844 30.4258 17.625 28.375 17.625C26.2656 17.625 24.625 15.9844 24.625 13.875C24.625 11.8242 26.2656 10.1836 28.375 10.125ZM36.7539 23.1328C35.7578 21.6094 34.0586 20.7891 32.2422 20.7891C30.6602 20.7891 30.25 21.375 28.375 21.375C26.5 21.375 26.0898 20.7891 24.4492 20.7891C22.6328 20.7891 20.9336 21.6094 19.9375 23.1328C19.3516 24.0117 19 25.0664 19 26.2383V28.4062C19 29.7539 19.9961 30.75 21.3438 30.75H35.4062C36.6953 30.75 37.75 29.7539 37.75 28.4062V26.2383C37.75 25.0664 37.3398 24.0117 36.7539 23.1328ZM35.875 28.4062C35.875 28.6992 35.6406 28.875 35.4062 28.875H21.3438C21.0508 28.875 20.875 28.6992 20.875 28.4062V26.2383C20.875 25.4766 21.1094 24.7734 21.4609 24.1289C22.1055 23.25 23.2188 22.6641 24.4492 22.6641C25.7383 22.6641 26.207 23.25 28.375 23.25C30.4844 23.25 31.0117 22.6641 32.2422 22.6641C33.4727 22.6641 34.5859 23.25 35.2305 24.1289C35.582 24.7734 35.8164 25.4766 35.8164 26.2383H35.875V28.4062ZM19 8.25V21.3164C19.5273 20.7305 20.1133 20.2031 20.875 19.8516V8.25C20.875 7.25391 19.9961 6.375 19 6.375H18.0625V2.625C18.0625 1.62891 17.1836 0.75 16.1875 0.75H4.9375C3.88281 0.75 3.0625 1.62891 3.0625 2.625V6.375H2.125C1.07031 6.375 0.25 7.25391 0.25 8.25V30.2812C0.25 30.5742 0.425781 30.75 0.71875 30.75H1.65625C1.89062 30.75 2.125 30.5742 2.125 30.2812V8.25H4.9375V2.625H16.1875V8.25H19Z" fill="#82C91E"/>
</svg>
