<svg width="37" height="30" viewBox="0 0 37 30" fill="none" xmlns="http://www.w3.org/2000/svg">
<path fill-rule="evenodd" clip-rule="evenodd" d="M18.2824 24.364L23.7745 18.728C27.8792 18.9628 31.2324 22.3679 31.2324 26.5949C31.1745 28.4736 29.6714 30 27.8214 30H8.68548C6.83548 30 5.33235 28.4736 5.33235 26.5949C5.33235 22.3679 8.62767 18.9628 12.7324 18.728L18.2824 24.364ZM8.68548 28.1213H17.3574V26.0665L12.0386 20.7241C9.37923 21.1937 7.18235 23.8356 7.18235 26.5949C7.18235 27.4755 7.81829 28.1213 8.68548 28.1213ZM19.2074 28.1213H27.8214C28.6886 28.1213 29.3245 27.4755 29.3824 26.5949C29.3824 23.8356 27.1855 21.1937 24.4683 20.7241L19.2074 26.0665V28.1213Z" fill="#82C91E"/>
<path d="M19.0339 4.34442H20.3058C20.4214 4.34442 20.5949 4.46184 20.5949 4.63796V5.63601C20.5949 5.81213 20.4214 5.92955 20.3058 5.92955H19.0339V7.16243C19.0339 7.33855 18.9183 7.45597 18.7449 7.45597H17.762C17.5886 7.45597 17.473 7.33855 17.473 7.16243V5.92955H16.2589C16.0855 5.92955 15.9699 5.81213 15.9699 5.63601V4.63796C15.9699 4.46184 16.0855 4.34442 16.2589 4.34442H17.473V3.05284C17.473 2.93542 17.5886 2.7593 17.762 2.7593H18.7449C18.9183 2.7593 19.0339 2.93542 19.0339 3.05284V4.34442Z" fill="#82C91E"/>
<path fill-rule="evenodd" clip-rule="evenodd" d="M25.6824 10.274C25.6824 14.4423 22.3292 17.7886 18.2824 17.7886C14.1777 17.7886 10.8824 14.4423 10.8824 10.274V3.81605C10.8824 3.05284 11.3449 2.34834 12.0386 2.05479L16.9527 0.234834C17.3574 0.0587084 17.8199 0 18.2824 0C18.687 0 19.1495 0.0587084 19.5542 0.234834L24.4683 2.05479C25.162 2.34834 25.6824 3.05284 25.6824 3.81605V10.274ZM17.5886 1.93738L12.7324 3.81605V8.3953H23.8324V3.81605L18.9183 1.93738C18.687 1.87867 18.4558 1.81996 18.2245 1.81996C18.0511 1.81996 17.8199 1.87867 17.5886 1.93738ZM18.2824 15.91C21.2886 15.91 23.8324 13.3855 23.8324 10.274H12.7324C12.7324 13.3855 15.2183 15.91 18.2824 15.91Z" fill="#82C91E"/>
<path fill-rule="evenodd" clip-rule="evenodd" d="M36.075 11.165C36.075 13.8068 33.9938 15.8616 31.45 15.8616C28.8484 15.8616 26.825 13.8068 26.825 11.165C26.825 8.58179 28.8484 6.46829 31.45 6.46829C33.9938 6.46829 36.075 8.58179 36.075 11.165ZM34.225 11.165C34.225 9.63854 32.9531 8.34696 31.45 8.34696C29.8891 8.34696 28.675 9.63854 28.675 11.165C28.675 12.7501 29.8891 13.983 31.45 13.983C32.9531 13.983 34.225 12.7501 34.225 11.165Z" fill="#82C91E"/>
<path d="M27.8656 18.5035C28.5594 18.0338 29.3687 17.7403 30.2938 17.7403H32.6063C34.9766 17.7403 37 19.8538 37 22.437C37 22.9653 36.5375 23.3763 36.075 23.3763C35.5547 23.3763 35.15 22.9653 35.15 22.437C35.15 20.9106 33.9938 19.619 32.6063 19.619H30.2938C29.9469 19.619 29.6578 19.7364 29.3687 19.8538C28.9062 19.3254 28.4438 18.9145 27.8656 18.5035Z" fill="#82C91E"/>
<path fill-rule="evenodd" clip-rule="evenodd" d="M10.175 11.165C10.175 13.8068 8.09375 15.8616 5.55 15.8616C2.94844 15.8616 0.925 13.8068 0.925 11.165C0.925 8.58179 2.94844 6.46829 5.55 6.46829C8.09375 6.46829 10.175 8.58179 10.175 11.165ZM8.325 11.165C8.325 9.63854 7.05312 8.34696 5.55 8.34696C3.98906 8.34696 2.775 9.63854 2.775 11.165C2.775 12.7501 3.98906 13.983 5.55 13.983C7.05312 13.983 8.325 12.7501 8.325 11.165Z" fill="#82C91E"/>
<path d="M6.70625 17.7403C7.57344 17.7403 8.38281 18.0338 9.07656 18.5035C8.49844 18.9145 8.03594 19.3254 7.57344 19.8538C7.28438 19.7364 6.99531 19.619 6.70625 19.619H4.39375C2.94844 19.619 1.85 20.9106 1.85 22.437C1.85 22.9653 1.3875 23.3763 0.925 23.3763C0.404687 23.3763 0 22.9653 0 22.437C0 19.8538 1.96563 17.7403 4.39375 17.7403H6.70625Z" fill="#82C91E"/>
</svg>
