<svg width="24" height="31" viewBox="0 0 24 31" fill="none" xmlns="http://www.w3.org/2000/svg">
<path d="M12 6.375C8.89453 6.375 6.375 8.95312 6.375 12C6.375 15.1055 8.89453 17.625 12 17.625C15.0469 17.625 17.625 15.1055 17.625 12C17.625 8.95312 15.0469 6.375 12 6.375ZM12 15.75C9.89062 15.75 8.25 14.1094 8.25 12C8.25 9.94922 9.89062 8.25 12 8.25C14.0508 8.25 15.75 9.94922 15.75 12C15.75 14.1094 14.0508 15.75 12 15.75ZM22.2539 16.7461C23.0742 15.9258 23.4258 14.6367 23.1328 13.5234C22.7227 12.1172 22.7227 12.3516 23.1328 10.8867C23.4258 9.77344 23.0742 8.54297 22.2539 7.66406C21.2578 6.66797 21.375 6.84375 20.9648 5.4375C20.6719 4.26562 19.793 3.38672 18.6797 3.03516C17.2734 2.68359 17.4492 2.80078 16.4531 1.74609C15.6328 0.925781 14.4023 0.574219 13.2305 0.867188C11.8828 1.27734 12.0586 1.27734 10.7109 0.867188C9.59766 0.574219 8.30859 0.925781 7.48828 1.74609C6.49219 2.80078 6.66797 2.68359 5.32031 3.03516C4.14844 3.38672 3.26953 4.26562 2.97656 5.4375C2.56641 6.84375 2.68359 6.66797 1.6875 7.66406C0.867188 8.54297 0.515625 9.77344 0.808594 10.8867C1.21875 12.293 1.21875 12.1172 0.808594 13.5234C0.515625 14.6953 0.867188 15.9258 1.6875 16.7461C2.68359 17.8008 2.56641 17.625 2.97656 18.9727C3.09375 19.4414 3.32812 19.8516 3.5625 20.2031L0.808594 27.0586C0.515625 27.7031 0.984375 28.3477 1.62891 28.3477C1.6875 28.3477 1.51172 28.3477 4.79297 28.2305L6.90234 30.457C7.07812 30.6914 7.3125 30.75 7.60547 30.75C7.95703 30.75 8.30859 30.5742 8.48438 30.2227L11.5312 22.6641C11.6484 22.6055 11.8242 22.5469 12 22.5469C12.1172 22.5469 12.293 22.6055 12.4102 22.6055L15.5156 30.2227C15.6328 30.5742 15.9844 30.75 16.3359 30.75C16.6289 30.75 16.8633 30.6914 17.0391 30.457L19.1484 28.2305C22.4297 28.3477 22.2539 28.3477 22.3125 28.3477C22.957 28.3477 23.4258 27.7031 23.1328 27.0586L20.3789 20.2031C20.6133 19.8516 20.8477 19.4414 20.9648 18.9727C21.375 17.5664 21.2578 17.8008 22.2539 16.7461ZM7.25391 28.1133C5.96484 26.7656 6.31641 27.1172 5.55469 26.3555C4.5 26.3555 5.02734 26.3555 3.09375 26.4141L5.14453 21.3164C5.20312 21.3164 5.26172 21.375 5.32031 21.375C6.55078 21.7266 6.49219 21.6094 7.13672 22.3125C7.72266 22.8984 8.48438 23.1914 9.24609 23.25L7.25391 28.1133ZM20.8477 26.4141C18.9141 26.3555 19.4414 26.3555 18.3867 26.3555C17.625 27.1172 17.9766 26.7656 16.6875 28.1133L14.6953 23.25C15.457 23.1914 16.2188 22.8984 16.8047 22.3125C17.4492 21.6094 17.3906 21.7266 18.6797 21.375C18.6797 21.375 18.7383 21.3164 18.7969 21.3164L20.8477 26.4141ZM19.1484 18.5039C19.0312 19.0312 18.6211 19.4414 18.1523 19.5586C16.7461 19.9102 16.5117 19.9102 15.457 20.9648C14.9883 21.4336 14.2852 21.5508 13.6992 21.1992C12.6445 20.4961 11.2969 20.4961 10.2422 21.1992C9.65625 21.5508 8.95312 21.4336 8.48438 20.9648C7.48828 19.9688 7.19531 19.9102 5.78906 19.5586C5.32031 19.4414 4.91016 19.0312 4.79297 18.5039C4.32422 16.7461 4.32422 16.7461 3.03516 15.3984C2.625 15.0469 2.50781 14.5195 2.625 13.9922C3.09375 12.2344 3.15234 12.2344 2.625 10.418C2.50781 9.89062 2.68359 9.36328 3.03516 9.01172C4.32422 7.66406 4.32422 7.72266 4.79297 5.90625C4.91016 5.37891 5.32031 5.02734 5.78906 4.85156C7.60547 4.38281 7.54688 4.44141 8.83594 3.09375C9.12891 2.74219 9.65625 2.56641 10.1836 2.68359C12 3.21094 11.9414 3.21094 13.7578 2.68359C14.2266 2.56641 14.7539 2.74219 15.1055 3.09375C16.3945 4.44141 16.3945 4.38281 18.1523 4.85156C18.6211 5.02734 19.0312 5.37891 19.1484 5.90625C19.6172 7.72266 19.6172 7.66406 20.9062 9.01172C21.3164 9.36328 21.4336 9.89062 21.3164 10.418C20.7891 12.2344 20.7891 12.2344 21.3164 13.9922C21.4336 14.5195 21.2578 15.0469 20.9062 15.3984C19.6172 16.7461 19.6172 16.6875 19.1484 18.5039Z" fill="#82C91E"/>
</svg>
