<svg width="24" height="31" viewBox="0 0 24 31" fill="none" xmlns="http://www.w3.org/2000/svg">
<path d="M6.43359 20.4375H10.9453C11.2383 20.4375 11.4727 20.2031 11.5312 19.9102V15.3984C11.4727 15.1055 11.2383 14.8711 10.9453 14.8125H6.43359C6.14062 14.8711 5.90625 15.1055 5.90625 15.3984V19.9102C5.90625 20.2031 6.14062 20.4375 6.43359 20.4375ZM7.3125 16.2188H10.125V19.0312H7.3125V16.2188ZM6.43359 27H10.9453C11.2383 27 11.4727 26.7656 11.5312 26.4727V21.9609C11.4727 21.668 11.2383 21.4336 10.9453 21.375H6.43359C6.14062 21.4336 5.90625 21.668 5.90625 21.9609V26.4727C5.90625 26.7656 6.14062 27 6.43359 27ZM7.3125 22.7812H10.125V25.5938H7.3125V22.7812ZM12.9961 27H17.5078C17.8008 27 18.0352 26.7656 18.0938 26.4727V21.9609C18.0352 21.668 17.8008 21.4336 17.5078 21.375H12.9961C12.7031 21.4336 12.4688 21.668 12.4688 21.9609V26.4727C12.4688 26.7656 12.7031 27 12.9961 27ZM13.875 22.7812H16.6875V25.5938H13.875V22.7812ZM6.43359 13.875H10.9453C11.2383 13.875 11.4727 13.6406 11.5312 13.3477V8.83594C11.4727 8.54297 11.2383 8.30859 10.9453 8.25H6.43359C6.14062 8.30859 5.90625 8.54297 5.90625 8.83594V13.3477C5.90625 13.6406 6.14062 13.875 6.43359 13.875ZM8.95312 9.65625H10.125V10.8281H8.95312V9.65625ZM8.95312 11.2969H10.125V12.4688H8.95312V11.2969ZM7.3125 9.65625H8.48438V10.8281H7.3125V9.65625ZM7.3125 11.2969H8.48438V12.4688H7.3125V11.2969ZM12.9961 13.875H17.5078C17.8008 13.875 18.0352 13.6406 18.0938 13.3477V8.83594C18.0352 8.54297 17.8008 8.30859 17.5078 8.25H12.9961C12.7031 8.30859 12.4688 8.54297 12.4688 8.83594V13.3477C12.4688 13.6406 12.7031 13.875 12.9961 13.875ZM15.5156 9.65625H16.6875V10.8281H15.5156V9.65625ZM15.5156 11.2969H16.6875V12.4688H15.5156V11.2969ZM13.875 9.65625H15.0469V10.8281H13.875V9.65625ZM13.875 11.2969H15.0469V12.4688H13.875V11.2969ZM12.9961 20.4375H17.5078C17.8008 20.4375 18.0352 20.2031 18.0938 19.9102V15.3984C18.0352 15.1055 17.8008 14.8711 17.5078 14.8125H12.9961C12.7031 14.8711 12.4688 15.1055 12.4688 15.3984V19.9102C12.4688 20.2031 12.7031 20.4375 12.9961 20.4375ZM13.875 16.2188H16.6875V19.0312H13.875V16.2188ZM22.7812 28.875H21.375V5.90625C21.375 5.14453 20.7305 4.5 19.9688 4.5H19.4414V3.5625C19.4414 3.09375 19.0312 2.625 18.5039 2.625H12.9375V1.6875C12.9375 1.21875 12.4688 0.75 12 0.75C11.4727 0.75 11.0625 1.21875 11.0625 1.6875V2.625H5.4375C4.91016 2.625 4.5 3.09375 4.5 3.5625V4.5H4.03125C3.21094 4.5 2.625 5.14453 2.625 5.90625V28.875H1.21875C0.925781 28.875 0.75 29.1094 0.75 29.3438V30.2812C0.75 30.5742 0.925781 30.75 1.21875 30.75H22.7812C23.0156 30.75 23.25 30.5742 23.25 30.2812V29.3438C23.25 29.1094 23.0156 28.875 22.7812 28.875ZM19.5 28.875H4.5V6.375H19.5V28.875Z" fill="#82C91E"/>
</svg>
