<svg width="38" height="31" viewBox="0 0 38 31" fill="none" xmlns="http://www.w3.org/2000/svg">
<path d="M32.125 13.875C29.4883 13.875 27.4375 15.9844 27.4375 18.5625C27.4375 21.1992 29.4883 23.25 32.125 23.25C34.7031 23.25 36.8125 21.1992 36.8125 18.5625C36.8125 15.9844 34.7031 13.875 32.125 13.875ZM32.125 21.375C30.543 21.375 29.3125 20.1445 29.3125 18.5625C29.3125 17.0391 30.543 15.75 32.125 15.75C33.6484 15.75 34.9375 17.0391 34.9375 18.5625C34.9375 20.1445 33.6484 21.375 32.125 21.375ZM14.3125 18.5625C14.3125 21.1992 16.3633 23.25 19 23.25C21.5781 23.25 23.6875 21.1992 23.6875 18.5625C23.6875 15.9844 21.5781 13.875 19 13.875C16.3633 13.875 14.3125 15.9844 14.3125 18.5625ZM21.8125 18.5625C21.8125 20.1445 20.5234 21.375 19 21.375C17.418 21.375 16.1875 20.1445 16.1875 18.5625C16.1875 17.0391 17.418 15.75 19 15.75C20.5234 15.75 21.8125 17.0391 21.8125 18.5625ZM5.875 23.25C8.45312 23.25 10.5625 21.1992 10.5625 18.5625C10.5625 15.9844 8.45312 13.875 5.875 13.875C3.23828 13.875 1.1875 15.9844 1.1875 18.5625C1.1875 21.1992 3.23828 23.25 5.875 23.25ZM5.875 15.75C7.39844 15.75 8.6875 17.0391 8.6875 18.5625C8.6875 20.1445 7.39844 21.375 5.875 21.375C4.29297 21.375 3.0625 20.1445 3.0625 18.5625C3.0625 17.0391 4.29297 15.75 5.875 15.75ZM33.2969 25.125H30.9531C28.4922 25.125 26.5 27.2344 26.5 29.8125C26.5 30.3398 26.9102 30.75 27.4375 30.75C27.9062 30.75 28.375 30.3398 28.375 29.8125C28.375 28.2891 29.4883 27 30.9531 27H33.2969C34.7031 27 35.875 28.2891 35.875 29.8125C35.875 30.3398 36.2852 30.75 36.8125 30.75C37.2812 30.75 37.75 30.3398 37.75 29.8125C37.75 27.2344 35.6992 25.125 33.2969 25.125ZM7.04688 25.125H4.70312C2.24219 25.125 0.25 27.2344 0.25 29.8125C0.25 30.3398 0.660156 30.75 1.1875 30.75C1.65625 30.75 2.125 30.3398 2.125 29.8125C2.125 28.2891 3.23828 27 4.70312 27H7.04688C8.45312 27 9.625 28.2891 9.625 29.8125C9.625 30.3398 10.0352 30.75 10.5625 30.75C11.0312 30.75 11.5 30.3398 11.5 29.8125C11.5 27.2344 9.44922 25.125 7.04688 25.125ZM20.1719 25.125H17.8281C15.3672 25.125 13.375 27.2344 13.375 29.8125C13.375 30.3398 13.7852 30.75 14.3125 30.75C14.7812 30.75 15.25 30.3398 15.25 29.8125C15.25 28.2891 16.3633 27 17.8281 27H20.1719C21.5781 27 22.75 28.2891 22.75 29.8125C22.75 30.3398 23.1602 30.75 23.6875 30.75C24.1562 30.75 24.625 30.3398 24.625 29.8125C24.625 27.2344 22.5742 25.125 20.1719 25.125ZM4 3.5625C4 3.09375 4.41016 2.625 4.9375 2.625H33.0625C33.5312 2.625 34 3.09375 34 3.5625V12.3516C34.6445 12.5273 35.2891 12.8203 35.875 13.2305V3.5625C35.875 2.03906 34.5859 0.75 33.0625 0.75H4.9375C3.35547 0.75 2.125 2.03906 2.125 3.5625V13.2305C2.65234 12.8203 3.29688 12.5273 4 12.3516V3.5625Z" fill="#82C91E"/>
</svg>
