<svg width="28" height="31" viewBox="0 0 28 31" fill="none" xmlns="http://www.w3.org/2000/svg">
<path d="M12.125 7.01953C12.125 6.66797 11.7734 6.31641 11.4219 6.31641H9.07812C8.66797 6.31641 8.375 6.66797 8.375 7.01953V9.36328C8.375 9.77344 8.66797 10.0664 9.07812 10.0664H11.4219C11.7734 10.0664 12.125 9.77344 12.125 9.36328V7.01953ZM18.9219 6.31641H16.5781C16.168 6.31641 15.875 6.66797 15.875 7.01953V9.36328C15.875 9.77344 16.168 10.0664 16.5781 10.0664H18.9219C19.2734 10.0664 19.625 9.77344 19.625 9.36328V7.01953C19.625 6.66797 19.2734 6.31641 18.9219 6.31641ZM11.4219 11.9414H9.07812C8.66797 11.9414 8.375 12.293 8.375 12.6445V14.9883C8.375 15.3984 8.66797 15.6914 9.07812 15.6914H11.4219C11.7734 15.6914 12.125 15.3984 12.125 14.9883V12.6445C12.125 12.293 11.7734 11.9414 11.4219 11.9414ZM18.9219 11.9414H16.5781C16.168 11.9414 15.875 12.293 15.875 12.6445V14.9883C15.875 15.3984 16.168 15.6914 16.5781 15.6914H18.9219C19.2734 15.6914 19.625 15.3984 19.625 14.9883V12.6445C19.625 12.293 19.2734 11.9414 18.9219 11.9414ZM11.4219 17.5664H9.07812C8.66797 17.5664 8.375 17.918 8.375 18.2695V20.6133C8.375 21.0234 8.66797 21.3164 9.07812 21.3164H11.4219C11.7734 21.3164 12.125 21.0234 12.125 20.6133V18.2695C12.125 17.918 11.7734 17.5664 11.4219 17.5664ZM18.9219 17.5664H16.5781C16.168 17.5664 15.875 17.918 15.875 18.2695V20.6133C15.875 21.0234 16.168 21.3164 16.5781 21.3164H18.9219C19.2734 21.3164 19.625 21.0234 19.625 20.6133V18.2695C19.625 17.918 19.2734 17.5664 18.9219 17.5664ZM27.125 29.5781C27.125 29.2266 26.7734 28.875 26.4219 28.875H25.25V2.15625C25.25 1.39453 24.6055 0.75 23.8438 0.75H4.15625C3.33594 0.75 2.75 1.39453 2.75 2.15625V28.875H1.57812C1.16797 28.875 0.875 29.2266 0.875 29.5781V30.75H27.125V29.5781ZM23.375 28.875H15.875V23.8945C15.875 23.543 15.5234 23.1914 15.1719 23.1914H12.8281C12.418 23.1914 12.125 23.543 12.125 23.8945V28.875H4.625V2.625H23.375V28.875Z" fill="#82C91E"/>
</svg>
