<svg width="28" height="31" viewBox="0 0 28 31" fill="none" xmlns="http://www.w3.org/2000/svg">
<path d="M11.4219 21.375C11.7734 21.375 12.125 21.082 12.125 20.6719V18.3281C12.125 17.9766 11.7734 17.625 11.4219 17.625H9.07812C8.66797 17.625 8.375 17.9766 8.375 18.3281V20.6719C8.375 21.082 8.66797 21.375 9.07812 21.375H11.4219ZM16.5781 21.375H18.9219C19.2734 21.375 19.625 21.082 19.625 20.6719V18.3281C19.625 17.9766 19.2734 17.625 18.9219 17.625H16.5781C16.168 17.625 15.875 17.9766 15.875 18.3281V20.6719C15.875 21.082 16.168 21.375 16.5781 21.375ZM9.07812 15.75H11.4219C11.7734 15.75 12.125 15.457 12.125 15.0469V12.7031C12.125 12.3516 11.7734 12 11.4219 12H9.07812C8.66797 12 8.375 12.3516 8.375 12.7031V15.0469C8.375 15.457 8.66797 15.75 9.07812 15.75ZM16.5781 15.75H18.9219C19.2734 15.75 19.625 15.457 19.625 15.0469V12.7031C19.625 12.3516 19.2734 12 18.9219 12H16.5781C16.168 12 15.875 12.3516 15.875 12.7031V15.0469C15.875 15.457 16.168 15.75 16.5781 15.75ZM27.125 30.75V29.5781C27.125 29.2266 26.7734 28.875 26.4219 28.875H25.25V5.73047C25.25 5.08594 24.6055 4.5 23.8438 4.5H18.6875V2.15625C18.6875 1.39453 18.043 0.75 17.2812 0.75H10.7188C9.89844 0.75 9.3125 1.39453 9.3125 2.15625V4.5H4.15625C3.33594 4.5 2.75 5.08594 2.75 5.73047V28.875H1.57812C1.16797 28.875 0.875 29.2266 0.875 29.5781V30.75H27.125ZM4.625 28.875V6.375H9.3125V8.71875C9.3125 9.53906 9.89844 10.125 10.7188 10.125H17.2812C18.043 10.125 18.6875 9.53906 18.6875 8.71875V6.375H23.375V28.875H15.875V23.9531C15.875 23.6016 15.5234 23.25 15.1719 23.25H12.8281C12.418 23.25 12.125 23.6016 12.125 23.9531V28.875H4.625ZM16.4609 4.5C16.6367 4.5 16.8125 4.67578 16.8125 4.85156V6.02344C16.8125 6.25781 16.6367 6.375 16.4609 6.375H14.9375V7.89844C14.9375 8.13281 14.7617 8.25 14.5859 8.25H13.4141C13.1797 8.25 13.0625 8.13281 13.0625 7.89844V6.375H11.5391C11.3047 6.375 11.1875 6.25781 11.1875 6.02344V4.85156C11.1875 4.67578 11.3047 4.5 11.5391 4.5H13.0625V2.97656C13.0625 2.80078 13.1797 2.625 13.4141 2.625H14.5859C14.7617 2.625 14.9375 2.80078 14.9375 2.97656V4.5H16.4609Z" fill="#82C91E"/>
</svg>
