<svg width="40" height="31" viewBox="0 0 40 31" fill="none" xmlns="http://www.w3.org/2000/svg">
<path d="M8.92188 12H6.57812C6.16797 12 5.875 12.3516 5.875 12.7031V15.0469C5.875 15.457 6.16797 15.75 6.57812 15.75H8.92188C9.27344 15.75 9.625 15.457 9.625 15.0469V12.7031C9.625 12.3516 9.27344 12 8.92188 12ZM8.92188 17.625H6.57812C6.16797 17.625 5.875 17.9766 5.875 18.3281V20.6719C5.875 21.082 6.16797 21.375 6.57812 21.375H8.92188C9.27344 21.375 9.625 21.082 9.625 20.6719V18.3281C9.625 17.9766 9.27344 17.625 8.92188 17.625ZM8.92188 23.25H6.57812C6.16797 23.25 5.875 23.6016 5.875 23.9531V26.2969C5.875 26.707 6.16797 27 6.57812 27H8.92188C9.27344 27 9.625 26.707 9.625 26.2969V23.9531C9.625 23.6016 9.27344 23.25 8.92188 23.25ZM14.5469 17.625H12.2031C11.793 17.625 11.5 17.9766 11.5 18.3281V20.6719C11.5 21.082 11.793 21.375 12.2031 21.375H14.5469C14.8984 21.375 15.25 21.082 15.25 20.6719V18.3281C15.25 17.9766 14.8984 17.625 14.5469 17.625ZM14.5469 12H12.2031C11.793 12 11.5 12.3516 11.5 12.7031V15.0469C11.5 15.457 11.793 15.75 12.2031 15.75H14.5469C14.8984 15.75 15.25 15.457 15.25 15.0469V12.7031C15.25 12.3516 14.8984 12 14.5469 12ZM14.5469 23.25H12.2031C11.793 23.25 11.5 23.6016 11.5 23.9531V26.2969C11.5 26.707 11.793 27 12.2031 27H14.5469C14.8984 27 15.25 26.707 15.25 26.2969V23.9531C15.25 23.6016 14.8984 23.25 14.5469 23.25ZM11.5 8.25H13.0234C13.1992 8.25 13.375 8.13281 13.375 7.89844V6.72656C13.375 6.55078 13.1992 6.375 13.0234 6.375H11.5V4.85156C11.5 4.67578 11.3242 4.5 11.1484 4.5H9.97656C9.74219 4.5 9.625 4.67578 9.625 4.85156V6.375H8.10156C7.86719 6.375 7.75 6.55078 7.75 6.72656V7.89844C7.75 8.13281 7.86719 8.25 8.10156 8.25H9.625V9.77344C9.625 10.0078 9.74219 10.125 9.97656 10.125H11.1484C11.3242 10.125 11.5 10.0078 11.5 9.77344V8.25ZM27.6719 12H25.3281C24.918 12 24.625 12.3516 24.625 12.7031V15.0469C24.625 15.457 24.918 15.75 25.3281 15.75H27.6719C28.0234 15.75 28.375 15.457 28.375 15.0469V12.7031C28.375 12.3516 28.0234 12 27.6719 12ZM27.6719 17.625H25.3281C24.918 17.625 24.625 17.9766 24.625 18.3281V20.6719C24.625 21.082 24.918 21.375 25.3281 21.375H27.6719C28.0234 21.375 28.375 21.082 28.375 20.6719V18.3281C28.375 17.9766 28.0234 17.625 27.6719 17.625ZM27.6719 23.25H25.3281C24.918 23.25 24.625 23.6016 24.625 23.9531V26.2969C24.625 26.707 24.918 27 25.3281 27H27.6719C28.0234 27 28.375 26.707 28.375 26.2969V23.9531C28.375 23.6016 28.0234 23.25 27.6719 23.25ZM33.2969 17.625H30.9531C30.543 17.625 30.25 17.9766 30.25 18.3281V20.6719C30.25 21.082 30.543 21.375 30.9531 21.375H33.2969C33.6484 21.375 34 21.082 34 20.6719V18.3281C34 17.9766 33.6484 17.625 33.2969 17.625ZM33.2969 12H30.9531C30.543 12 30.25 12.3516 30.25 12.7031V15.0469C30.25 15.457 30.543 15.75 30.9531 15.75H33.2969C33.6484 15.75 34 15.457 34 15.0469V12.7031C34 12.3516 33.6484 12 33.2969 12ZM33.2969 23.25H30.9531C30.543 23.25 30.25 23.6016 30.25 23.9531V26.2969C30.25 26.707 30.543 27 30.9531 27H33.2969C33.6484 27 34 26.707 34 26.2969V23.9531C34 23.6016 33.6484 23.25 33.2969 23.25ZM30.25 8.25H31.7734C31.9492 8.25 32.125 8.13281 32.125 7.89844V6.72656C32.125 6.55078 31.9492 6.375 31.7734 6.375H30.25V4.85156C30.25 4.67578 30.0742 4.5 29.8984 4.5H28.7266C28.4922 4.5 28.375 4.67578 28.375 4.85156V6.375H26.8516C26.6172 6.375 26.5 6.55078 26.5 6.72656V7.89844C26.5 8.13281 26.6172 8.25 26.8516 8.25H28.375V9.77344C28.375 10.0078 28.4922 10.125 28.7266 10.125H29.8984C30.0742 10.125 30.25 10.0078 30.25 9.77344V8.25ZM37.75 6.375H36.8125V2.625C36.8125 1.62891 35.9336 0.75 34.9375 0.75H23.6875C22.6328 0.75 21.8125 1.62891 21.8125 2.625V6.375H18.0625V2.625C18.0625 1.62891 17.1836 0.75 16.1875 0.75H4.9375C3.88281 0.75 3.0625 1.62891 3.0625 2.625V6.375H2.125C1.07031 6.375 0.25 7.25391 0.25 8.25V30.2812C0.25 30.5742 0.425781 30.75 0.71875 30.75H1.65625C1.89062 30.75 2.125 30.5742 2.125 30.2812V8.25H4.9375V2.625H16.1875V8.25H19V30.2812C19 30.5742 19.1758 30.75 19.4688 30.75H20.4062C20.6406 30.75 20.875 30.5742 20.875 30.2812V8.25H23.6875V2.625H34.9375V8.25H37.75V30.2812C37.75 30.5742 37.9258 30.75 38.2188 30.75H39.1562C39.3906 30.75 39.625 30.5742 39.625 30.2812V8.25C39.625 7.25391 38.7461 6.375 37.75 6.375Z" fill="#82C91E"/>
</svg>
