<svg width="30" height="31" viewBox="0 0 30 31" fill="none" xmlns="http://www.w3.org/2000/svg">
<path d="M26.7188 25.125H24.3164C26.6016 23.4258 28.125 20.7305 28.125 17.625C28.125 12.4688 23.9062 8.25 18.75 8.25V4.5C18.75 3.50391 17.8711 2.625 16.875 2.625V1.6875C16.875 1.21875 16.4062 0.75 15.9375 0.75H10.3125C9.78516 0.75 9.375 1.21875 9.375 1.6875V2.625C8.32031 2.625 7.5 3.50391 7.5 4.5V17.625C7.5 18.6797 8.32031 19.5 9.375 19.5V22.3125C9.375 22.8398 9.78516 23.25 10.3125 23.25H15.9375C16.4062 23.25 16.875 22.8398 16.875 22.3125V19.5C17.8711 19.5 18.75 18.6797 18.75 17.625V10.125C22.8516 10.125 26.25 13.5234 26.25 17.625C26.25 21.7852 22.8516 25.125 18.75 25.125H3.28125C1.46484 25.125 0 26.6484 0 28.4062C0 29.7539 0.996094 30.75 2.34375 30.75H27.6562C28.9453 30.75 30 29.7539 30 28.4062C30 26.6484 28.4766 25.125 26.7188 25.125ZM15 21.375H11.25V19.5H15V21.375ZM16.875 17.625H9.375V4.5H11.25V2.625H15V4.5H16.875V17.625ZM27.6562 28.875H2.34375C2.05078 28.875 1.875 28.6992 1.875 28.4062C1.875 27.6445 2.46094 27 3.28125 27H26.7188C27.4805 27 28.125 27.6445 28.125 28.4062C28.125 28.6992 27.8906 28.875 27.6562 28.875Z" fill="#82C91E"/>
</svg>
