<svg width="38" height="31" viewBox="0 0 38 31" fill="none" xmlns="http://www.w3.org/2000/svg">
<path d="M37.2812 0.75H36.3438C36.0508 0.75 35.875 1.04297 35.875 1.33594V12H32.125V3.5625C32.125 3.09375 31.6562 2.625 31.1875 2.625H21.8125C21.2852 2.625 20.875 3.09375 20.875 3.5625V12H2.125V1.33594C2.125 1.04297 1.89062 0.75 1.65625 0.75H0.71875C0.425781 0.75 0.25 1.04297 0.25 1.33594V30.75H2.125V28.875H35.875V30.75H37.75V1.33594C37.75 1.04297 37.5156 0.75 37.2812 0.75ZM22.75 4.5H30.25V12H22.75V4.5ZM15.25 27H7.75V19.5H15.25V27ZM17.125 27V19.5H24.625V27H17.125ZM35.875 27H26.5V18.5625C26.5 18.0938 26.0312 17.625 25.5625 17.625H6.8125C6.28516 17.625 5.875 18.0938 5.875 18.5625V27H2.125V13.875H35.875V27Z" fill="#82C91E"/>
</svg>
