<svg width="38" height="27" viewBox="0 0 38 27" fill="none" xmlns="http://www.w3.org/2000/svg">
<path d="M37.2812 2.5C37.5156 2.5 37.75 2.32422 37.75 2.03125V1.09375C37.75 0.859375 37.5156 0.625 37.2812 0.625H0.71875C0.425781 0.625 0.25 0.859375 0.25 1.09375V2.03125C0.25 2.32422 0.425781 2.5 0.71875 2.5H1.1875V25H0.71875C0.425781 25 0.25 25.2344 0.25 25.4688V26.4062C0.25 26.6992 0.425781 26.875 0.71875 26.875H37.2812C37.5156 26.875 37.75 26.6992 37.75 26.4062V25.4688C37.75 25.2344 37.5156 25 37.2812 25H36.8125V2.5H37.2812ZM34.9375 25H3.0625V2.5H34.9375V25ZM7.28125 21.25H8.21875C8.45312 21.25 8.6875 21.0742 8.6875 20.7812V6.71875C8.6875 6.48438 8.45312 6.25 8.21875 6.25H7.28125C6.98828 6.25 6.8125 6.48438 6.8125 6.71875V20.7812C6.8125 21.0742 6.98828 21.25 7.28125 21.25ZM12.9062 21.25H13.8438C14.0781 21.25 14.3125 21.0742 14.3125 20.7812V6.71875C14.3125 6.48438 14.0781 6.25 13.8438 6.25H12.9062C12.6133 6.25 12.4375 6.48438 12.4375 6.71875V20.7812C12.4375 21.0742 12.6133 21.25 12.9062 21.25ZM18.5312 21.25H19.4688C19.7031 21.25 19.9375 21.0742 19.9375 20.7812V6.71875C19.9375 6.48438 19.7031 6.25 19.4688 6.25H18.5312C18.2383 6.25 18.0625 6.48438 18.0625 6.71875V20.7812C18.0625 21.0742 18.2383 21.25 18.5312 21.25ZM24.1562 21.25H25.0938C25.3281 21.25 25.5625 21.0742 25.5625 20.7812V6.71875C25.5625 6.48438 25.3281 6.25 25.0938 6.25H24.1562C23.8633 6.25 23.6875 6.48438 23.6875 6.71875V20.7812C23.6875 21.0742 23.8633 21.25 24.1562 21.25ZM29.7812 21.25H30.7188C30.9531 21.25 31.1875 21.0742 31.1875 20.7812V6.71875C31.1875 6.48438 30.9531 6.25 30.7188 6.25H29.7812C29.4883 6.25 29.3125 6.48438 29.3125 6.71875V20.7812C29.3125 21.0742 29.4883 21.25 29.7812 21.25Z" fill="#82C91E"/>
</svg>
