<svg width="31" height="31" viewBox="0 0 31 31" fill="none" xmlns="http://www.w3.org/2000/svg">
<path d="M25.375 21.5508V20.4375C25.375 19.9688 24.9062 19.5 24.4375 19.5C23.9102 19.5 23.5 19.9688 23.5 20.4375V21.5508C22.3867 21.9609 21.625 23.0156 21.625 24.1875C21.625 25.7695 22.8555 27 24.4375 27C25.9609 27 27.25 25.7695 27.25 24.1875C27.25 23.0156 26.4297 21.9609 25.375 21.5508ZM29.125 19.6172V5.4375C29.125 2.85938 27.0156 0.75 24.4375 0.75C21.8008 0.75 19.75 2.85938 19.75 5.4375V19.6172C18.5195 20.8477 17.875 22.4883 17.875 24.1875C17.875 27.8203 20.8047 30.75 24.4375 30.75C28.0117 30.75 31 27.8203 31 24.1875C31 22.4883 30.2969 20.8477 29.125 19.6172ZM24.4375 28.875C21.8008 28.875 19.75 26.8242 19.75 24.1875C19.75 22.7227 20.4531 21.375 21.625 20.4961V5.4375C21.625 3.91406 22.8555 2.625 24.4375 2.625C25.9609 2.625 27.25 3.91406 27.25 5.4375V20.4961C28.3633 21.3164 29.125 22.7227 29.125 24.1875C29.125 26.8242 27.0156 28.875 24.4375 28.875ZM17.2305 19.8516C17.4062 19.5586 17.582 19.207 17.875 18.9141V18.0938L14.0078 15.75L17.875 13.4648V11.2969L13.1875 14.1094V8.66016L15.8242 5.96484C16 5.78906 16 5.49609 15.8242 5.32031L15.1797 4.67578C15.0039 4.5 14.7109 4.5 14.5352 4.67578L13.1875 6.02344V3.09375C13.1875 2.85938 12.9531 2.625 12.7188 2.625H11.7812C11.4883 2.625 11.3125 2.85938 11.3125 3.09375V6.02344L9.96484 4.67578C9.78906 4.5 9.4375 4.5 9.26172 4.67578L8.61719 5.32031C8.44141 5.49609 8.44141 5.78906 8.61719 5.96484L11.3125 8.66016V14.1094L6.74219 11.4141L5.80469 7.78125C5.74609 7.48828 5.51172 7.37109 5.27734 7.42969L4.39844 7.66406C4.16406 7.72266 3.98828 7.95703 4.04688 8.25L4.51562 10.0664L2.11328 8.66016C1.87891 8.48438 1.64453 8.60156 1.52734 8.77734L1.05859 9.59766C0.882812 9.83203 1 10.125 1.17578 10.2422L3.63672 11.707L1.82031 12.1758C1.58594 12.293 1.46875 12.5273 1.52734 12.7617L1.76172 13.6992C1.82031 13.9336 2.05469 14.1094 2.28906 13.9922L5.80469 13.0547L10.4336 15.8086L5.80469 18.5039L2.28906 17.5664C2.05469 17.5078 1.82031 17.625 1.76172 17.8594L1.52734 18.7969C1.46875 19.0312 1.58594 19.3242 1.82031 19.3828L3.63672 19.8516L1.17578 21.3164C1 21.4336 0.882812 21.7266 1.05859 21.9023L1.46875 22.7227C1.58594 22.957 1.87891 23.0156 2.11328 22.8984L4.51562 21.4922L4.04688 23.3086C3.98828 23.543 4.10547 23.8359 4.33984 23.8945L5.21875 24.1289C5.45312 24.1875 5.74609 24.0703 5.80469 23.7773L6.74219 20.1445L11.3125 17.3906V22.8984L8.61719 25.5352C8.44141 25.7695 8.44141 26.0625 8.61719 26.2383L9.26172 26.8828C9.4375 27.0586 9.73047 27.0586 9.90625 26.8828L11.2539 25.5352V28.4062C11.2539 28.6992 11.4883 28.875 11.7227 28.875H12.6602C12.9531 28.875 13.1289 28.6992 13.1289 28.4062V25.5352L14.4766 26.8828C14.7109 27.0586 15.0039 27.0586 15.1797 26.8828L15.8242 26.2383C16 26.0625 16 25.7695 15.8242 25.5352L13.1875 22.8984V17.4492L17.2305 19.8516Z" fill="#82C91E"/>
</svg>
