<svg width="26" height="31" viewBox="0 0 26 31" fill="none" xmlns="http://www.w3.org/2000/svg">
<path d="M17.6875 10.125V2.625H19.0938C19.3281 2.625 19.5625 2.44922 19.5625 2.15625V1.21875C19.5625 0.984375 19.3281 0.75 19.0938 0.75H6.90625C6.61328 0.75 6.4375 0.984375 6.4375 1.21875V2.15625C6.4375 2.44922 6.61328 2.625 6.90625 2.625H8.3125V10.125C3.85938 12 0.8125 16.3359 0.8125 21.375C0.8125 24.5391 1.98438 27.4102 3.91797 29.5781C4.62109 30.3398 5.67578 30.75 6.67188 30.75H19.2109C20.3242 30.75 21.3203 30.3398 22.0234 29.5781C22.7852 28.6992 25.1289 25.9453 25.1289 21.375H25.1875C25.1875 16.3359 22.082 12 17.6875 10.125ZM20.6172 28.2891C20.2656 28.6992 19.7969 28.875 19.2109 28.875H6.67188C6.14453 28.875 5.67578 28.6992 5.32422 28.3477C3.625 26.4141 2.6875 23.9531 2.6875 21.375C2.6875 17.2148 5.14844 13.4648 9.01562 11.8828L10.1875 11.4141V2.625H15.8125V11.4141L16.9258 11.8828C20.6172 13.4062 23.0195 16.8633 23.2539 20.7891V21.4336C23.2539 24.7148 21.8477 26.9414 20.6172 28.2891ZM11.125 18.5625C10.5977 18.5625 10.1875 19.0312 10.1875 19.5C10.1875 20.0273 10.5977 20.4375 11.125 20.4375C11.5938 20.4375 12.0625 20.0273 12.0625 19.5C12.0625 19.0312 11.5938 18.5625 11.125 18.5625ZM14.875 18.5625C14.3477 18.5625 13.9375 19.0312 13.9375 19.5C13.9375 20.0273 14.3477 20.4375 14.875 20.4375C15.3438 20.4375 15.8125 20.0273 15.8125 19.5C15.8125 19.0312 15.3438 18.5625 14.875 18.5625ZM13 13.875C8.83984 13.875 5.5 16.3945 5.5 19.5C5.5 21.3164 6.55469 22.8398 8.3125 23.8945V26.0625C8.3125 26.5898 8.72266 27 9.25 27H16.75C17.2188 27 17.6875 26.5898 17.6875 26.0625V23.8945C19.3867 22.8398 20.5 21.3164 20.5 19.5C20.5 16.3945 17.1016 13.875 13 13.875ZM16.6914 22.2539L15.8125 22.8398V25.125H10.1875V22.8398L9.25 22.2539C8.01953 21.5508 7.375 20.5547 7.375 19.5C7.375 17.5078 9.89453 15.75 13 15.75C16.0469 15.75 18.625 17.5078 18.625 19.5C18.625 20.5547 17.9219 21.5508 16.6914 22.2539Z" fill="#82C91E"/>
</svg>
