<svg width="28" height="31" viewBox="0 0 28 31" fill="none" xmlns="http://www.w3.org/2000/svg">
<path d="M27.125 23.7188V2.15625C27.125 1.39453 26.4805 0.75 25.7188 0.75H5.5625C2.92578 0.75 0.875 2.85938 0.875 5.4375V27C0.875 29.1094 2.51562 30.75 4.625 30.75H26.4219C26.7734 30.75 27.125 30.457 27.125 30.0469V29.5781C27.125 29.2266 26.7734 28.875 26.4219 28.875H26.1875C25.9531 27.7031 26.0117 26.0039 26.2461 25.0664C26.7148 24.832 27.0664 24.2461 27.125 23.7188ZM24.5469 28.875H4.625C3.57031 28.875 2.75 28.0547 2.75 27C2.75 26.0039 3.57031 25.125 4.625 25.125H24.5469C24.4883 25.6523 24.4297 26.5312 24.4297 27C24.4297 27.5273 24.4883 28.4062 24.5469 28.875ZM25.25 23.25H4.625C4.03906 23.3086 3.21875 23.543 2.75 23.7773V5.4375C2.75 3.91406 3.98047 2.625 5.5625 2.625H25.25V23.25ZM9.78125 14.8125H13.0625V18.0938C13.0625 18.3867 13.2383 18.5625 13.5312 18.5625H16.3438C16.5781 18.5625 16.8125 18.3867 16.8125 18.0938V14.8125H20.0938C20.3281 14.8125 20.5625 14.6367 20.5625 14.3438V11.5312C20.5625 11.2969 20.3281 11.0625 20.0938 11.0625H16.8125V7.78125C16.8125 7.54688 16.5781 7.3125 16.3438 7.3125H13.5312C13.2383 7.3125 13.0625 7.54688 13.0625 7.78125V11.0625H9.78125C9.48828 11.0625 9.3125 11.2969 9.3125 11.5312V14.3438C9.3125 14.6367 9.48828 14.8125 9.78125 14.8125Z" fill="#82C91E"/>
</svg>
