<svg width="34" height="27" viewBox="0 0 34 27" fill="none" xmlns="http://www.w3.org/2000/svg">
<path d="M6.6875 0.625C3.05469 0.625 0.125 3.61328 0.125 7.1875V20.3125C0.125 23.9453 3.05469 26.875 6.6875 26.875C10.2617 26.875 13.25 23.9453 13.25 20.3125V7.1875C13.25 3.61328 10.2617 0.625 6.6875 0.625ZM11.375 20.3125C11.375 22.9492 9.26562 25 6.6875 25C4.05078 25 2 22.9492 2 20.3125V15.625H11.375V20.3125ZM11.375 13.75H2V7.1875C2 4.60938 4.05078 2.5 6.6875 2.5C9.26562 2.5 11.375 4.60938 11.375 7.1875V13.75ZM24.5 8.125C19.2852 8.125 15.125 12.3438 15.125 17.5C15.125 22.7148 19.2852 26.875 24.5 26.875C29.6562 26.875 33.875 22.7148 33.875 17.5C33.875 12.3438 29.6562 8.125 24.5 8.125ZM24.5 25C20.3398 25 17 21.6602 17 17.5C17 15.8008 17.5859 14.2188 18.582 12.9297L29.0703 23.418C27.7812 24.4141 26.1992 25 24.5 25ZM30.3594 22.1289L19.8711 11.6406C21.1602 10.6445 22.7422 10 24.5 10C28.6016 10 32 13.3984 32 17.5C32 19.2578 31.3555 20.8398 30.3594 22.1289Z" fill="#82C91E"/>
</svg>
