<svg width="28" height="31" viewBox="0 0 28 31" fill="none" xmlns="http://www.w3.org/2000/svg">
<path d="M14.9375 13.875C17.5156 13.875 19.625 11.8242 19.625 9.1875C19.625 6.60938 17.5156 4.5 14.9375 4.5C12.3008 4.5 10.25 6.60938 10.25 9.1875C10.25 11.8242 12.3008 13.875 14.9375 13.875ZM14.9375 6.375C16.4609 6.375 17.75 7.66406 17.75 9.1875C17.75 10.7695 16.4609 12 14.9375 12C13.3555 12 12.125 10.7695 12.125 9.1875C12.125 7.66406 13.3555 6.43359 14.9375 6.375ZM27.125 23.7188V2.15625C27.125 1.39453 26.4805 0.75 25.7188 0.75H5.5625C2.92578 0.75 0.875 2.85938 0.875 5.4375V27C0.875 29.1094 2.51562 30.75 4.625 30.75H26.4219C26.7734 30.75 27.125 30.457 27.125 30.0469V29.5781C27.125 29.2266 26.7734 28.875 26.4219 28.875H26.1875C25.9531 27.7031 26.0117 26.0039 26.2461 25.0664C26.7148 24.832 27.0664 24.2461 27.125 23.7188ZM24.5469 28.875H4.625C3.57031 28.875 2.75 28.0547 2.75 27C2.75 26.0039 3.57031 25.125 4.625 25.125H24.5469C24.4883 25.6523 24.4297 26.5312 24.4297 27C24.4297 27.5273 24.4883 28.4062 24.5469 28.875ZM25.25 23.25H4.625C4.03906 23.3086 3.21875 23.543 2.75 23.7773V5.4375C2.75 3.91406 3.98047 2.625 5.5625 2.625H25.25V23.25ZM9.66406 21.375H20.1523C21.3242 21.375 22.4375 20.6133 22.4375 19.1484C22.4375 16.7461 20.2109 14.8125 17.5156 14.8125C16.2852 14.9883 16.2266 15.2812 14.9375 15.2812C13.5898 15.2812 13.5312 14.9883 12.3008 14.8125C9.60547 14.8125 7.4375 16.7461 7.4375 19.1484C7.4375 20.6133 8.55078 21.375 9.66406 21.375ZM12.3008 16.6875C12.5352 16.6875 13.3555 17.1562 14.9375 17.1562C16.4609 17.1562 17.2812 16.6875 17.5156 16.6875C19.2148 16.6875 20.5625 17.8008 20.5625 19.1484C20.5625 19.3242 20.5625 19.5 20.1523 19.5H9.66406C9.25391 19.5 9.3125 19.3242 9.3125 19.1484C9.3125 17.8008 10.6602 16.6875 12.3008 16.6875Z" fill="#82C91E"/>
</svg>
