<svg width="34" height="31" viewBox="0 0 34 31" fill="none" xmlns="http://www.w3.org/2000/svg">
<path d="M20.048 24.1375C19.4875 24.1005 18.8413 24.0033 18.3316 23.8571C18.2361 23.8298 17.8408 23.6859 17.7402 23.6403C15.9656 22.8266 14.7294 21.0504 14.7294 18.9897C14.7294 16.1633 17.0524 13.8611 19.9096 13.8611C22.7414 13.8611 25.0488 16.1241 25.0885 18.9185H26.9599C26.9202 15.1031 23.7738 12.011 19.9096 12.011C16.0224 12.011 12.8584 15.141 12.8584 18.9897C12.8584 21.6431 14.3659 23.9508 16.5732 25.1297C16.9717 25.3384 17.5437 25.5534 17.7379 25.6123C18.3671 25.7977 19.1393 25.921 19.8266 25.9726C20.06 25.99 20.8751 25.9991 21.1126 26H34V24.1549H21.1343C20.9632 24.1549 20.2155 24.1485 20.048 24.1375ZM21.1343 21.2403C20.9983 21.2403 20.2865 21.2358 20.155 21.2248C19.9322 21.2061 19.6093 21.1732 19.4017 21.1262C19.1674 21.0641 18.9474 20.9819 18.8482 20.928C18.1531 20.5559 17.6793 19.8281 17.6793 18.9897C17.6793 17.7701 18.6771 16.7811 19.9096 16.7811C21.1163 16.7811 22.0975 17.7313 22.1367 18.9185H23.9348C23.897 16.7496 22.1109 15.0017 19.9096 15.0017C17.6839 15.0017 15.8798 16.7871 15.8798 18.9897C15.8798 20.5431 16.7793 21.8846 18.0894 22.5417C18.291 22.6586 18.6702 22.7809 18.7781 22.8088C19.148 22.9051 19.6448 22.9709 20.048 23.0001C20.197 23.0124 20.9268 23.0179 21.0808 23.0188V23.0216H33.9995V21.2403H21.1343ZM11.7052 25.9932H9.82134V13.8652H7.0684V12H11.7052V25.9932ZM5 14.7972V16.5907H7.0684V25.9932H8.87848V14.7972H5Z" fill="#589EB8"/>
<path fill-rule="evenodd" clip-rule="evenodd" d="M20.75 11H22.625V8.48438C22.625 7.78125 22.2734 7.01953 21.7461 6.49219L16.8828 1.62891C16.3555 1.10156 15.5938 0.75 14.8906 0.75H2.87891C1.35547 0.808594 0.125 2.03906 0.125 3.62109V27.9961C0.125 29.5195 1.35547 30.75 2.87891 30.75H19.8125C21.3359 30.75 22.625 29.5195 22.625 27.9961V27H20.75V27.9961C20.75 28.4648 20.2812 28.9336 19.8125 28.9336H2.87891C2.41016 28.9336 1.94141 28.4648 1.94141 27.9961V3.62109C1.94141 3.09375 2.41016 2.625 2.87891 2.625H13.25V8.77734C13.25 9.53906 13.8359 10.125 14.6562 10.125H20.75V11ZM15.125 2.68359V8.30859H20.6914C20.6328 8.13281 20.5742 7.95703 20.457 7.83984L15.5352 2.91797C15.4456 2.82845 15.3219 2.77312 15.2162 2.72586C15.1836 2.71126 15.1527 2.69743 15.125 2.68359Z" fill="#589EB8"/>
</svg>
