<svg width="30" height="35" viewBox="0 0 30 35" fill="none" xmlns="http://www.w3.org/2000/svg">
<path fill-rule="evenodd" clip-rule="evenodd" d="M23.4923 1.24609L29.004 6.75781C29.6017 7.35547 30.0001 8.21875 30.0001 9.01562V31.1289C30.0001 32.8555 28.5392 34.25 26.8126 34.25H7.62124C5.89468 34.25 4.50015 32.8555 4.50015 31.1289V23.625H6.55874V31.1289C6.55874 31.6602 7.08999 32.1914 7.62124 32.1914H26.8126C27.3439 32.1914 27.8751 31.6602 27.8751 31.1289V10.875H20.9689C20.0392 10.875 19.3751 10.2109 19.3751 9.34766V2.375H7.68765C7.08999 2.375 6.62515 2.90625 6.62515 3.50391V19.375H13.0002V15.9219C13.0002 15.1914 13.3986 14.5273 14.0627 14.2617C14.7931 13.9297 15.59 14.0625 16.1212 14.5938L20.9025 19.1094C21.2345 19.5078 21.5001 19.9727 21.5001 20.5039C21.5001 20.9688 21.2345 21.4336 20.9025 21.832L16.1212 26.3477C15.8556 26.6133 15.0587 27.1445 14.0627 26.6797C13.3986 26.4141 13.0002 25.75 13.0002 25.0195V21.5H2.00351C0.500211 21.5 0.500057 19.375 2.00349 19.375H4.50015V3.50391C4.50015 1.71094 5.89468 0.316406 7.62124 0.25H21.2345C22.0314 0.25 22.8947 0.648438 23.4923 1.24609ZM19.2423 20.4375L15.1252 16.5859V24.3555L19.2423 20.4375ZM21.5001 2.44141V8.81641H27.8087C27.7423 8.61719 27.6759 8.41797 27.5431 8.28516L21.965 2.70703C21.8635 2.60557 21.7233 2.54287 21.6036 2.48931C21.5666 2.47276 21.5315 2.45708 21.5001 2.44141Z" fill="#22B8CF"/>
</svg>
