<svg width="38" height="35" viewBox="0 0 38 35" fill="none" xmlns="http://www.w3.org/2000/svg">
<path fill-rule="evenodd" clip-rule="evenodd" d="M31.7466 14.5938L36.5278 19.1094C36.8599 19.5078 37.1255 19.9727 37.1255 20.5039C37.1255 20.9688 36.8599 21.4336 36.5278 21.832L31.7466 26.3477C31.481 26.6133 30.6841 27.1445 29.688 26.6797C29.0239 26.4141 28.6255 25.75 28.6255 25.0195V21.5H14.0038C12 21.5 12 19.375 14.0038 19.375H24.2505V10.875H17.3442C16.4146 10.875 15.7505 10.2109 15.7505 9.34766V2.375H3.99658C3.46533 2.375 2.93408 2.90625 2.93408 3.50391V31.1289C2.93408 31.6602 3.46533 32.1914 3.99658 32.1914H23.188C23.7192 32.1914 24.2505 31.6602 24.2505 31.1289V23.625H26.3755V31.1289C26.3755 32.8555 24.9146 34.25 23.188 34.25H3.99658C2.27002 34.25 0.875488 32.8555 0.875488 31.1289V3.50391C0.875488 1.71094 2.27002 0.316406 3.99658 0.25H17.6099C18.4067 0.25 19.27 0.648438 19.8677 1.24609L25.3794 6.75781C25.9771 7.35547 26.3755 8.21875 26.3755 9.01562V19.375H28.6255V15.9219C28.6255 15.1914 29.0239 14.5273 29.688 14.2617C30.4185 13.9297 31.2153 14.0625 31.7466 14.5938ZM17.8755 2.44141V8.81641H24.1841C24.1177 8.61719 24.0513 8.41797 23.9185 8.28516L18.3403 2.70703C18.2389 2.60557 18.0987 2.54287 17.9789 2.48931C17.9419 2.47276 17.9068 2.45708 17.8755 2.44141ZM30.7505 16.5859V24.3555L34.8677 20.4375L30.7505 16.5859Z" fill="#22B8CF"/>
</svg>
