<svg width="31" height="35" viewBox="0 0 31 35" fill="none" xmlns="http://www.w3.org/2000/svg">
<path fill-rule="evenodd" clip-rule="evenodd" d="M19.2422 1.24609L24.7539 6.75781C25.3516 7.35547 25.75 8.21875 25.75 9.01562V16H23.625V10.875H16.7188C15.7891 10.875 15.125 10.2109 15.125 9.34766V2.375H3.37109C2.83984 2.375 2.30859 2.90625 2.30859 3.50391V31.1289C2.30859 31.6602 2.83984 32.1914 3.37109 32.1914H22.5625C23.0938 32.1914 23.625 31.6602 23.625 31.1289V29.9409C22.6689 29.811 21.7515 29.4696 20.9407 28.9391C19.9919 28.3183 19.2221 27.4601 18.7075 26.4497C18.193 25.4393 17.9517 24.312 18.0076 23.1795C18.0635 22.0471 18.4147 20.9489 19.0262 19.9942C19.6378 19.0394 20.4884 18.2612 21.4937 17.7368C22.499 17.2125 23.624 16.9602 24.7569 17.0051C25.8899 17.05 26.9914 17.3904 27.952 17.9926C28.3299 18.2295 28.6808 18.5036 29 18.8099V17C29 16.4477 29.4477 16 30 16C30.5523 16 31 16.4477 31 17V23H25C24.4477 23 24 22.5523 24 22C24 21.4477 24.4477 21 25 21H28.2414C27.8895 20.4733 27.4293 20.0254 26.8898 19.6872C26.2247 19.2703 25.4621 19.0346 24.6778 19.0035C23.8934 18.9725 23.1146 19.1471 22.4186 19.5101C21.7227 19.8731 21.1337 20.4119 20.7104 21.0729C20.287 21.7339 20.0439 22.4941 20.0052 23.2781C19.9665 24.0621 20.1335 24.8426 20.4897 25.5421C20.8459 26.2416 21.3789 26.8357 22.0358 27.2655C22.6926 27.6953 23.4505 27.9458 24.234 27.9921L24.2336 28H25.75V31.1289C25.75 32.8555 24.2891 34.25 22.5625 34.25H3.37109C1.64453 34.25 0.25 32.8555 0.25 31.1289V3.50391C0.25 1.71094 1.64453 0.316406 3.37109 0.25H16.9844C17.7812 0.25 18.6445 0.648438 19.2422 1.24609ZM17.3534 2.48931C17.3164 2.47276 17.2814 2.45708 17.25 2.44141V8.81641H23.5586C23.4922 8.61719 23.4258 8.41797 23.293 8.28516L17.7148 2.70703C17.6134 2.60557 17.4732 2.54287 17.3534 2.48931Z" fill="#22B8CF"/>
</svg>
