<svg width="34" height="31" viewBox="0 0 34 31" fill="none" xmlns="http://www.w3.org/2000/svg">
<path d="M32.9375 8.71875L31.5312 7.3125C30.3008 6.08203 28.4258 6.08203 27.1953 7.3125L22.625 11.8828V8.48438C22.625 7.78125 22.2734 7.01953 21.7461 6.49219L16.8828 1.62891C16.3555 1.10156 15.5938 0.75 14.8906 0.75H2.87891C1.35547 0.808594 0.125 2.03906 0.125 3.62109V27.9961C0.125 29.5195 1.35547 30.75 2.87891 30.75H19.8125C21.3359 30.75 22.625 29.5195 22.625 27.9961V23.25C22.9766 22.957 23.3281 22.7227 23.6797 22.3711L32.9375 13.0547C33.5234 12.4688 33.8164 11.707 33.8164 10.8867C33.8164 10.0664 33.5234 9.30469 32.9375 8.71875ZM15.125 2.68359C15.2422 2.74219 15.418 2.80078 15.5352 2.91797L20.457 7.83984C20.5742 7.95703 20.6328 8.13281 20.6914 8.30859H15.125V2.68359ZM20.75 27.9961C20.75 28.4648 20.2812 28.9336 19.8125 28.9336H2.87891C2.41016 28.9336 1.94141 28.4648 1.94141 27.9961V3.62109C1.94141 3.09375 2.41016 2.625 2.87891 2.625H13.25V8.77734C13.25 9.53906 13.8359 10.125 14.6562 10.125H20.75V13.7578L17.8789 16.5703C16.1211 18.3281 15.125 20.7891 15.125 23.25C14.8906 23.25 14.6562 23.1328 14.5391 22.8984C13.8359 21.4922 11.8438 21.1406 10.6719 22.0781L9.85156 19.6172C9.67578 19.0312 9.14844 18.6797 8.5625 18.6797C7.91797 18.6797 7.39062 19.0312 7.21484 19.6172L6.16016 22.8398C6.04297 23.0742 5.80859 23.25 5.51562 23.25H4.8125C4.28516 23.25 3.875 23.7188 3.875 24.1875C3.875 24.7148 4.28516 25.125 4.8125 25.125H5.51562C6.62891 25.125 7.56641 24.4805 7.91797 23.4258L8.5625 21.5508L9.5 24.5391C9.79297 25.3008 10.8477 25.3594 11.2578 24.6562L11.668 23.7188C11.9023 23.25 12.6055 23.25 12.8984 23.7773C13.3086 24.5977 14.1289 25.125 15.125 25.125H17C18.2891 25.125 19.5195 24.8906 20.75 24.3633V27.9961ZM22.332 21.0234C21.1016 22.2539 18.6992 23.25 17 23.25C17 21.2578 17.7617 19.3242 19.2266 17.918L26.2578 10.8867L29.3633 13.9922L22.332 21.0234ZM31.6484 11.707L30.418 12.9375L27.3125 9.83203L28.543 8.60156C29.0117 8.19141 29.7148 8.19141 30.1836 8.60156L31.6484 10.0664C32.0586 10.5352 32.0586 11.2383 31.6484 11.707Z" fill="#22B8CF"/>
</svg>
