<svg width="34" height="31" viewBox="0 0 34 31" fill="none" xmlns="http://www.w3.org/2000/svg">
<path d="M4.8125 21.375H1.0625C0.535156 21.375 0.125 21.8438 0.125 22.3125V29.8125C0.125 30.3398 0.535156 30.75 1.0625 30.75H4.8125C5.28125 30.75 5.75 30.3398 5.75 29.8125V22.3125C5.75 21.8438 5.28125 21.375 4.8125 21.375ZM3.875 28.875H2V23.25H3.875V28.875ZM32.9375 12H29.1875C28.6602 12 28.25 12.4688 28.25 12.9375V29.8125C28.25 30.3398 28.6602 30.75 29.1875 30.75H32.9375C33.4062 30.75 33.875 30.3398 33.875 29.8125V12.9375C33.875 12.4688 33.4062 12 32.9375 12ZM32 28.875H30.125V13.875H32V28.875ZM29.5391 5.96484C30.0078 6.25781 30.4766 6.375 31.0625 6.375C32.5859 6.375 33.875 5.14453 33.875 3.5625C33.875 2.03906 32.5859 0.75 31.0625 0.75C29.4805 0.75 28.25 2.03906 28.25 3.5625C28.25 3.91406 28.3086 4.20703 28.3672 4.5L23.1523 8.71875C22.6836 8.42578 22.2148 8.25 21.6875 8.25C21.1016 8.25 20.6328 8.42578 20.1641 8.71875L14.9492 4.5C15.0078 4.20703 15.125 3.91406 15.125 3.5625C15.125 2.03906 13.8359 0.75 12.3125 0.75C10.7305 0.75 9.5 2.03906 9.5 3.5625C9.5 4.03125 9.55859 4.44141 9.73438 4.79297L4.10938 10.418C3.75781 10.2422 3.34766 10.125 2.9375 10.125C1.35547 10.125 0.125 11.4141 0.125 12.9375C0.125 14.5195 1.35547 15.75 2.9375 15.75C4.46094 15.75 5.75 14.5195 5.75 12.9375C5.75 12.5273 5.63281 12.1172 5.45703 11.7656L11.082 6.14062C11.4336 6.31641 11.8438 6.375 12.3125 6.375C12.8398 6.375 13.3086 6.25781 13.7773 5.96484L18.9922 10.1836C18.9336 10.4766 18.875 10.7695 18.875 11.0625C18.875 12.6445 20.1055 13.875 21.6875 13.875C23.2109 13.875 24.5 12.6445 24.5 11.0625C24.5 10.7695 24.3828 10.4766 24.3242 10.1836L29.5391 5.96484ZM31.0625 2.625C31.5312 2.625 32 3.09375 32 3.5625C32 4.08984 31.5312 4.5 31.0625 4.5C30.5352 4.5 30.125 4.08984 30.125 3.5625C30.125 3.09375 30.5352 2.625 31.0625 2.625ZM2.9375 13.875C2.41016 13.875 2 13.4648 2 12.9375C2 12.4688 2.41016 12 2.9375 12C3.40625 12 3.875 12.4688 3.875 12.9375C3.875 13.4648 3.40625 13.875 2.9375 13.875ZM12.3125 4.5C11.7852 4.5 11.375 4.08984 11.375 3.5625C11.375 3.09375 11.7852 2.625 12.3125 2.625C12.7812 2.625 13.25 3.09375 13.25 3.5625C13.25 4.08984 12.7812 4.5 12.3125 4.5ZM21.6875 12C21.1602 12 20.75 11.5898 20.75 11.0625C20.75 10.5938 21.1602 10.125 21.6875 10.125C22.1562 10.125 22.625 10.5938 22.625 11.0625C22.625 11.5898 22.1562 12 21.6875 12ZM14.1875 12H10.4375C9.91016 12 9.5 12.4688 9.5 12.9375V29.8125C9.5 30.3398 9.91016 30.75 10.4375 30.75H14.1875C14.6562 30.75 15.125 30.3398 15.125 29.8125V12.9375C15.125 12.4688 14.6562 12 14.1875 12ZM13.25 28.875H11.375V13.875H13.25V28.875ZM23.5625 19.5H19.8125C19.2852 19.5 18.875 19.9688 18.875 20.4375V29.8125C18.875 30.3398 19.2852 30.75 19.8125 30.75H23.5625C24.0312 30.75 24.5 30.3398 24.5 29.8125V20.4375C24.5 19.9688 24.0312 19.5 23.5625 19.5ZM22.625 28.875H20.75V21.375H22.625V28.875Z" fill="#22B8CF"/>
</svg>
