<svg width="30" height="31" viewBox="0 0 30 31" fill="none" xmlns="http://www.w3.org/2000/svg">
<path d="M13.5938 15.2812C13.5938 14.8125 13.125 14.3438 12.6562 14.3438H11.7188C11.1914 14.3438 10.7812 14.8125 10.7812 15.2812V16.2188C10.7812 16.7461 11.1914 17.1562 11.7188 17.1562H12.6562C13.125 17.1562 13.5938 16.7461 13.5938 16.2188V15.2812ZM7.96875 15.2812C7.96875 14.8125 7.5 14.3438 7.03125 14.3438H6.09375C5.56641 14.3438 5.15625 14.8125 5.15625 15.2812V16.2188C5.15625 16.7461 5.56641 17.1562 6.09375 17.1562H7.03125C7.5 17.1562 7.96875 16.7461 7.96875 16.2188V15.2812ZM9.84375 18.0938H8.90625C8.37891 18.0938 7.96875 18.5625 7.96875 19.0312V19.9688C7.96875 20.4961 8.37891 20.9062 8.90625 20.9062H9.84375C10.3125 20.9062 10.7812 20.4961 10.7812 19.9688V19.0312C10.7812 18.5625 10.3125 18.0938 9.84375 18.0938ZM15.4688 18.0938H14.5312C14.0039 18.0938 13.5938 18.5625 13.5938 19.0312V19.9688C13.5938 20.4961 14.0039 20.9062 14.5312 20.9062H15.4688C15.9375 20.9062 16.4062 20.4961 16.4062 19.9688V19.0312C16.4062 18.5625 15.9375 18.0938 15.4688 18.0938ZM19.2188 15.2812C19.2188 14.8125 18.75 14.3438 18.2812 14.3438H17.3438C16.8164 14.3438 16.4062 14.8125 16.4062 15.2812V16.2188C16.4062 16.7461 16.8164 17.1562 17.3438 17.1562H18.2812C18.75 17.1562 19.2188 16.7461 19.2188 16.2188V15.2812ZM29.9414 23.0156L28.418 12.5859C28.2422 11.1797 27.0703 10.125 25.6641 10.125H11.25V6.375H15.9375C16.4062 6.375 16.875 5.96484 16.875 5.4375V1.6875C16.875 1.21875 16.4062 0.75 15.9375 0.75H4.6875C4.16016 0.75 3.75 1.21875 3.75 1.6875V5.4375C3.75 5.96484 4.16016 6.375 4.6875 6.375H9.375V10.125H4.27734C2.87109 10.125 1.69922 11.1797 1.52344 12.5859L0 23.0156C0 23.1914 0 23.3672 0 23.543V27.9375C0 29.5195 1.23047 30.75 2.8125 30.75H27.1875C28.7109 30.75 30 29.5195 30 27.9375V23.543C30 23.3672 29.9414 23.1914 29.9414 23.0156ZM5.625 4.5V2.625H15V4.5H5.625ZM3.33984 12.8203C3.39844 12.3516 3.80859 12 4.27734 12H25.6641C26.1328 12 26.543 12.3516 26.6016 12.8203L28.0664 23.25H1.875L3.33984 12.8203ZM28.125 27.9375C28.125 28.4648 27.6562 28.875 27.1875 28.875H2.8125C2.28516 28.875 1.875 28.4648 1.875 27.9375V25.125H28.125V27.9375ZM23.9062 14.3438H22.9688C22.4414 14.3438 22.0312 14.8125 22.0312 15.2812V16.2188C22.0312 16.7461 22.4414 17.1562 22.9688 17.1562H23.9062C24.375 17.1562 24.8438 16.7461 24.8438 16.2188V15.2812C24.8438 14.8125 24.375 14.3438 23.9062 14.3438ZM21.0938 18.0938H20.1562C19.6289 18.0938 19.2188 18.5625 19.2188 19.0312V19.9688C19.2188 20.4961 19.6289 20.9062 20.1562 20.9062H21.0938C21.5625 20.9062 22.0312 20.4961 22.0312 19.9688V19.0312C22.0312 18.5625 21.5625 18.0938 21.0938 18.0938Z" fill="#22B8CF"/>
</svg>
