<svg width="24" height="31" viewBox="0 0 24 31" fill="none" xmlns="http://www.w3.org/2000/svg">
<path d="M13.582 19.9688L10.9453 19.1484C10.5938 19.0898 10.418 18.7969 10.418 18.4453C10.418 17.9766 10.7109 17.625 11.1211 17.625H12.7617C12.9961 17.625 13.2891 17.7422 13.5234 17.8594C13.6992 17.9766 13.9336 17.9766 14.1094 17.8008L14.7539 17.1562C14.9883 16.9805 14.9883 16.6289 14.7539 16.4531C14.2266 16.043 13.582 15.8086 12.8789 15.8086V14.3438C12.8789 14.1094 12.7031 13.875 12.4102 13.875H11.4727C11.2383 13.875 11.0039 14.1094 11.0039 14.3438V15.8086C9.65625 15.8086 8.54297 16.9805 8.54297 18.4453C8.54297 19.6172 9.30469 20.6133 10.3594 20.9648L12.9961 21.7852C13.3477 21.8438 13.5234 22.1367 13.5234 22.4883C13.5234 22.957 13.2305 23.25 12.8203 23.25H11.1797C10.9453 23.25 10.6523 23.1914 10.418 23.0742C10.2422 22.957 10.0078 22.957 9.83203 23.1328L9.1875 23.7773C8.95312 23.9531 8.95312 24.3047 9.1875 24.4805C9.71484 24.8906 10.3594 25.125 11.0625 25.125V26.5312C11.0625 26.8242 11.2383 27 11.5312 27H12.4688C12.7031 27 12.9375 26.8242 12.9375 26.5312V25.125C14.2852 25.125 15.3984 23.9531 15.3984 22.4883C15.3984 21.3164 14.6367 20.2617 13.582 19.9688ZM4.96875 6.375H11.5312C11.7656 6.375 12 6.19922 12 5.90625V4.96875C12 4.73438 11.7656 4.5 11.5312 4.5H4.96875C4.67578 4.5 4.5 4.73438 4.5 4.96875V5.90625C4.5 6.19922 4.67578 6.375 4.96875 6.375ZM12 9.65625V8.71875C12 8.48438 11.7656 8.25 11.5312 8.25H4.96875C4.67578 8.25 4.5 8.48438 4.5 8.71875V9.65625C4.5 9.94922 4.67578 10.125 4.96875 10.125H11.5312C11.7656 10.125 12 9.94922 12 9.65625ZM22.3711 6.49219L17.5078 1.62891C16.9805 1.10156 16.2188 0.75 15.5156 0.75H3.50391C1.98047 0.808594 0.75 2.03906 0.75 3.62109V27.9961C0.75 29.5195 1.98047 30.75 3.50391 30.75H20.4375C21.9609 30.75 23.25 29.5195 23.25 27.9961V8.48438C23.25 7.78125 22.8984 7.01953 22.3711 6.49219ZM15.75 2.68359C15.8672 2.74219 16.043 2.80078 16.1602 2.91797L21.082 7.83984C21.1992 7.95703 21.2578 8.13281 21.3164 8.30859H15.75V2.68359ZM21.375 27.9961C21.375 28.4648 20.9062 28.9336 20.4375 28.9336H3.50391C3.03516 28.9336 2.56641 28.4648 2.56641 27.9961V3.62109C2.56641 3.09375 3.03516 2.625 3.50391 2.625H13.875V8.77734C13.875 9.53906 14.4609 10.125 15.2812 10.125H21.375V27.9961Z" fill="#22B8CF"/>
</svg>
