<svg width="34" height="31" viewBox="0 0 34 31" fill="none" xmlns="http://www.w3.org/2000/svg">
<path d="M32 15.75H13.25C12.1953 15.75 11.375 16.6289 11.375 17.625V28.875C11.375 29.9297 12.1953 30.75 13.25 30.75H32C32.9961 30.75 33.875 29.9297 33.875 28.875V17.625C33.875 16.6289 32.9961 15.75 32 15.75ZM32 28.875H13.25V17.625H32V28.875ZM21.8633 27C22.0391 27 22.3906 27.0586 22.5664 27.0586C25.6719 27.0586 28.1914 24.4805 28.25 21.375V19.9688C28.25 19.7344 28.0156 19.5 27.7812 19.5H26.8438C26.5508 19.5 26.375 19.7344 26.375 19.9688V21.375C26.3164 23.4844 24.6758 25.1836 22.5664 25.1836C22.5078 25.1836 22.332 25.125 22.2148 25.125C20.2812 24.9492 18.875 23.1914 18.875 21.2578V19.9688C18.875 19.7344 18.6406 19.5 18.4062 19.5H17.4688C17.1758 19.5 17 19.7344 17 19.9688V21.1992C17 24.0703 19.0508 26.5898 21.8633 27ZM2 12H24.5V13.875H26.375V12C26.375 11.0039 25.4961 10.125 24.5 10.125H18.875V6.375C18.875 3.32812 16.2969 0.75 13.25 0.75C10.1445 0.75 7.625 3.32812 7.625 6.375V10.125H2C0.945312 10.125 0.125 11.0039 0.125 12V27C0.125 28.0547 0.945312 28.875 2 28.875H9.5V27H2V12ZM9.5 6.375C9.5 4.32422 11.1406 2.625 13.25 2.625C15.3008 2.625 17 4.32422 17 6.375V10.125H9.5V6.375Z" fill="#D6336C"/>
</svg>
