<svg width="30" height="31" viewBox="0 0 30 31" fill="none" xmlns="http://www.w3.org/2000/svg">
<path d="M27.1875 0.75H2.8125C1.23047 0.75 0 2.03906 0 3.5625V27.9375C0 29.5195 1.23047 30.75 2.8125 30.75H27.1875C28.7109 30.75 30 29.5195 30 27.9375V3.5625C30 2.03906 28.7109 0.75 27.1875 0.75ZM28.125 27.9375C28.125 28.4648 27.6562 28.875 27.1875 28.875H2.8125C2.28516 28.875 1.875 28.4648 1.875 27.9375V16.6875H28.125V27.9375ZM28.125 14.8125H1.875V3.5625C1.875 3.09375 2.28516 2.625 2.8125 2.625H27.1875C27.6562 2.625 28.125 3.09375 28.125 3.5625V14.8125ZM19.6875 6.375H10.3125C9.78516 6.375 9.375 6.84375 9.375 7.3125V9.65625C9.375 9.94922 9.55078 10.125 9.84375 10.125H10.7812C11.0156 10.125 11.25 9.94922 11.25 9.65625V8.25H18.75V9.65625C18.75 9.94922 18.9258 10.125 19.2188 10.125H20.1562C20.3906 10.125 20.625 9.94922 20.625 9.65625V7.3125C20.625 6.84375 20.1562 6.375 19.6875 6.375ZM9.84375 25.125H10.7812C11.0156 25.125 11.25 24.9492 11.25 24.6562V23.25H18.75V24.6562C18.75 24.9492 18.9258 25.125 19.2188 25.125H20.1562C20.3906 25.125 20.625 24.9492 20.625 24.6562V22.3125C20.625 21.8438 20.1562 21.375 19.6875 21.375H10.3125C9.78516 21.375 9.375 21.8438 9.375 22.3125V24.6562C9.375 24.9492 9.55078 25.125 9.84375 25.125Z" fill="#D6336C"/>
</svg>
