<svg width="38" height="31" viewBox="0 0 38 31" fill="none" xmlns="http://www.w3.org/2000/svg">
<path d="M31.1875 21.375H20.875V14.8125C20.875 14.3438 20.4062 13.875 19.9375 13.875H6.8125C6.28516 13.875 5.875 14.3438 5.875 14.8125V29.8125C5.875 30.3398 6.28516 30.75 6.8125 30.75H31.1875C31.6562 30.75 32.125 30.3398 32.125 29.8125V22.3125C32.125 21.8438 31.6562 21.375 31.1875 21.375ZM19 28.875H7.75V23.25H19V28.875ZM19 21.375H7.75V15.75H19V21.375ZM30.25 28.875H20.875V23.25H30.25V28.875ZM35.9922 7.72266L20.0547 0.984375C19.3516 0.691406 18.5898 0.691406 17.8867 0.984375L1.94922 7.72266C0.894531 8.13281 0.25 9.1875 0.25 10.3008V30.2812C0.25 30.5742 0.425781 30.75 0.71875 30.75H1.65625C1.89062 30.75 2.125 30.5742 2.125 30.2812V10.3008C2.125 9.89062 2.30078 9.59766 2.65234 9.42188L18.5898 2.74219C18.8242 2.625 19.1172 2.625 19.3516 2.74219L35.2891 9.42188C35.6406 9.59766 35.875 9.89062 35.875 10.3008V30.2812C35.875 30.5742 36.0508 30.75 36.3438 30.75H37.2812C37.5156 30.75 37.75 30.5742 37.75 30.2812V10.3008C37.75 9.1875 37.0469 8.13281 35.9922 7.72266Z" fill="#D6336C"/>
</svg>
