<svg width="38" height="29" viewBox="0 0 38 29" fill="none" xmlns="http://www.w3.org/2000/svg">
<path d="M16.6562 10C16.8906 10 17.125 9.82422 17.125 9.53125V8.59375C17.125 8.35938 16.8906 8.125 16.6562 8.125H2.59375C2.30078 8.125 2.125 8.35938 2.125 8.59375V9.53125C2.125 9.82422 2.30078 10 2.59375 10H16.6562ZM37.2812 21.25H35.875V14.9219C35.875 13.9844 35.4648 12.9883 34.7617 12.2852L29.8398 7.36328C29.1367 6.66016 28.1992 6.25 27.2031 6.25H24.625V3.37891C24.625 1.85547 23.2773 0.625 21.6953 0.625H6.87109C5.28906 0.625 4 1.85547 4 3.37891V4.375H0.71875C0.425781 4.375 0.25 4.60938 0.25 4.84375V5.78125C0.25 6.07422 0.425781 6.25 0.71875 6.25H14.7812C15.0156 6.25 15.25 6.07422 15.25 5.78125V4.84375C15.25 4.60938 15.0156 4.375 14.7812 4.375H5.875V3.37891C5.875 2.91016 6.28516 2.5 6.87109 2.5H21.6953C22.2812 2.5 22.75 2.91016 22.75 3.37891V21.25H12.3789C11.5586 20.1367 10.2109 19.375 8.6875 19.375C7.57422 19.375 6.63672 19.7852 5.875 20.3711V15.625H4V24.0625C4 26.6992 6.05078 28.75 8.6875 28.75C11.2656 28.75 13.375 26.6992 13.375 24.0625C13.375 23.7695 13.3164 23.4766 13.2578 23.125H24.6836C24.625 23.4766 24.625 23.7695 24.625 24.0625C24.625 26.6992 26.6758 28.75 29.3125 28.75C31.8906 28.75 34 26.6992 34 24.0625C34 23.7695 33.9414 23.4766 33.8828 23.125H37.2812C37.5156 23.125 37.75 22.9492 37.75 22.6562V21.7188C37.75 21.4844 37.5156 21.25 37.2812 21.25ZM8.6875 26.875C7.10547 26.875 5.875 25.6445 5.875 24.0625C5.875 22.5391 7.10547 21.25 8.6875 21.25C10.2109 21.25 11.5 22.5391 11.5 24.0625C11.5 25.6445 10.2109 26.875 8.6875 26.875ZM24.625 8.125H27.2031C27.6719 8.125 28.1406 8.35938 28.4922 8.71094L33.4141 13.6328C33.4727 13.6914 33.4727 13.75 33.5312 13.8086H24.625V8.125ZM29.3125 26.875C27.7305 26.875 26.5 25.6445 26.5 24.0625C26.5 22.5391 27.7305 21.25 29.3125 21.25C30.8359 21.25 32.125 22.5391 32.125 24.0625C32.125 25.6445 30.8359 26.875 29.3125 26.875ZM34 21.25H33.0039C32.1836 20.1367 30.8359 19.375 29.3125 19.375C27.7891 19.375 26.4414 20.1367 25.5625 21.25H24.625V15.625H34V21.25ZM15.25 13.2812V12.3438C15.25 12.1094 15.0156 11.875 14.7812 11.875H0.71875C0.425781 11.875 0.25 12.1094 0.25 12.3438V13.2812C0.25 13.5742 0.425781 13.75 0.71875 13.75H14.7812C15.0156 13.75 15.25 13.5742 15.25 13.2812Z" fill="#D6336C"/>
</svg>
