<svg width="28" height="31" viewBox="0 0 28 31" fill="none" xmlns="http://www.w3.org/2000/svg">
<path d="M5.5625 27H22.4375C22.9062 27 23.375 26.5898 23.375 26.0625V14.8125C23.375 14.3438 22.9062 13.875 22.4375 13.875H5.5625C5.03516 13.875 4.625 14.3438 4.625 14.8125V26.0625C4.625 26.5898 5.03516 27 5.5625 27ZM17.75 21.375V15.75H21.5V25.125H17.75V21.375ZM12.125 15.75H15.875V19.5H12.125V15.75ZM12.125 21.375H15.875V25.125H12.125V21.375ZM6.5 15.75H10.25V19.5H6.5V15.75ZM6.5 21.375H10.25V25.125H6.5V21.375ZM24.3125 0.75H3.6875C2.16406 0.75 0.875 2.09766 0.875 3.5625V27.9375C0.875 29.4609 2.16406 30.75 3.6875 30.75H24.3125C25.7773 30.75 27.125 29.4609 27.125 27.9375V3.5625C27.125 2.09766 25.7773 0.75 24.3125 0.75ZM25.25 27.9375C25.25 28.4062 24.7227 28.875 24.3125 28.875H3.6875C3.21875 28.875 2.75 28.4062 2.75 27.9375V12H25.25V27.9375ZM25.25 10.125H2.75V3.5625C2.75 3.15234 3.21875 2.625 3.6875 2.625H24.3125C24.7227 2.625 25.25 3.15234 25.25 3.5625V10.125Z" fill="#D6336C"/>
</svg>
