<svg width="28" height="27" viewBox="0 0 28 27" fill="none" xmlns="http://www.w3.org/2000/svg">
<path d="M24.3125 0.625H3.6875C2.10547 0.625 0.875 1.91406 0.875 3.4375V24.0625C0.875 25.6445 2.10547 26.875 3.6875 26.875H24.3125C25.8359 26.875 27.125 25.6445 27.125 24.0625V3.4375C27.125 1.91406 25.8359 0.625 24.3125 0.625ZM25.25 24.0625C25.25 24.5898 24.7812 25 24.3125 25H3.6875C3.16016 25 2.75 24.5898 2.75 24.0625V3.4375C2.75 2.96875 3.16016 2.5 3.6875 2.5H24.3125C24.7812 2.5 25.25 2.96875 25.25 3.4375V24.0625ZM19.8594 8.125H14V5.78125C14 5.01953 13.3555 4.375 12.5938 4.375H9.78125C8.96094 4.375 8.375 5.01953 8.375 5.78125V8.125H6.26562C5.85547 8.125 5.5625 8.47656 5.5625 8.82812V9.29688C5.5625 9.70703 5.85547 10 6.26562 10H8.375V12.3438C8.375 13.1641 8.96094 13.75 9.78125 13.75H12.5938C13.3555 13.75 14 13.1641 14 12.3438V10H19.8594C20.2109 10 20.5625 9.70703 20.5625 9.29688V8.82812C20.5625 8.47656 20.2109 8.125 19.8594 8.125ZM12.125 11.875H10.25V6.25H12.125V11.875ZM20.7969 17.5H19.625V15.1562C19.625 14.3945 18.9805 13.75 18.2188 13.75H15.4062C14.5859 13.75 14 14.3945 14 15.1562V17.5H7.20312C6.79297 17.5 6.5 17.8516 6.5 18.2031V18.6719C6.5 19.082 6.79297 19.375 7.20312 19.375H14V21.7188C14 22.5391 14.5859 23.125 15.4062 23.125H18.2188C18.9805 23.125 19.625 22.5391 19.625 21.7188V19.375H20.7969C21.1484 19.375 21.5 19.082 21.5 18.6719V18.2031C21.5 17.8516 21.1484 17.5 20.7969 17.5ZM17.75 21.25H15.875V15.625H17.75V21.25Z" fill="#D6336C"/>
</svg>
