<svg width="27" height="35" viewBox="0 0 27 35" fill="none" xmlns="http://www.w3.org/2000/svg">
<path d="M12.5781 6.5625H4.92188C4.58008 6.5625 4.375 6.35742 4.375 6.01562V4.92188C4.375 4.64844 4.58008 4.375 4.92188 4.375H12.5781C12.8516 4.375 13.125 4.64844 13.125 4.92188V6.01562C13.125 6.35742 12.8516 6.5625 12.5781 6.5625Z" fill="#FF9900"/>
<path d="M12.5781 10.9375H4.92188C4.58008 10.9375 4.375 10.7324 4.375 10.3906V9.29688C4.375 9.02344 4.58008 8.75 4.92188 8.75H12.5781C12.8516 8.75 13.125 9.02344 13.125 9.29688V10.3906C13.125 10.7324 12.8516 10.9375 12.5781 10.9375Z" fill="#FF9900"/>
<path d="M13.9818 17.9375H15.3854C15.6406 17.9375 15.8958 18.1927 15.8958 18.4479V21.5742C15.8958 23.0098 14.9069 24.1901 13.599 24.5091V26.6146H14.3646C14.6198 26.6146 14.875 26.8698 14.875 27.125V27.6354C14.875 27.9225 14.6198 28.1458 14.3646 28.1458H11.3021C11.015 28.1458 10.7917 27.9225 10.7917 27.6354V27.125C10.7917 26.8698 11.015 26.6146 11.3021 26.6146H12.0677V24.5091C10.7279 24.1901 9.77083 23.0098 9.77083 21.5742V18.4479C9.77083 18.1927 9.99414 17.9375 10.2812 17.9375H12.1953L12.9928 18.8307L10.9512 19.8516L13.8542 22.0208L12.6738 20.1387L14.7155 19.1178L13.9818 17.9375Z" fill="#FF9900"/>
<path fill-rule="evenodd" clip-rule="evenodd" d="M6.70833 14.875H18.9583C20.0749 14.875 21 15.8001 21 16.9167V29.1667C21 30.3151 20.0749 31.2083 18.9583 31.2083H6.70833C5.5599 31.2083 4.66667 30.3151 4.66667 29.1667V16.9167C4.66667 15.8001 5.5599 14.875 6.70833 14.875ZM18.9583 29.6771C19.2135 29.6771 19.4688 29.4538 19.4688 29.1667V16.9167C19.4688 16.6615 19.2135 16.4062 18.9583 16.4062H6.70833C6.42122 16.4062 6.19792 16.6615 6.19792 16.9167V29.1667C6.19792 29.4538 6.42122 29.6771 6.70833 29.6771H18.9583Z" fill="#FF9900"/>
<path fill-rule="evenodd" clip-rule="evenodd" d="M19.5508 1.02539L25.2246 6.69922C25.8398 7.31445 26.25 8.20312 26.25 9.02344V31.7871C26.25 33.5645 24.7461 35 22.9688 35H3.21289C1.43555 35 0 33.5645 0 31.7871V3.34961C0 1.50391 1.43555 0.0683594 3.21289 0H17.2266C18.0469 0 18.9355 0.410156 19.5508 1.02539ZM17.6065 2.30517C17.5684 2.28813 17.5323 2.272 17.5 2.25586V8.81836H23.9941C23.9258 8.61328 23.8574 8.4082 23.7207 8.27148L17.9785 2.5293C17.8741 2.42485 17.7297 2.3603 17.6065 2.30517ZM22.9688 32.8809C23.5156 32.8809 24.0625 32.334 24.0625 31.7871V10.9375H16.9531C15.9961 10.9375 15.3125 10.2539 15.3125 9.36523V2.1875H3.21289C2.66602 2.1875 2.11914 2.73438 2.11914 3.34961V31.7871C2.11914 32.334 2.66602 32.8809 3.21289 32.8809H22.9688Z" fill="#FF9900"/>
</svg>
