<svg width="27" height="35" viewBox="0 0 27 35" fill="none" xmlns="http://www.w3.org/2000/svg">
<path d="M12.5781 6.5625H4.92188C4.58008 6.5625 4.375 6.35742 4.375 6.01562V4.92188C4.375 4.64844 4.58008 4.375 4.92188 4.375H12.5781C12.8516 4.375 13.125 4.64844 13.125 4.92188V6.01562C13.125 6.35742 12.8516 6.5625 12.5781 6.5625Z" fill="#FF9900"/>
<path d="M12.5781 10.9375H4.92188C4.58008 10.9375 4.375 10.7324 4.375 10.3906V9.29688C4.375 9.02344 4.58008 8.75 4.92188 8.75H12.5781C12.8516 8.75 13.125 9.02344 13.125 9.29688V10.3906C13.125 10.7324 12.8516 10.9375 12.5781 10.9375Z" fill="#FF9900"/>
<path d="M13.6719 26.0085C13.5124 26.168 13.2891 26.168 13.1296 26.0085L9.20573 22.0846C9.07812 21.9251 9.07812 21.7018 9.20573 21.5423L9.93945 20.8405C10.099 20.681 10.3223 20.681 10.4818 20.8405L13.4167 23.7435L16.3197 20.8405C16.4792 20.681 16.7344 20.681 16.862 20.8405L17.5957 21.5423C17.7552 21.7018 17.7552 21.9251 17.5957 22.0846L13.6719 26.0085Z" fill="#FF9900"/>
<path fill-rule="evenodd" clip-rule="evenodd" d="M19.0312 15.8958C19.8607 15.8958 20.5625 16.5977 20.5625 17.4271V28.6562C20.5625 29.5176 19.8607 30.1875 19.0312 30.1875H7.80208C6.94075 30.1875 6.27083 29.5176 6.27083 28.6562V17.4271C6.27083 16.5977 6.94075 15.8958 7.80208 15.8958H19.0312ZM18.8398 28.6562C18.9355 28.6562 19.0312 28.5924 19.0312 28.4648V17.6185C19.0312 17.5228 18.9355 17.4271 18.8398 17.4271H7.99349C7.86589 17.4271 7.80208 17.5228 7.80208 17.6185V28.4648C7.80208 28.5924 7.86589 28.6562 7.99349 28.6562H18.8398Z" fill="#FF9900"/>
<path fill-rule="evenodd" clip-rule="evenodd" d="M19.5508 1.02539L25.2246 6.69922C25.8398 7.31445 26.25 8.20312 26.25 9.02344V31.7871C26.25 33.5645 24.7461 35 22.9688 35H3.21289C1.43555 35 0 33.5645 0 31.7871V3.34961C0 1.50391 1.43555 0.0683594 3.21289 0H17.2266C18.0469 0 18.9355 0.410156 19.5508 1.02539ZM17.6065 2.30517C17.5684 2.28813 17.5323 2.272 17.5 2.25586V8.81836H23.9941C23.9258 8.61328 23.8574 8.4082 23.7207 8.27148L17.9785 2.5293C17.8741 2.42485 17.7297 2.3603 17.6065 2.30517ZM22.9688 32.8809C23.5156 32.8809 24.0625 32.334 24.0625 31.7871V10.9375H16.9531C15.9961 10.9375 15.3125 10.2539 15.3125 9.36523V2.1875H3.21289C2.66602 2.1875 2.11914 2.73438 2.11914 3.34961V31.7871C2.11914 32.334 2.66602 32.8809 3.21289 32.8809H22.9688Z" fill="#FF9900"/>
</svg>
