<svg width="23" height="30" viewBox="0 0 23 30" fill="none" xmlns="http://www.w3.org/2000/svg">
<path d="M18.2812 24.375H13.5938C13.3008 24.375 13.125 24.6094 13.125 24.8438V25.7812C13.125 26.0742 13.3008 26.25 13.5938 26.25H18.2812C18.5156 26.25 18.75 26.0742 18.75 25.7812V24.8438C18.75 24.6094 18.5156 24.375 18.2812 24.375ZM3.75 14.0625V19.6875C3.75 20.2148 4.21875 20.625 4.80469 20.625H17.6367C18.2227 20.625 18.75 20.2148 18.75 19.6875V14.0625C18.75 13.5938 18.2227 13.125 17.6367 13.125H4.80469C4.21875 13.125 3.75 13.5938 3.75 14.0625ZM5.625 15H16.875V18.75H5.625V15ZM4.21875 5.625H10.7812C11.0156 5.625 11.25 5.44922 11.25 5.15625V4.21875C11.25 3.98438 11.0156 3.75 10.7812 3.75H4.21875C3.92578 3.75 3.75 3.98438 3.75 4.21875V5.15625C3.75 5.44922 3.92578 5.625 4.21875 5.625ZM4.21875 9.375H10.7812C11.0156 9.375 11.25 9.19922 11.25 8.90625V7.96875C11.25 7.73438 11.0156 7.5 10.7812 7.5H4.21875C3.92578 7.5 3.75 7.73438 3.75 7.96875V8.90625C3.75 9.19922 3.92578 9.375 4.21875 9.375ZM21.6211 5.74219L16.7578 0.878906C16.2305 0.351562 15.4688 0 14.7656 0H2.75391C1.23047 0.0585938 0 1.28906 0 2.87109V27.2461C0 28.7695 1.23047 30 2.75391 30H19.6875C21.2109 30 22.5 28.7695 22.5 27.2461V7.73438C22.5 7.03125 22.1484 6.26953 21.6211 5.74219ZM15 1.93359C15.1172 1.99219 15.293 2.05078 15.4102 2.16797L20.332 7.08984C20.4492 7.20703 20.5078 7.38281 20.5664 7.55859H15V1.93359ZM20.625 27.2461C20.625 27.7148 20.1562 28.1836 19.6875 28.1836H2.75391C2.28516 28.1836 1.81641 27.7148 1.81641 27.2461V2.87109C1.81641 2.34375 2.28516 1.875 2.75391 1.875H13.125V8.02734C13.125 8.78906 13.7109 9.375 14.5312 9.375H20.625V27.2461Z" fill="#FF9900"/>
</svg>
