<svg width="27" height="35" viewBox="0 0 27 35" fill="none" xmlns="http://www.w3.org/2000/svg">
<path d="M16.2969 24.5L12.8333 28L9.33333 24.5C6.74479 24.6458 4.66667 26.7604 4.66667 29.3854C4.66667 30.5521 5.61458 31.5 6.78125 31.5H18.849C20.0156 31.5 20.9635 30.5521 21 29.3854C21 26.7604 18.8854 24.6458 16.2969 24.5ZM12.25 30.3333H6.78125C6.23437 30.3333 5.83333 29.9323 5.83333 29.3854C5.83333 27.6719 7.21875 26.0312 8.89583 25.7396L12.25 29.0573V30.3333ZM18.849 30.3333H13.4167V29.0573L16.7344 25.7396C18.4479 26.0312 19.8333 27.6719 19.8333 29.3854C19.7969 29.9323 19.3958 30.3333 18.849 30.3333ZM12.8333 23.9167C15.3854 23.9167 17.5 21.8385 17.5 19.25V15.2396C17.5 14.8021 17.1354 14.3281 16.7344 14.1458L13.6354 13.0156C13.4167 12.9062 13.0521 12.8333 12.8333 12.8333C12.5781 12.8333 12.2135 12.9062 11.9948 13.0156L8.89583 14.1458C8.49479 14.3281 8.16667 14.8021 8.16667 15.2396V19.25C8.16667 21.8385 10.2448 23.9167 12.8333 23.9167ZM9.33333 15.2396L12.3958 14.0729C12.5052 14.0365 12.6875 14 12.8333 14C12.9427 14 13.125 14.0365 13.2344 14.0729L16.3333 15.2396V18.0833H9.33333V15.2396ZM16.3333 19.25C16.3333 21.1823 14.7292 22.75 12.8333 22.75C10.901 22.75 9.33333 21.1823 9.33333 19.25H16.3333ZM14.1094 15.5677H13.3073V14.7656C13.3073 14.6927 13.2344 14.5833 13.125 14.5833H12.5052C12.3958 14.5833 12.3229 14.6927 12.3229 14.7656V15.5677H11.5573C11.4479 15.5677 11.375 15.6406 11.375 15.75V16.3698C11.375 16.4792 11.4479 16.5521 11.5573 16.5521H12.3229V17.3177C12.3229 17.4271 12.3958 17.5 12.5052 17.5H13.125C13.2344 17.5 13.3073 17.4271 13.3073 17.3177V16.5521H14.1094C14.1823 16.5521 14.2917 16.4792 14.2917 16.3698V15.75C14.2917 15.6406 14.1823 15.5677 14.1094 15.5677Z" fill="#FF9900"/>
<path d="M4.92187 6.5625H12.5781C12.8516 6.5625 13.125 6.35742 13.125 6.01562V4.92187C13.125 4.64844 12.8516 4.375 12.5781 4.375H4.92187C4.58008 4.375 4.375 4.64844 4.375 4.92187V6.01562C4.375 6.35742 4.58008 6.5625 4.92187 6.5625ZM4.92187 10.9375H12.5781C12.8516 10.9375 13.125 10.7324 13.125 10.3906V9.29687C13.125 9.02344 12.8516 8.75 12.5781 8.75H4.92187C4.58008 8.75 4.375 9.02344 4.375 9.29687V10.3906C4.375 10.7324 4.58008 10.9375 4.92187 10.9375ZM25.2246 6.69922L19.5508 1.02539C18.9355 0.410156 18.0469 0 17.2266 0H3.21289C1.43555 0.0683594 0 1.50391 0 3.34961V31.7871C0 33.5645 1.43555 35 3.21289 35H22.9687C24.7461 35 26.25 33.5645 26.25 31.7871V9.02344C26.25 8.20312 25.8398 7.31445 25.2246 6.69922ZM17.5 2.25586C17.6367 2.32422 17.8418 2.39258 17.9785 2.5293L23.7207 8.27148C23.8574 8.4082 23.9258 8.61328 23.9941 8.81836H17.5V2.25586ZM24.0625 31.7871C24.0625 32.334 23.5156 32.8809 22.9687 32.8809H3.21289C2.66602 32.8809 2.11914 32.334 2.11914 31.7871V3.34961C2.11914 2.73437 2.66602 2.1875 3.21289 2.1875H15.3125V9.36523C15.3125 10.2539 15.9961 10.9375 16.9531 10.9375H24.0625V31.7871Z" fill="#FF9900"/>
</svg>
