<svg width="27" height="35" viewBox="0 0 27 35" fill="none" xmlns="http://www.w3.org/2000/svg">
<path d="M12.5781 6.5625H4.92188C4.58008 6.5625 4.375 6.35742 4.375 6.01562V4.92188C4.375 4.64844 4.58008 4.375 4.92188 4.375H12.5781C12.8516 4.375 13.125 4.64844 13.125 4.92188V6.01562C13.125 6.35742 12.8516 6.5625 12.5781 6.5625Z" fill="#FF9900"/>
<path d="M12.5781 10.9375H4.92188C4.58008 10.9375 4.375 10.7324 4.375 10.3906V9.29688C4.375 9.02344 4.58008 8.75 4.92188 8.75H12.5781C12.8516 8.75 13.125 9.02344 13.125 9.29688V10.3906C13.125 10.7324 12.8516 10.9375 12.5781 10.9375Z" fill="#FF9900"/>
<path d="M9.77083 22.1667C9.51562 22.1667 9.33333 21.9844 9.33333 21.7292V20.2708C9.33333 20.0521 9.51562 19.8333 9.77083 19.8333H11.2292C11.4479 19.8333 11.6667 20.0521 11.6667 20.2708V21.7292C11.6667 21.9844 11.4479 22.1667 11.2292 22.1667H9.77083Z" fill="#FF9900"/>
<path d="M15.8958 22.1667H14.4375C14.1823 22.1667 14 21.9844 14 21.7292V20.2708C14 20.0521 14.1823 19.8333 14.4375 19.8333H15.8958C16.1146 19.8333 16.3333 20.0521 16.3333 20.2708V21.7292C16.3333 21.9844 16.1146 22.1667 15.8958 22.1667Z" fill="#FF9900"/>
<path d="M11.6667 23.7708V25.2292C11.6667 25.4844 11.4479 25.6667 11.2292 25.6667H9.77083C9.51562 25.6667 9.33333 25.4844 9.33333 25.2292V23.7708C9.33333 23.5521 9.51562 23.3333 9.77083 23.3333H11.2292C11.4479 23.3333 11.6667 23.5521 11.6667 23.7708Z" fill="#FF9900"/>
<path d="M15.8958 25.6667H14.4375C14.1823 25.6667 14 25.4844 14 25.2292V23.7708C14 23.5521 14.1823 23.3333 14.4375 23.3333H15.8958C16.1146 23.3333 16.3333 23.5521 16.3333 23.7708V25.2292C16.3333 25.4844 16.1146 25.6667 15.8958 25.6667Z" fill="#FF9900"/>
<path fill-rule="evenodd" clip-rule="evenodd" d="M20.5625 29.75C20.7812 29.75 21 29.9687 21 30.1875V31.5H4.66667V30.1875C4.66667 29.9687 4.84896 29.75 5.10417 29.75H5.79688V15.9687C5.79688 15.5312 6.19792 15.1667 6.67188 15.1667H9.91667V13.7083C9.91667 13.2344 10.2812 12.8333 10.7917 12.8333H14.875C15.349 12.8333 15.75 13.2344 15.75 13.7083V15.1667H18.9583C19.4323 15.1667 19.8333 15.5312 19.8333 15.9687V29.75H20.5625ZM7.54687 16.9167V29.7135H11.6667V27.2708C11.6667 27.0521 11.849 26.8333 12.1042 26.8333H13.5625C13.7812 26.8333 14 27.0521 14 27.2708V29.7135H18.0833V16.9167H15.75V17.7917C15.75 18.3021 15.349 18.6667 14.875 18.6667H10.7917C10.2812 18.6667 9.91667 18.3021 9.91667 17.7917V16.9167H7.54687ZM14.5833 15.3854C14.5833 15.276 14.474 15.1667 14.3646 15.1667H13.4167V14.2187C13.4167 14.1094 13.3073 14 13.1979 14H12.4688C12.3229 14 12.25 14.1094 12.25 14.2187V15.1667H11.3021C11.1562 15.1667 11.0833 15.276 11.0833 15.3854V16.1146C11.0833 16.2604 11.1562 16.3333 11.3021 16.3333H12.25V17.2812C12.25 17.4271 12.3229 17.5 12.4688 17.5H13.1979C13.3073 17.5 13.4167 17.4271 13.4167 17.2812V16.3333H14.3646C14.474 16.3333 14.5833 16.2604 14.5833 16.1146V15.3854Z" fill="#FF9900"/>
<path fill-rule="evenodd" clip-rule="evenodd" d="M19.5508 1.02539L25.2246 6.69922C25.8398 7.31445 26.25 8.20312 26.25 9.02344V31.7871C26.25 33.5645 24.7461 35 22.9688 35H3.21289C1.43555 35 0 33.5645 0 31.7871V3.34961C0 1.50391 1.43555 0.0683594 3.21289 0H17.2266C18.0469 0 18.9355 0.410156 19.5508 1.02539ZM17.6065 2.30517C17.5684 2.28813 17.5323 2.272 17.5 2.25586V8.81836H23.9941C23.9258 8.61328 23.8574 8.4082 23.7207 8.27148L17.9785 2.5293C17.8741 2.42485 17.7297 2.3603 17.6065 2.30517ZM22.9688 32.8809C23.5156 32.8809 24.0625 32.334 24.0625 31.7871V10.9375H16.9531C15.9961 10.9375 15.3125 10.2539 15.3125 9.36523V2.1875H3.21289C2.66602 2.1875 2.11914 2.73438 2.11914 3.34961V31.7871C2.11914 32.334 2.66602 32.8809 3.21289 32.8809H22.9688Z" fill="#FF9900"/>
</svg>
