<svg width="27" height="35" viewBox="0 0 27 35" fill="none" xmlns="http://www.w3.org/2000/svg">
<path d="M14.9707 22.4219L11.8945 21.4648C11.4844 21.3965 11.2793 21.0547 11.2793 20.6445C11.2793 20.0977 11.6211 19.6875 12.0996 19.6875H14.0137C14.2871 19.6875 14.6289 19.8242 14.9023 19.9609C15.1074 20.0977 15.3809 20.0977 15.5859 19.8926L16.3379 19.1406C16.6113 18.9355 16.6113 18.5254 16.3379 18.3203C15.7227 17.8418 14.9707 17.5684 14.1504 17.5684V15.8594C14.1504 15.5859 13.9453 15.3125 13.6035 15.3125H12.5098C12.2363 15.3125 11.9629 15.5859 11.9629 15.8594V17.5684C10.3906 17.5684 9.0918 18.9355 9.0918 20.6445C9.0918 22.0117 9.98047 23.1738 11.2109 23.584L14.2871 24.541C14.6973 24.6094 14.9023 24.9512 14.9023 25.3613C14.9023 25.9082 14.5605 26.25 14.082 26.25H12.168C11.8945 26.25 11.5527 26.1816 11.2793 26.0449C11.0742 25.9082 10.8008 25.9082 10.5957 26.1133L9.84375 26.8652C9.57031 27.0703 9.57031 27.4805 9.84375 27.6855C10.459 28.1641 11.2109 28.4375 12.0312 28.4375V30.0781C12.0312 30.4199 12.2363 30.625 12.5781 30.625H13.6719C13.9453 30.625 14.2187 30.4199 14.2187 30.0781V28.4375C15.791 28.4375 17.0898 27.0703 17.0898 25.3613C17.0898 23.9941 16.2012 22.7637 14.9707 22.4219ZM4.92188 6.5625H12.5781C12.8516 6.5625 13.125 6.35742 13.125 6.01562V4.92188C13.125 4.64844 12.8516 4.375 12.5781 4.375H4.92188C4.58008 4.375 4.375 4.64844 4.375 4.92188V6.01562C4.375 6.35742 4.58008 6.5625 4.92188 6.5625ZM13.125 10.3906V9.29688C13.125 9.02344 12.8516 8.75 12.5781 8.75H4.92188C4.58008 8.75 4.375 9.02344 4.375 9.29688V10.3906C4.375 10.7324 4.58008 10.9375 4.92188 10.9375H12.5781C12.8516 10.9375 13.125 10.7324 13.125 10.3906ZM25.2246 6.69922L19.5508 1.02539C18.9355 0.410156 18.0469 0 17.2266 0H3.21289C1.43555 0.0683594 0 1.50391 0 3.34961V31.7871C0 33.5645 1.43555 35 3.21289 35H22.9688C24.7461 35 26.25 33.5645 26.25 31.7871V9.02344C26.25 8.20312 25.8398 7.31445 25.2246 6.69922ZM17.5 2.25586C17.6367 2.32422 17.8418 2.39258 17.9785 2.5293L23.7207 8.27148C23.8574 8.4082 23.9258 8.61328 23.9941 8.81836H17.5V2.25586ZM24.0625 31.7871C24.0625 32.334 23.5156 32.8809 22.9688 32.8809H3.21289C2.66602 32.8809 2.11914 32.334 2.11914 31.7871V3.34961C2.11914 2.73438 2.66602 2.1875 3.21289 2.1875H15.3125V9.36523C15.3125 10.2539 15.9961 10.9375 16.9531 10.9375H24.0625V31.7871Z" fill="#FF9900"/>
</svg>
