<svg width="27" height="35" viewBox="0 0 27 35" fill="none" xmlns="http://www.w3.org/2000/svg">
<path d="M12.5781 6.5625H4.92188C4.58008 6.5625 4.375 6.35742 4.375 6.01562V4.92188C4.375 4.64844 4.58008 4.375 4.92188 4.375H12.5781C12.8516 4.375 13.125 4.64844 13.125 4.92188V6.01562C13.125 6.35742 12.8516 6.5625 12.5781 6.5625Z" fill="#FF9900"/>
<path d="M12.5781 10.9375H4.92188C4.58008 10.9375 4.375 10.7324 4.375 10.3906V9.29688C4.375 9.02344 4.58008 8.75 4.92188 8.75H12.5781C12.8516 8.75 13.125 9.02344 13.125 9.29688V10.3906C13.125 10.7324 12.8516 10.9375 12.5781 10.9375Z" fill="#FF9900"/>
<path d="M6.48958 21C6.10677 21 5.83333 20.7266 5.83333 20.3437V19.9062C5.83333 19.5508 6.10677 19.25 6.48958 19.25H16.3333V17.9375C16.3333 17.3633 17.0169 17.0625 17.4271 17.5L19.6146 19.6875C19.888 19.9336 19.888 20.3437 19.6146 20.5898L17.4271 22.7773C17.0169 23.1875 16.3333 22.9141 16.3333 22.3125V21H6.48958Z" fill="#FF9900"/>
<path d="M9.33333 24.5H19.1771C19.5326 24.5 19.8333 24.8008 19.8333 25.1562V25.5937C19.8333 25.9766 19.5326 26.25 19.1771 26.25H9.33333V27.5625C9.33333 28.1641 8.6224 28.4375 8.21224 28.0273L6.02474 25.8398C5.7513 25.5937 5.7513 25.1836 6.02474 24.9375L8.21224 22.75C8.6224 22.3125 9.33333 22.6133 9.33333 23.1875V24.5Z" fill="#FF9900"/>
<path fill-rule="evenodd" clip-rule="evenodd" d="M19.5508 1.02539L25.2246 6.69922C25.8398 7.31445 26.25 8.20312 26.25 9.02344V31.7871C26.25 33.5645 24.7461 35 22.9688 35H3.21289C1.43555 35 0 33.5645 0 31.7871V3.34961C0 1.50391 1.43555 0.0683594 3.21289 0H17.2266C18.0469 0 18.9355 0.410156 19.5508 1.02539ZM17.6065 2.30517C17.5684 2.28813 17.5323 2.272 17.5 2.25586V8.81836H23.9941C23.9258 8.61328 23.8574 8.4082 23.7207 8.27148L17.9785 2.5293C17.8741 2.42485 17.7297 2.3603 17.6065 2.30517ZM22.9688 32.8809C23.5156 32.8809 24.0625 32.334 24.0625 31.7871V10.9375H16.9531C15.9961 10.9375 15.3125 10.2539 15.3125 9.36523V2.1875H3.21289C2.66602 2.1875 2.11914 2.73438 2.11914 3.34961V31.7871C2.11914 32.334 2.66602 32.8809 3.21289 32.8809H22.9688Z" fill="#FF9900"/>
</svg>
