<svg width="30" height="23" viewBox="0 0 30 23" fill="none" xmlns="http://www.w3.org/2000/svg">
<path d="M29.5312 21.125H1.875V0.96875C1.875 0.734375 1.64062 0.5 1.40625 0.5H0.46875C0.175781 0.5 0 0.734375 0 0.96875V22.0625C0 22.5898 0.410156 23 0.9375 23H29.5312C29.7656 23 30 22.8242 30 22.5312V21.5938C30 21.3594 29.7656 21.125 29.5312 21.125ZM5.74219 12.2188C5.56641 12.3945 5.56641 12.6875 5.74219 12.8633L6.38672 13.5078C6.5625 13.6836 6.85547 13.6836 7.03125 13.5078L11.3086 9.28906L16.2891 14.2695C16.6406 14.6211 17.2266 14.6211 17.5781 14.2695L23.0859 8.76172L25.6641 11.3398C25.957 11.6328 26.3086 11.75 26.6602 11.75C27.4219 11.75 28.125 11.2227 28.125 10.3438V3.37109C28.125 2.84375 27.6562 2.375 27.1289 2.375H20.1562C18.8672 2.375 18.2227 3.95703 19.1602 4.83594L21.7383 7.47266L16.9336 12.2773L12.0117 7.29688C11.6016 6.94531 11.0156 6.94531 10.6641 7.29688L5.74219 12.2188ZM21.2109 4.25H26.25V9.28906L21.2109 4.25Z" fill="#FF9900"/>
</svg>
