<svg width="38" height="31" viewBox="0 0 38 31" fill="none" xmlns="http://www.w3.org/2000/svg">
<path d="M25.1523 24.5977C25.4453 24.8906 26.0312 25.125 26.5 25.125H30.25C31.2461 25.125 32.125 24.3047 32.125 23.25V19.5C32.125 19.0898 31.832 18.5039 31.5391 18.2109L14.6641 1.51172C14.3125 1.10156 13.4922 0.75 12.9648 0.75C12.4375 0.75 11.6758 1.10156 11.2656 1.51172L8.45312 4.32422C8.04297 4.73438 7.75 5.49609 7.75 6.02344C7.75 6.60938 8.04297 7.37109 8.45312 7.72266L25.1523 24.5977ZM17.1836 6.60938L30.25 19.5V23.25H26.5L13.6094 10.2422L17.1836 6.60938ZM9.74219 5.67188L12.6133 2.80078C12.6719 2.74219 12.8477 2.625 12.9648 2.625C13.082 2.625 13.2578 2.74219 13.375 2.80078L15.9531 5.4375L12.3789 9.01172L9.74219 6.43359C9.68359 6.31641 9.625 6.14062 9.625 6.02344C9.625 5.90625 9.68359 5.73047 9.74219 5.67188ZM13.375 24.6562C13.375 24.9492 13.5508 25.125 13.8438 25.125H23.043L21.168 23.25H13.8438C13.5508 23.25 13.375 23.4844 13.375 23.7188V24.6562ZM13.8438 19.5H17.4766L15.6016 17.625H13.8438C13.5508 17.625 13.375 17.8594 13.375 18.0938V19.0312C13.375 19.3242 13.5508 19.5 13.8438 19.5ZM35.875 8.25H24.2148L26.0898 10.125H35.875V28.875H2.125V10.125H8.21875L7.16406 9.07031C6.92969 8.89453 6.63672 8.54297 6.51953 8.25H2.125C1.07031 8.25 0.25 9.12891 0.25 10.125V28.875C0.25 29.9297 1.07031 30.75 2.125 30.75H35.875C36.8711 30.75 37.75 29.9297 37.75 28.875V10.125C37.75 9.12891 36.8711 8.25 35.875 8.25ZM8.21875 25.5938H9.15625C9.39062 25.5938 9.625 25.418 9.625 25.125V24.1875C10.9727 24.1875 12.0859 23.0156 12.0859 21.5508C12.0859 20.3789 11.3242 19.3242 10.2695 19.0312L7.63281 18.2109C7.28125 18.1523 7.10547 17.8594 7.10547 17.5078C7.10547 17.0391 7.39844 16.6875 7.80859 16.6875H9.44922C9.68359 16.7461 9.97656 16.8047 10.2109 16.9219C10.2695 16.9805 10.3867 17.0391 10.4453 17.0391C10.5625 17.0391 10.6797 16.9805 10.7969 16.8633L11.4414 16.2188C11.5586 16.1602 11.6172 15.9844 11.6172 15.8672C11.6172 15.75 11.5586 15.5742 11.4414 15.5156C10.9727 15.1641 10.1523 14.8711 9.625 14.8711V13.875C9.625 13.6406 9.39062 13.4062 9.15625 13.4062H8.21875C7.92578 13.4062 7.75 13.6406 7.75 13.875V14.8711C6.34375 14.8711 5.23047 16.043 5.23047 17.5078C5.23047 18.6797 5.99219 19.6758 7.04688 20.0273L9.68359 20.8477C10.0352 20.9062 10.2109 21.1992 10.2109 21.5508C10.2109 22.0195 9.91797 22.3125 9.50781 22.3125H7.86719C7.63281 22.3125 7.33984 22.2539 7.16406 22.1367C7.04688 22.0781 6.92969 22.0195 6.87109 22.0195C6.75391 22.0195 6.63672 22.0781 6.51953 22.1953L5.875 22.8398C5.75781 22.8984 5.69922 23.0742 5.69922 23.1914C5.69922 23.3086 5.75781 23.4844 5.875 23.543C6.34375 23.8945 7.16406 24.1875 7.75 24.1875V25.125C7.75 25.418 7.92578 25.5938 8.21875 25.5938Z" fill="#FF9900"/>
</svg>
