<svg width="30" height="31" viewBox="0 0 30 31" fill="none" xmlns="http://www.w3.org/2000/svg">
<path d="M20.4492 10.9453L19.8047 10.3008C19.6289 10.125 19.3359 10.125 19.1602 10.3008L9.49219 19.9688C9.31641 20.1445 9.31641 20.4375 9.49219 20.6133L10.1367 21.2578C10.3125 21.4336 10.6055 21.4336 10.7812 21.2578L20.4492 11.5898C20.625 11.4141 20.625 11.1211 20.4492 10.9453ZM14.0625 12C14.0625 10.4766 12.7734 9.1875 11.25 9.1875C9.66797 9.1875 8.4375 10.4766 8.4375 12C8.4375 13.582 9.66797 14.8125 11.25 14.8125C12.7734 14.8125 14.0625 13.582 14.0625 12ZM10.3125 12C10.3125 11.5312 10.7227 11.0625 11.25 11.0625C11.7188 11.0625 12.1875 11.5312 12.1875 12C12.1875 12.5273 11.7188 12.9375 11.25 12.9375C10.7227 12.9375 10.3125 12.5273 10.3125 12ZM18.75 16.6875C17.168 16.6875 15.9375 17.9766 15.9375 19.5C15.9375 21.082 17.168 22.3125 18.75 22.3125C20.2734 22.3125 21.5625 21.082 21.5625 19.5C21.5625 17.9766 20.2734 16.6875 18.75 16.6875ZM18.75 20.4375C18.2227 20.4375 17.8125 20.0273 17.8125 19.5C17.8125 19.0312 18.2227 18.5625 18.75 18.5625C19.2188 18.5625 19.6875 19.0312 19.6875 19.5C19.6875 20.0273 19.2188 20.4375 18.75 20.4375ZM30 15.75C30 13.6992 28.8281 11.7656 27.0703 10.7695C27.5977 8.77734 27.0703 6.66797 25.6055 5.14453C24.082 3.67969 21.9727 3.15234 19.9805 3.67969C18.9844 1.92188 17.0508 0.75 15 0.75C12.8906 0.75 10.957 1.92188 9.96094 3.67969C7.96875 3.15234 5.85938 3.67969 4.39453 5.14453C2.87109 6.66797 2.34375 8.77734 2.87109 10.7695C1.11328 11.7656 0 13.6992 0 15.75C0 17.8594 1.11328 19.793 2.87109 20.7891C2.34375 22.7812 2.87109 24.8906 4.39453 26.3555C5.91797 27.9375 8.08594 28.4062 9.96094 27.8789C10.957 29.6367 12.8906 30.75 15 30.75C17.0508 30.75 18.9844 29.6367 19.9805 27.8789C21.9141 28.4062 24.0234 27.9375 25.6055 26.3555C27.0703 24.8906 27.5977 22.7812 27.0703 20.7891C28.8281 19.793 30 17.8594 30 15.75ZM24.6094 19.793C24.9609 20.4961 26.3672 22.957 24.2578 25.0664C22.5586 26.7656 20.8594 26.2969 18.9844 25.418C18.6914 26.1211 17.9883 28.875 15 28.875C11.8945 28.875 11.1914 26.0039 10.957 25.418C9.08203 26.2969 7.38281 26.7656 5.68359 25.0664C3.51562 22.8984 5.03906 20.3203 5.33203 19.793C4.62891 19.5 1.875 18.7383 1.875 15.75C1.875 12.7031 4.74609 12 5.33203 11.7656C4.98047 11.0625 3.57422 8.60156 5.68359 6.49219C7.85156 4.32422 10.4297 5.84766 10.957 6.14062C11.25 5.37891 12.0117 2.625 15 2.625C18.0469 2.625 18.75 5.55469 18.9844 6.14062C19.6875 5.78906 22.1484 4.38281 24.2578 6.49219C26.4258 8.66016 24.9023 11.2383 24.6094 11.7656C25.3711 12.0586 28.125 12.7617 28.125 15.75C28.125 18.8555 25.1953 19.5586 24.6094 19.793Z" fill="#5C7CFA"/>
</svg>
