<svg width="38" height="31" viewBox="0 0 38 31" fill="none" xmlns="http://www.w3.org/2000/svg">
<path d="M34.9375 6.375H14.3125C12.7305 6.375 11.5 7.66406 11.5 9.1875V10.125H13.375V9.1875C13.375 8.71875 13.7852 8.25 14.3125 8.25H34.9375C35.4062 8.25 35.875 8.71875 35.875 9.1875V22.3125C35.875 22.8398 35.4062 23.25 34.9375 23.25H24.625V25.125H34.9375C36.4609 25.125 37.75 23.8945 37.75 22.3125V9.1875C37.75 7.66406 36.4609 6.375 34.9375 6.375ZM5.875 3.5625C5.875 3.09375 6.28516 2.625 6.8125 2.625H23.6875C24.1562 2.625 24.625 3.09375 24.625 3.5625V4.5H26.5V3.5625C26.5 2.03906 25.2109 0.75 23.6875 0.75H6.8125C5.23047 0.75 4 2.03906 4 3.5625V10.125H5.875V3.5625ZM33.0625 15.75C33.5312 15.75 34 15.3398 34 14.8125V11.0625C34 10.5938 33.5312 10.125 33.0625 10.125H29.3125C28.7852 10.125 28.375 10.5938 28.375 11.0625V14.8125C28.375 15.3398 28.7852 15.75 29.3125 15.75H33.0625ZM30.25 12H32.125V13.875H30.25V12ZM19.9375 12H3.0625C1.48047 12 0.25 13.2891 0.25 14.8125V27.9375C0.25 29.5195 1.48047 30.75 3.0625 30.75H19.9375C21.4609 30.75 22.75 29.5195 22.75 27.9375V14.8125C22.75 13.2891 21.4609 12 19.9375 12ZM20.875 27.9375C20.875 28.4648 20.4062 28.875 19.9375 28.875H3.0625C2.53516 28.875 2.125 28.4648 2.125 27.9375V19.1484C2.82812 19.7344 4 20.6719 7.75 23.25C8.45312 23.8359 9.97656 25.125 11.5 25.125C12.9648 25.125 14.4883 23.8359 15.25 23.25C19 20.6719 20.1133 19.7344 20.875 19.1484V27.9375ZM20.875 16.9219C19.3516 18.0352 19.5273 18.0352 14.0781 21.9609C13.5508 22.1367 12.4375 23.25 11.5 23.25C10.5625 23.25 9.39062 22.1367 8.86328 21.7852C3.41406 17.8594 3.58984 17.8594 2.125 16.6875V14.8125C2.125 14.3438 2.53516 13.875 3.0625 13.875H19.9375C20.4062 13.875 20.875 14.3438 20.875 14.8125V16.9219Z" fill="#5C7CFA"/>
</svg>
