<svg width="38" height="31" viewBox="0 0 38 31" fill="none" xmlns="http://www.w3.org/2000/svg">
<path d="M37.6914 27.5273L27.3789 1.21875C27.2617 0.984375 26.9688 0.75 26.6758 0.75C26.5 0.75 26.3828 0.808594 26.0312 0.984375C25.6211 1.10156 25.4453 1.45312 25.6211 2.03906C24.6836 2.625 22.1641 3.44531 21.2266 3.62109C21.168 3.38672 21.1094 3.21094 20.8164 3.03516V2.625C20.8164 1.62891 19.9961 0.808594 19 0.75H13.375C13.0234 0.75 12.6719 0.925781 12.4375 1.04297C12.1445 0.925781 11.8516 0.75 11.5 0.75H5.875C4.82031 0.75 4 1.62891 4 2.625V7.19531C4.46875 6.96094 5.28906 6.72656 5.875 6.60938V2.625H11.5V7.19531C12.0273 7.42969 12.8477 7.95703 13.375 8.30859V8.25H19V23.25H13.375C12.8477 23.6016 12.0273 24.1289 11.5 24.3633V28.875H5.875V24.9492C5.28906 24.832 4.46875 24.5977 4 24.3633V28.875C4 29.9297 4.82031 30.75 5.875 30.75H11.5C11.8516 30.75 12.1445 30.6328 12.4375 30.5156C12.6719 30.6328 13.0234 30.75 13.375 30.75H19C19.9961 30.75 20.875 29.9297 20.875 28.875V7.72266L29.7227 30.2812C29.8398 30.5742 30.1328 30.75 30.3672 30.75C30.543 30.75 30.6602 30.6914 31.0703 30.5742C31.4219 30.457 31.6562 30.1055 31.4219 29.5195C32.418 28.9336 34.8789 28.1133 35.875 27.9375C36.0508 28.582 36.4609 28.6992 36.8125 28.582L37.2227 28.4062C37.5156 28.3477 37.75 28.0547 37.75 27.7617C37.75 27.7031 37.6914 27.5859 37.6914 27.5273ZM19 28.875H13.375V25.125H19V28.875ZM19 6.375H13.375V2.625H19V6.375ZM30.8945 27.9375L21.7539 5.14453C23.2773 4.91016 25.5039 3.97266 26.207 3.62109L35.2891 26.4141C33.8242 26.6484 31.5391 27.5859 30.8945 27.9375ZM15.25 15.75C15.25 11.6484 11.8516 8.25 7.75 8.25C3.58984 8.25 0.25 11.6484 0.25 15.75C0.25 19.9102 3.58984 23.25 7.75 23.25C11.8516 23.25 15.25 19.9102 15.25 15.75ZM2.125 15.75C2.125 12.7031 4.64453 10.125 7.75 10.125C10.7969 10.125 13.375 12.7031 13.375 15.75C13.375 18.8555 10.7969 21.375 7.75 21.375C4.64453 21.375 2.125 18.8555 2.125 15.75ZM8.98047 19.207V17.0391H11.1484C11.3242 17.0391 11.5 16.8633 11.5 16.6875V14.8125C11.5 14.6953 11.3242 14.5195 11.1484 14.5195H8.98047V12.3516C8.98047 12.1758 8.80469 12 8.6875 12H6.8125C6.63672 12 6.46094 12.1758 6.46094 12.3516V14.5195H4.29297C4.11719 14.5195 4 14.6953 4 14.8125V16.6875C4 16.8633 4.11719 17.0391 4.29297 17.0391H6.46094V19.207C6.46094 19.3828 6.63672 19.5 6.8125 19.5H8.6875C8.80469 19.5 8.98047 19.3828 8.98047 19.207Z" fill="#5C7CFA"/>
</svg>
