<svg width="34" height="31" viewBox="0 0 34 31" fill="none" xmlns="http://www.w3.org/2000/svg">
<path d="M29.7734 15.75C26.7266 15.75 25.5547 18.5039 24.6758 17.3906C23.5039 15.9258 24.5586 11.1211 24.8516 9.65625C22.8594 10.0078 16.8242 11.0625 15.2422 9.77344C14.3047 8.95312 17.1172 7.25391 17.1172 4.73438C17.1172 2.33203 15.125 0.75 12.6641 0.75C10.1445 0.75 7.74219 2.27344 7.74219 4.79297C7.74219 7.89844 10.3789 9.01172 9.14844 10.0078C7.44922 11.2969 2.17578 10.1836 0.125 9.71484V29.9297C2.05859 30.3984 4.22656 30.8086 6.33594 30.75C8.79688 30.75 11.375 30.1055 11.375 27.5859C11.375 25.8867 9.5 25.2422 9.5 23.25C9.5 21.8438 10.7891 21.375 12.1953 21.375C14.4805 21.375 15.125 22.6055 15.125 23.25C15.125 24.9492 13.0742 25.418 13.0742 27.7617C13.0742 28.582 13.3672 29.2852 13.9531 29.7539C16.0039 31.5703 20.1641 30.1055 24.9102 30.1055C24.8516 29.9297 23.3281 25.0078 24.4414 23.543C25.4375 22.2539 27.3125 25.2422 29.8906 25.2422C32.3516 25.2422 33.875 22.8984 33.875 20.4375C33.875 17.9766 32.293 15.75 29.7734 15.75ZM29.8906 23.3672C28.1328 23.3672 27.4297 21.375 25.0859 21.375C21.9805 21.375 21.8633 25.1836 22.5078 28.2891C20.3398 28.5234 16.2383 29.2852 15.1836 28.3477C14.0117 27.293 17 25.8867 17 23.25C17 21.082 15.0078 19.5 12.1953 19.5C7.80078 19.5 6.21875 23.0156 8.91406 26.707C9.20703 27.0586 9.5 27.4102 9.5 27.5859C9.5 29.5781 3.93359 28.8164 2 28.4062V12C5.69141 12.7031 11.375 13.1133 11.375 9.30469C11.375 7.60547 9.61719 6.78516 9.61719 4.79297C9.61719 3.38672 11.2578 2.625 12.6641 2.625C13.8359 2.625 15.2422 3.21094 15.2422 4.73438C15.2422 6.43359 13.25 7.13672 13.25 9.42188C13.25 12.8203 19.1094 12.4102 22.5078 12C22.0391 15.1641 21.9805 19.5 25.2617 19.5C26.9609 19.5 27.7812 17.625 29.7734 17.625C31.2383 17.625 32 19.0312 32 20.4375C32 22.4883 30.7695 23.3672 29.8906 23.3672Z" fill="#5C7CFA"/>
</svg>
