<svg width="30" height="30" viewBox="0 0 30 30" fill="none" xmlns="http://www.w3.org/2000/svg">
<path d="M15 19.6719C14.0625 19.6719 13.3594 20.4336 13.3594 21.3125C13.3594 22.25 14.0625 22.9531 15 22.9531C15.8789 22.9531 16.6406 22.25 16.6406 21.3125C16.6406 20.4336 15.8789 19.6719 15 19.6719ZM15.4102 18.2656C15.8203 18.2656 16.1133 17.9727 16.1133 17.5625C16.1133 15.043 20.6836 15.2188 20.6836 11.293C20.6836 8.30469 17.9883 6.54688 14.9414 6.54688C12.3047 6.54688 10.8398 7.60156 9.60938 9.18359C9.375 9.53516 9.43359 9.94531 9.78516 10.1797L10.5469 10.7656C10.8398 10.9414 11.25 10.8828 11.4844 10.5898C12.3633 9.47656 13.2422 8.89062 14.9414 8.89062C17.2852 8.89062 18.3398 10.1211 18.3398 11.293C18.3398 13.8125 13.7695 13.4609 13.7695 17.5625C13.7695 17.9727 14.1211 18.2656 14.4727 18.2656H15.4102ZM15 2.09375C21.9141 2.09375 27.6562 7.77734 27.6562 14.75C27.6562 21.7812 21.9727 27.4062 15 27.4062C7.96875 27.4062 2.34375 21.7812 2.34375 14.75C2.34375 7.77734 7.96875 2.09375 15 2.09375ZM15 0.21875C6.97266 0.21875 0.46875 6.78125 0.46875 14.75C0.46875 22.7773 6.97266 29.2812 15 29.2812C22.9688 29.2812 29.5312 22.7773 29.5312 14.75C29.5312 6.78125 22.9688 0.21875 15 0.21875Z" fill="#589EB8"/>
</svg>
