<svg width="38" height="27" viewBox="0 0 38 27" fill="none" xmlns="http://www.w3.org/2000/svg">
<path d="M17.0664 13.457C17.2422 12.8711 17.418 12.2852 17.7109 11.6992C15.7188 11.1719 14.2539 9.35547 14.2539 7.1875C14.2539 4.60938 16.3633 2.5 18.9414 2.5C21.1094 2.5 22.9258 3.96484 23.4531 5.95703C24.0391 5.66406 24.625 5.48828 25.2109 5.3125C24.3906 2.61719 21.9297 0.625 19 0.625C15.3672 0.625 12.4375 3.61328 12.4375 7.1875C12.4375 10.1758 14.3711 12.6367 17.0664 13.457ZM5.875 11.875C8.45312 11.875 10.5625 9.82422 10.5625 7.1875C10.5625 4.60938 8.45312 2.5 5.875 2.5C3.23828 2.5 1.1875 4.60938 1.1875 7.1875C1.1875 9.82422 3.23828 11.875 5.875 11.875ZM5.875 4.375C7.39844 4.375 8.6875 5.66406 8.6875 7.1875C8.6875 8.76953 7.39844 10 5.875 10C4.29297 10 3.0625 8.76953 3.0625 7.1875C3.0625 5.66406 4.29297 4.375 5.875 4.375ZM9.44922 14.5117C8.74609 14.043 7.92578 13.75 7.04688 13.75H4.70312C2.24219 13.75 0.25 15.8594 0.25 18.4375C0.25 18.9648 0.660156 19.375 1.1875 19.375C1.65625 19.375 2.125 18.9648 2.125 18.4375C2.125 16.9141 3.23828 15.625 4.70312 15.625H7.04688C7.33984 15.625 7.63281 15.7422 7.92578 15.8594C8.39453 15.332 8.86328 14.9219 9.44922 14.5117ZM10.5625 25C10.0352 25 9.625 24.5898 9.625 24.0625V21.4844C9.625 20.4883 9.85938 19.5508 10.4453 18.7305C11.207 17.5586 12.6719 16.7969 14.2539 16.7969C15.1328 16.7969 15.3672 16.9727 16.6562 17.2656C16.6562 17.0312 16.5977 16.4453 16.7148 15.332C15.7188 15.0977 15.1328 14.9219 14.2539 14.9219C12.1445 14.9219 10.0938 15.918 8.86328 17.6758C8.16016 18.7891 7.69141 20.0781 7.69141 21.4844V24.0625C7.69141 25.6445 8.98047 26.875 10.5039 26.875H22.75C21.8125 26.4062 20.9922 25.7617 20.2305 25H10.5625ZM28.375 12.8125C26.2656 12.8125 24.5664 14.5117 24.5664 16.5625C24.5664 18.6719 26.2656 20.3711 28.375 20.3711C30.4258 20.3711 32.125 18.6719 32.125 16.5625C32.125 14.5117 30.4258 12.8125 28.375 12.8125ZM28.375 18.4961C27.3203 18.4961 26.4414 17.6172 26.4414 16.5625C26.4414 15.5664 27.3203 14.6875 28.375 14.6875C29.3711 14.6875 30.25 15.5664 30.25 16.5625C30.25 17.6172 29.3711 18.4961 28.375 18.4961ZM37.0469 17.9102L36.0508 17.3242C36.1094 16.8555 36.1094 16.3281 36.0508 15.8594L37.0469 15.2734C37.5742 14.9805 37.8672 14.2773 37.6328 13.6914C37.2227 12.3438 36.5195 11.0547 35.5234 10C35.0547 9.53125 34.3516 9.41406 33.8242 9.70703L32.8281 10.293C32.418 10 32.0078 9.70703 31.5391 9.53125V8.41797C31.5391 7.77344 31.1289 7.24609 30.4844 7.07031C29.0781 6.77734 27.6133 6.77734 26.207 7.07031C25.5625 7.24609 25.1523 7.77344 25.1523 8.41797V9.53125C24.6836 9.70703 24.2148 10 23.8047 10.293L22.8672 9.70703C22.2812 9.41406 21.6367 9.53125 21.168 10C20.1719 11.0547 19.4688 12.3438 19 13.6914C18.8242 14.2773 19.1172 14.9805 19.6445 15.2734L20.6406 15.8594C20.582 16.3281 20.582 16.8555 20.6406 17.3242L19.6445 17.9102C19.1172 18.2031 18.8242 18.9062 19 19.4922C19.4688 20.8398 20.1719 22.1289 21.168 23.1836C21.6367 23.6523 22.2812 23.7695 22.8672 23.4766L23.8047 22.8906C24.2148 23.1836 24.6836 23.4766 25.1523 23.6523V24.7656C25.1523 25.4102 25.5625 25.9375 26.207 26.1133C26.9102 26.2891 27.6133 26.3477 28.3164 26.3477C29.0781 26.3477 29.7812 26.2891 30.4844 26.1133C31.1289 25.9375 31.5391 25.4102 31.5391 24.7656V23.6523C32.0078 23.4766 32.418 23.1836 32.8281 22.8906L33.8242 23.4766C34.3516 23.7695 35.0547 23.6523 35.5234 23.1836C36.4609 22.1289 37.2227 20.8398 37.6328 19.4922C37.8672 18.9062 37.5742 18.2031 37.0469 17.9102ZM34 18.3203L35.7578 19.3164C35.4062 20.1367 34.9961 20.957 34.4102 21.6016L32.6523 20.6055C31.4219 21.7188 31.2461 21.8359 29.6641 22.3633V24.3555C28.7852 24.5312 27.9062 24.5312 27.0273 24.3555V22.3633C25.4453 21.7773 25.2695 21.6602 24.0391 20.6055L22.2812 21.6016C21.6953 20.957 21.2852 20.1367 20.9336 19.3164L22.6914 18.3203C22.3984 16.7383 22.3984 16.5039 22.6914 14.8633L20.9336 13.8672C21.2852 13.0469 21.6953 12.2266 22.2812 11.5234L24.0391 12.5195C25.2695 11.4648 25.4453 11.3477 27.0273 10.8203V8.82812C27.9062 8.65234 28.7852 8.65234 29.6641 8.82812V10.8203C31.2461 11.3477 31.4805 11.5234 32.6523 12.5195L34.4102 11.5234C34.9961 12.2266 35.4062 13.0469 35.7578 13.8672L34 14.8633C34.293 16.4453 34.293 16.6797 34 18.3203Z" fill="#589EB8"/>
</svg>
