<svg width="38" height="31" viewBox="0 0 38 31" fill="none" xmlns="http://www.w3.org/2000/svg">
<path d="M3.0625 28.875C2.53516 28.875 2.125 28.4648 2.125 27.9375V25.5352C2.125 22.1953 4.76172 19.5586 8.10156 19.5C9.27344 19.5 10.3867 20.4375 13.375 20.4375C16.3047 20.4375 17.4766 19.5 18.5898 19.5C18.7656 19.5 18.8828 19.5586 19.0586 19.5586C19.1758 19.0312 19.5273 18.2109 19.8203 17.8008C19.4688 17.7422 18.9414 17.6836 18.5898 17.625C16.8906 17.625 16.1289 18.5625 13.3164 18.5625C10.5625 18.5625 9.80078 17.625 8.10156 17.625C3.76562 17.625 0.25 21.1992 0.25 25.5352V27.9375C0.25 29.5195 1.48047 30.75 3.0625 30.75H19.9375C19.5859 30.3398 19.1758 29.4609 19.0586 28.875H3.0625ZM13.375 15.75C17.4766 15.75 20.875 12.4102 20.875 8.25C20.875 4.14844 17.4766 0.75 13.375 0.75C9.21484 0.75 5.875 4.14844 5.875 8.25C5.875 12.4102 9.21484 15.75 13.375 15.75ZM13.375 2.625C16.4219 2.625 19 5.20312 19 8.25C19 11.3555 16.4219 13.875 13.375 13.875C10.2695 13.875 7.75 11.3555 7.75 8.25C7.75 5.20312 10.2695 2.68359 13.375 2.625ZM29.3125 22.3125C28.2578 22.3125 27.4375 23.1914 27.4375 24.1875C27.4375 25.2422 28.2578 26.0625 29.3125 26.0625C30.3086 26.0625 31.1875 25.2422 31.1875 24.1875C31.1875 23.1914 30.3086 22.3125 29.3125 22.3125ZM34.9375 17.625H34V14.8125C34 12.2344 31.8906 10.125 29.3125 10.125C26.6758 10.125 24.625 12.2344 24.625 14.8125V17.625H23.6875C22.1055 17.625 20.875 18.9141 20.875 20.4375V27.9375C20.875 29.5195 22.1055 30.75 23.6875 30.75H34.9375C36.4609 30.75 37.75 29.5195 37.75 27.9375V20.4375C37.75 18.9141 36.4609 17.625 34.9375 17.625ZM26.5 14.8125C26.5 13.2891 27.7305 12 29.3125 12C30.8359 12 32.125 13.2891 32.125 14.8125V17.625H26.5V14.8125ZM35.875 27.9375C35.875 28.4648 35.4062 28.875 34.9375 28.875H23.6875C23.1602 28.875 22.75 28.4648 22.75 27.9375V20.4375C22.75 19.9688 23.1602 19.5 23.6875 19.5H34.9375C35.4062 19.5 35.875 19.9688 35.875 20.4375V27.9375Z" fill="#589EB8"/>
</svg>
