<svg width="24" height="31" viewBox="0 0 24 31" fill="none" xmlns="http://www.w3.org/2000/svg">
<path d="M23.25 9.1875C23.25 6.60938 21.1406 4.5 18.5625 4.5C15.9258 4.5 13.875 6.60938 13.875 9.1875C13.875 11.5312 15.5156 13.4062 17.6836 13.8164C17.625 14.8125 17.3906 15.6328 16.9219 16.1602C15.9258 17.4492 13.8164 17.625 11.6484 17.8594C9.94922 17.9766 8.25 18.1523 6.90234 18.8555C6.72656 18.9141 6.55078 19.0312 6.375 19.1484V10.0664C8.48438 9.59766 10.125 7.72266 10.125 5.4375C10.125 2.85938 8.01562 0.75 5.4375 0.75C2.80078 0.75 0.75 2.85938 0.75 5.4375C0.75 7.72266 2.33203 9.59766 4.5 10.0664V21.4922C2.33203 21.9023 0.75 23.8359 0.75 26.0625C0.75 28.6992 2.80078 30.75 5.4375 30.75C8.01562 30.75 10.125 28.6992 10.125 26.0625C10.125 23.9531 8.66016 22.1367 6.66797 21.5508C6.96094 21.0234 7.37109 20.7305 7.78125 20.4961C8.77734 19.9688 10.2422 19.8516 11.8242 19.7344C14.2852 19.5 16.8633 19.207 18.3867 17.332C19.1484 16.4531 19.5 15.2812 19.5586 13.7578C21.668 13.2891 23.25 11.4727 23.25 9.1875ZM2.625 5.4375C2.625 3.91406 3.85547 2.625 5.4375 2.625C6.96094 2.625 8.25 3.91406 8.25 5.4375C8.25 7.01953 6.96094 8.25 5.4375 8.25C3.85547 8.25 2.625 7.01953 2.625 5.4375ZM8.25 26.0625C8.25 27.6445 6.96094 28.875 5.4375 28.875C3.85547 28.875 2.625 27.6445 2.625 26.0625C2.625 24.5391 3.85547 23.3086 5.37891 23.25H5.4375C6.96094 23.3086 8.25 24.5391 8.25 26.0625ZM19.207 11.9414L18.5625 12C16.9805 12 15.75 10.7695 15.75 9.1875C15.75 7.66406 16.9805 6.375 18.5625 6.375C20.0859 6.375 21.375 7.66406 21.375 9.1875C21.375 10.5352 20.4375 11.6484 19.207 11.9414Z" fill="#589EB8"/>
</svg>
