<svg width="28" height="31" viewBox="0 0 28 31" fill="none" xmlns="http://www.w3.org/2000/svg">
<path d="M14 2.625C20.2109 2.625 25.25 4.32422 25.25 6.375V8.25C25.25 10.3594 20.2109 12 14 12C7.78906 12 2.75 10.3594 2.75 8.25V6.375C2.75 4.32422 7.78906 2.625 14 2.625ZM25.25 11.4141V13.875C25.25 15.9844 20.2109 17.625 14 17.625C7.78906 17.625 2.75 15.9844 2.75 13.875V11.4141C5.15234 13.1133 9.54688 13.875 14 13.875C18.3945 13.875 22.7891 13.1133 25.25 11.4141ZM25.25 17.0391V19.5C25.25 21.6094 20.2109 23.25 14 23.25C7.78906 23.25 2.75 21.6094 2.75 19.5V17.0391C5.15234 18.7383 9.54688 19.5 14 19.5C18.3945 19.5 22.7891 18.7383 25.25 17.0391ZM25.25 22.6641V25.125C25.25 27.2344 20.2109 28.875 14 28.875C7.78906 28.875 2.75 27.2344 2.75 25.125V22.6641C5.15234 24.3633 9.54688 25.125 14 25.125C18.3945 25.125 22.7891 24.3633 25.25 22.6641ZM14 0.75C9.37109 0.75 0.875 1.86328 0.875 6.375V25.125C0.875 29.6953 9.42969 30.75 14 30.75C18.5703 30.75 27.125 29.6953 27.125 25.125V6.375C27.125 1.86328 18.5117 0.75 14 0.75Z" fill="#D6336C"/>
</svg>
