<svg width="28" height="31" viewBox="0 0 28 31" fill="none" xmlns="http://www.w3.org/2000/svg">
<path d="M19.5664 19.3828L14 25.0078L8.375 19.3828C4.21484 19.6172 0.875 23.0156 0.875 27.2344C0.875 29.1094 2.39844 30.6328 4.27344 30.6328H23.668C25.543 30.6328 27.0664 29.1094 27.125 27.2344C27.125 23.0156 23.7266 19.6172 19.5664 19.3828ZM13.0625 28.7578H4.27344C3.39453 28.7578 2.75 28.1133 2.75 27.2344C2.75 24.4805 4.97656 21.8438 7.67188 21.375L13.0625 26.707V28.7578ZM23.668 28.7578H14.9375V26.707L20.2695 21.375C23.0234 21.8438 25.25 24.4805 25.25 27.2344C25.1914 28.1133 24.5469 28.7578 23.668 28.7578ZM14 18.4453C18.1016 18.4453 21.5 15.1055 21.5 10.9453V4.5C21.5 3.79688 20.9141 3.03516 20.2695 2.74219L15.2891 0.925781C14.9375 0.75 14.3516 0.632812 14 0.632812C13.5898 0.632812 13.0039 0.75 12.6523 0.925781L7.67188 2.74219C7.02734 3.03516 6.5 3.79688 6.5 4.5V10.9453C6.5 15.1055 9.83984 18.4453 14 18.4453ZM8.375 4.5L13.2969 2.625C13.4727 2.56641 13.7656 2.50781 14 2.50781C14.1758 2.50781 14.4688 2.56641 14.6445 2.625L19.625 4.5V9.07031H8.375V4.5ZM19.625 10.9453C19.625 14.0508 17.0469 16.5703 14 16.5703C10.8945 16.5703 8.375 14.0508 8.375 10.9453H19.625ZM16.0508 5.02734H14.7617V3.73828C14.7617 3.62109 14.6445 3.44531 14.4688 3.44531H13.4727C13.2969 3.44531 13.1797 3.62109 13.1797 3.73828V5.02734H11.9492C11.7734 5.02734 11.6562 5.14453 11.6562 5.32031V6.31641C11.6562 6.49219 11.7734 6.60938 11.9492 6.60938H13.1797V7.83984C13.1797 8.01562 13.2969 8.13281 13.4727 8.13281H14.4688C14.6445 8.13281 14.7617 8.01562 14.7617 7.83984V6.60938H16.0508C16.168 6.60938 16.3438 6.49219 16.3438 6.31641V5.32031C16.3438 5.14453 16.168 5.02734 16.0508 5.02734Z" fill="#82C91E"/>
</svg>
