<svg width="40" height="31" viewBox="0 0 40 31" fill="none" xmlns="http://www.w3.org/2000/svg">
<path d="M8.3125 0.375C4.19531 0.375 0.875 3.76172 0.875 7.8125V22.6875C0.875 26.8047 4.19531 30.125 8.3125 30.125C12.3633 30.125 15.75 26.8047 15.75 22.6875V7.8125C15.75 3.76172 12.3633 0.375 8.3125 0.375ZM13.625 22.6875C13.625 25.6758 11.2344 28 8.3125 28C5.32422 28 3 25.6758 3 22.6875V17.375H13.625V22.6875ZM13.625 15.25H3V7.8125C3 4.89062 5.32422 2.5 8.3125 2.5C11.2344 2.5 13.625 4.89062 13.625 7.8125V15.25ZM28.5 8.875C22.5898 8.875 17.875 13.6562 17.875 19.5C17.875 25.4102 22.5898 30.125 28.5 30.125C34.3438 30.125 39.125 25.4102 39.125 19.5C39.125 13.6562 34.3438 8.875 28.5 8.875ZM28.5 28C23.7852 28 20 24.2148 20 19.5C20 17.5742 20.6641 15.7812 21.793 14.3203L33.6797 26.207C32.2188 27.3359 30.4258 28 28.5 28ZM35.1406 24.7461L23.2539 12.8594C24.7148 11.7305 26.5078 11 28.5 11C33.1484 11 37 14.8516 37 19.5C37 21.4922 36.2695 23.2852 35.1406 24.7461Z" fill="#82C91E"/>
</svg>
