<svg width="30" height="30" viewBox="0 0 30 30" fill="none" xmlns="http://www.w3.org/2000/svg">
<path d="M15 0.21875C6.97266 0.21875 0.46875 6.78125 0.46875 14.75C0.46875 22.7773 6.97266 29.2812 15 29.2812C22.9688 29.2812 29.5312 22.7773 29.5312 14.75C29.5312 6.78125 22.9688 0.21875 15 0.21875ZM24.8438 6.89844L21.1523 10.5898C20.7422 9.88672 19.8633 9.00781 19.1602 8.59766L22.8516 4.90625C23.4961 5.375 24.375 6.25391 24.8438 6.89844ZM15 20.375C11.8945 20.375 9.375 17.8555 9.375 14.75C9.375 11.7031 11.8945 9.125 15 9.125C18.0469 9.125 20.625 11.7031 20.625 14.75C20.625 17.8555 18.0469 20.375 15 20.375ZM21.2695 3.79297L17.4023 7.66016C15.8203 7.13281 14.1211 7.13281 12.5391 7.66016L8.67188 3.79297C12.5391 1.56641 17.4023 1.56641 21.2695 3.79297ZM7.08984 4.90625L10.7812 8.59766C10.0781 9.00781 9.19922 9.88672 8.78906 10.5898L5.09766 6.89844C5.56641 6.25391 6.44531 5.375 7.08984 4.90625ZM3.98438 8.48047L7.85156 12.3477C7.32422 13.9297 7.32422 15.6289 7.85156 17.2109L3.98438 21.0781C1.75781 17.2109 1.75781 12.3477 3.98438 8.48047ZM5.09766 22.6602L8.78906 18.9688C9.19922 19.6719 10.0781 20.5508 10.7812 20.9609L7.08984 24.6523C6.44531 24.1836 5.56641 23.3047 5.09766 22.6602ZM8.67188 25.7656L12.5391 21.8984C14.1211 22.4258 15.8203 22.4258 17.4023 21.8984L21.2695 25.7656C17.4023 27.9922 12.5391 27.9922 8.67188 25.7656ZM22.8516 24.6523L19.1602 20.9609C19.8633 20.5508 20.7422 19.6719 21.1523 18.9688L24.8438 22.6602C24.375 23.3047 23.4961 24.1836 22.8516 24.6523ZM25.957 21.0781L22.0898 17.2109C22.6172 15.6289 22.6172 13.9297 22.0898 12.3477L25.957 8.48047C28.1836 12.3477 28.1836 17.2109 25.957 21.0781Z" fill="#589EB8"/>
</svg>
