<svg width="64" height="60" viewBox="0 0 64 60" fill="none" xmlns="http://www.w3.org/2000/svg">
<path fill-rule="evenodd" clip-rule="evenodd" d="M3.73291 0H55.2671C58.6105 0 60.2245 4.09845 57.9187 6.44042L42.6621 22.1621L40 19.5L55.3824 3.74715H3.73291L25.8684 26.2301V49.6498L33.2469 56.2073V47.5L36.9361 43.8107V56.2073C36.9361 59.486 33.1316 61.1254 30.7105 59.1347L23.332 52.5772C22.6403 51.8746 22.1791 50.7036 22.1791 49.7669V27.8694L1.08126 6.44042C-1.22452 4.09845 0.389528 0 3.73291 0ZM36.9361 32L33.2469 35.6893V26.2301L34.5 25L36.9361 27.6344V27.8694V32ZM58.4274 12.6576C59.4525 11.6325 61.1146 11.6325 62.1397 12.6576C63.1648 13.6828 63.1648 15.3448 62.1397 16.3699L48.6665 29.8431L62.3944 43.5709C63.4195 44.5961 63.4195 46.2581 62.3944 47.2832C61.3693 48.3083 59.7073 48.3083 58.6821 47.2832L44.9543 33.5553L32.3137 46.1959C31.2885 47.221 29.6265 47.221 28.6014 46.1959C27.5763 45.1708 27.5763 43.5088 28.6014 42.4836L41.242 29.8431L28.8561 17.4572C27.831 16.4321 27.831 14.7701 28.8561 13.7449C29.8813 12.7198 31.5433 12.7198 32.5684 13.7449L44.9543 26.1308L58.4274 12.6576Z" fill="#457B8F"/>
</svg>
