<svg width="44" height="31" viewBox="0 0 44 31" fill="none" xmlns="http://www.w3.org/2000/svg">
<path d="M36.875 13.125C39.7969 13.125 42.1875 10.8008 42.1875 7.8125C42.1875 4.89062 39.7969 2.5 36.875 2.5C33.8867 2.5 31.5625 4.89062 31.5625 7.8125C31.5625 10.8008 33.8867 13.125 36.875 13.125ZM36.875 4.625C38.6016 4.625 40.0625 6.08594 40.0625 7.8125C40.0625 9.60547 38.6016 11 36.875 11C35.082 11 33.6875 9.60547 33.6875 7.8125C33.6875 6.08594 35.082 4.625 36.875 4.625ZM22 15.25C26.0508 15.25 29.4375 11.9297 29.4375 7.8125C29.4375 3.76172 26.0508 0.375 22 0.375C17.8828 0.375 14.5625 3.76172 14.5625 7.8125C14.5625 11.9297 17.8828 15.25 22 15.25ZM22 2.5C24.9219 2.5 27.3125 4.89062 27.3125 7.8125C27.3125 10.8008 24.9219 13.125 22 13.125C19.0117 13.125 16.6875 10.8008 16.6875 7.8125C16.6875 4.89062 19.0117 2.5 22 2.5ZM38.2031 15.25H35.5469C34.4844 15.25 33.5547 15.582 32.7578 16.1133C33.4219 16.5781 33.9531 17.043 34.4844 17.6406C34.8164 17.5078 35.1484 17.375 35.5469 17.375H38.2031C39.7969 17.375 41.125 18.8359 41.125 20.5625C41.125 21.1602 41.5898 21.625 42.1875 21.625C42.7188 21.625 43.25 21.1602 43.25 20.5625C43.25 17.6406 40.9258 15.25 38.2031 15.25ZM7.125 13.125C10.0469 13.125 12.4375 10.8008 12.4375 7.8125C12.4375 4.89062 10.0469 2.5 7.125 2.5C4.13672 2.5 1.8125 4.89062 1.8125 7.8125C1.8125 10.8008 4.13672 13.125 7.125 13.125ZM7.125 4.625C8.85156 4.625 10.3125 6.08594 10.3125 7.8125C10.3125 9.60547 8.85156 11 7.125 11C5.33203 11 3.9375 9.60547 3.9375 7.8125C3.9375 6.08594 5.33203 4.625 7.125 4.625ZM27.3125 16.5781C25.0547 16.5781 24.5234 17.375 22 17.375C19.4102 17.375 18.8789 16.5781 16.6211 16.5781C14.2305 16.5781 11.9062 17.707 10.5117 19.6992C9.71484 20.9609 9.25 22.4219 9.25 24.0156V26.9375C9.25 28.7305 10.6445 30.125 12.4375 30.125H31.5625C33.2891 30.125 34.75 28.7305 34.75 26.9375V24.0156C34.75 22.4219 34.2188 20.9609 33.4219 19.6992C32.0273 17.707 29.7031 16.5781 27.3125 16.5781ZM32.625 26.9375C32.625 27.5352 32.0938 28 31.5625 28H12.4375C11.8398 28 11.375 27.5352 11.375 26.9375V24.0156C11.375 22.8867 11.6406 21.8242 12.3047 20.8945C13.168 19.5664 14.8281 18.7031 16.6211 18.7031C18.4805 18.7031 19.1445 19.5 22 19.5C24.8555 19.5 25.4531 18.7031 27.3125 18.7031C29.1055 18.7031 30.7656 19.5664 31.6289 20.8945C32.293 21.8242 32.5586 22.8867 32.5586 24.0156V26.9375H32.625ZM11.1758 16.1133C10.3789 15.582 9.44922 15.25 8.45312 15.25H5.79688C3.00781 15.25 0.75 17.6406 0.75 20.5625C0.75 21.1602 1.21484 21.625 1.8125 21.625C2.34375 21.625 2.875 21.1602 2.875 20.5625C2.875 18.8359 4.13672 17.375 5.79688 17.375H8.45312C8.78516 17.375 9.11719 17.5078 9.44922 17.6406C9.98047 17.043 10.5117 16.5781 11.1758 16.1133Z" fill="#82C91E"/>
</svg>
