<svg width="38" height="31" viewBox="0 0 38 31" fill="none" xmlns="http://www.w3.org/2000/svg">
<path d="M21.8125 4.5H6.8125C3.17969 4.5 0.25 7.48828 0.25 11.0625C0.25 14.0508 2.18359 16.5117 4.82031 17.332L0.601562 24.6562C-0.160156 26.0039 0.308594 27.7617 1.65625 28.5234L4.87891 30.3984C5.34766 30.6328 5.81641 30.75 6.28516 30.75C7.28125 30.75 8.21875 30.2812 8.74609 29.3438L12.2617 23.25H16.1875C17.7109 23.25 19 22.0195 19 20.4375V17.625H21.8125C22.2812 17.625 22.75 17.2148 22.75 16.6875V5.4375C22.75 4.96875 22.2812 4.5 21.8125 4.5ZM7.10547 28.4062C6.92969 28.6992 6.63672 28.875 6.28516 28.875C6.10938 28.875 5.93359 28.875 5.81641 28.7578L2.59375 26.8828C2.30078 26.707 2.18359 26.4727 2.125 26.3555C2.06641 26.1797 2.06641 25.8867 2.24219 25.5938L6.8125 17.625H13.3164L7.10547 28.4062ZM17.125 20.4375C17.125 20.9648 16.6562 21.375 16.1875 21.375H13.3164L15.4844 17.625H17.125V20.4375ZM20.875 15.75H6.8125C4.17578 15.75 2.125 13.6992 2.125 11.0625C2.125 8.48438 4.17578 6.375 6.8125 6.375H20.875V15.75ZM37.2812 27H26.9688C26.6758 27 26.5 27.2344 26.5 27.4688V30.2812C26.5 30.5742 26.6758 30.75 26.9688 30.75H37.2812C37.5156 30.75 37.75 30.5742 37.75 30.2812V27.4688C37.75 27.2344 37.5156 27 37.2812 27ZM37.2812 4.5H26.9688C26.6758 4.5 26.5 4.73438 26.5 4.96875V7.78125C26.5 8.07422 26.6758 8.25 26.9688 8.25H37.2812C37.5156 8.25 37.75 8.07422 37.75 7.78125V4.96875C37.75 4.73438 37.5156 4.5 37.2812 4.5ZM37.2812 21.375H26.9688C26.6758 21.375 26.5 21.6094 26.5 21.8438V22.7812C26.5 23.0742 26.6758 23.25 26.9688 23.25H37.2812C37.5156 23.25 37.75 23.0742 37.75 22.7812V21.8438C37.75 21.6094 37.5156 21.375 37.2812 21.375ZM37.2812 10.125H26.9688C26.6758 10.125 26.5 10.3594 26.5 10.5938V13.4062C26.5 13.6992 26.6758 13.875 26.9688 13.875H37.2812C37.5156 13.875 37.75 13.6992 37.75 13.4062V10.5938C37.75 10.3594 37.5156 10.125 37.2812 10.125ZM37.2812 0.75H26.9688C26.6758 0.75 26.5 0.984375 26.5 1.21875V2.15625C26.5 2.44922 26.6758 2.625 26.9688 2.625H37.2812C37.5156 2.625 37.75 2.44922 37.75 2.15625V1.21875C37.75 0.984375 37.5156 0.75 37.2812 0.75ZM37.2812 17.625H26.9688C26.6758 17.625 26.5 17.8594 26.5 18.0938V19.0312C26.5 19.3242 26.6758 19.5 26.9688 19.5H37.2812C37.5156 19.5 37.75 19.3242 37.75 19.0312V18.0938C37.75 17.8594 37.5156 17.625 37.2812 17.625Z" fill="#FF9900"/>
</svg>
