<svg width="26" height="35" viewBox="0 0 26 35" fill="none" xmlns="http://www.w3.org/2000/svg">
<path d="M13 6.625C9.48047 6.625 6.625 9.54688 6.625 13C6.625 16.5195 9.48047 19.375 13 19.375C16.4531 19.375 19.375 16.5195 19.375 13C19.375 9.54688 16.4531 6.625 13 6.625ZM13 17.25C10.6094 17.25 8.75 15.3906 8.75 13C8.75 10.6758 10.6094 8.75 13 8.75C15.3242 8.75 17.25 10.6758 17.25 13C17.25 15.3906 15.3242 17.25 13 17.25ZM13 0.25C5.89453 0.25 0.25 5.96094 0.25 13C0.25 18.1797 1.97656 19.6406 11.6719 33.5859C12.2695 34.5156 13.6641 34.5156 14.2617 33.5859C23.957 19.6406 25.75 18.1797 25.75 13C25.75 5.96094 20.0391 0.25 13 0.25ZM13 31.7266C3.70312 18.3789 2.375 17.3164 2.375 13C2.375 10.2109 3.4375 7.55469 5.42969 5.49609C7.48828 3.50391 10.1445 2.375 13 2.375C15.7891 2.375 18.4453 3.50391 20.5039 5.49609C22.4961 7.55469 23.625 10.2109 23.625 13C23.625 17.3164 22.2305 18.3789 13 31.7266Z" fill="#82C91E"/>
</svg>
