<svg width="38" height="31" viewBox="0 0 38 31" fill="none" xmlns="http://www.w3.org/2000/svg">
<path d="M37.457 26.8242L34.4102 19.9688C35.582 18.6797 35.875 17.0977 35.582 15.6914L34.4688 11.0039C34.1758 9.71484 33.3555 8.66016 32.2422 8.01562C33.6484 6.60938 33.8828 4.44141 32.8867 2.80078C32.0078 1.39453 30.543 0.75 29.3125 0.75C27.3203 0.75 25.6797 2.09766 25.2109 3.97266C24.9766 4.79297 24.8008 7.01953 26.9102 8.48438C25.9141 9.24609 25.0938 10.2422 24.625 11.4141V10.125C24.625 9.65625 24.1562 9.1875 23.6875 9.1875H14.3125C13.7852 9.1875 13.375 9.65625 13.375 10.125V11.4141C12.8477 10.2422 12.0859 9.24609 11.0312 8.48438C13.1406 7.01953 12.9648 4.85156 12.7305 3.97266C12.3203 2.09766 10.6211 0.75 8.6875 0.75C7.39844 0.75 5.93359 1.39453 5.05469 2.80078C4.05859 4.44141 4.29297 6.60938 5.69922 8.01562C4.58594 8.66016 3.76562 9.71484 3.47266 11.0039L2.41797 15.6914C2.06641 17.0977 2.35938 18.6211 3.53125 19.9102L0.484375 26.8242C-0.160156 28.2305 0.484375 29.8711 1.89062 30.5156C3.58984 31.2773 5.11328 30.2227 5.58203 29.1094L7.33984 25.1836L7.75 28.2891C7.80859 28.8164 8.51172 31.043 10.8555 30.75C12.4375 30.5156 13.5508 29.1094 13.3164 27.5859L12.7305 22.8398C12.6133 22.0781 12.3203 21.375 11.793 20.7891L9.39062 18.0938L9.625 17.0977C9.91797 17.4492 10.2109 17.7422 10.6211 18.0352C10.7383 18.0938 10.4453 17.918 13.4336 19.793C13.5508 20.2031 13.9023 20.4375 14.3125 20.4375H23.6875C24.0977 20.4375 24.3906 20.2031 24.5078 19.793C27.4961 17.918 27.2617 18.0938 27.3203 18.0352C27.7305 17.7422 28.0234 17.4492 28.3164 17.0977L28.5508 18.0938L26.1484 20.7891C25.6211 21.375 25.3281 22.0781 25.2109 22.8398L24.625 27.5859C24.4492 29.1094 25.5039 30.5156 27.0859 30.75C29.4297 31.043 30.1328 28.8164 30.1914 28.2891L30.6016 25.1836L32.3594 29.1094C32.8281 30.2227 34.3516 31.2773 36.0508 30.5156C37.457 29.8711 38.1016 28.2305 37.457 26.8242ZM27.0273 4.44141C27.2617 3.38672 28.2578 2.625 29.3125 2.625C30.7188 2.625 31.9492 3.97266 31.5391 5.55469C31.3047 6.60938 30.3672 7.3125 29.3125 7.3125C27.8477 7.3125 26.6172 6.02344 27.0273 4.44141ZM8.6875 2.625C9.74219 2.625 10.6797 3.38672 10.9141 4.44141C11.3242 6.02344 10.0938 7.3125 8.6875 7.3125C7.63281 7.3125 6.63672 6.60938 6.40234 5.55469C5.99219 3.97266 7.28125 2.625 8.6875 2.625ZM3.88281 28.3477C3.70703 28.8164 3.12109 29.0508 2.65234 28.8164C2.18359 28.582 1.94922 28.0547 2.18359 27.5859L4.87891 21.4922L6.22656 23.0156L3.88281 28.3477ZM16.0117 18.1523C15.7188 18.6211 15.1328 18.6797 14.7227 18.4453L11.7344 16.5117C11.207 16.1602 10.8555 15.6914 10.6797 15.1055L10.0352 13.1133C9.85938 12.7617 9.68359 12.4102 9.44922 12.1172C9.33203 11.9414 8.98047 12 8.92188 12.2344L7.33984 18.5625L10.3867 22.0781C10.6211 22.3711 10.7969 22.7227 10.8555 23.0742L11.5 27.8203C11.5586 28.3477 11.207 28.8164 10.6797 28.875C9.85938 28.9922 9.625 28.2305 9.625 28.0547L9.09766 23.8945C9.03906 23.4844 8.86328 23.1328 8.62891 22.8984L4.87891 18.6211C4.23438 17.918 4 16.9805 4.23438 16.1016L5.28906 11.4141C5.52344 10.5352 6.10938 9.77344 6.92969 9.42188C8.27734 8.83594 9.39062 9.53906 9.39062 9.59766C10.5625 10.2422 11.3828 11.2969 11.793 12.5273L12.4961 14.5781C12.6133 14.7539 12.6719 14.8711 12.7891 14.9883L15.7188 16.8633C16.1875 17.1562 16.3047 17.6836 16.0117 18.1523ZM20.0547 18.5625H17.8867C18.2969 17.3906 17.8867 15.9844 16.7148 15.2812L15.25 14.3438V11.0625H22.75V14.2852L21.2266 15.2812C20.1133 15.9844 19.6445 17.3906 20.0547 18.5625ZM29.3125 22.8398C29.0781 23.1328 28.9609 23.4844 28.9023 23.8945L28.3164 28.0547C28.3164 28.2305 28.082 28.9922 27.2617 28.875C26.793 28.8164 26.4414 28.3477 26.5 27.8203L27.0859 23.0742C27.1445 22.6641 27.3203 22.3125 27.5547 22.0781L30.6016 18.5625L29.0195 12.2344C28.9609 12 28.668 11.9414 28.4922 12.1172C28.3164 12.4102 28.082 12.7617 27.9648 13.1133L27.2617 15.1055C27.0859 15.6914 26.7344 16.1602 26.207 16.5117L23.2188 18.4453C22.8086 18.6797 22.2227 18.6211 21.9297 18.1523C21.6953 17.6836 21.8125 17.1562 22.2227 16.8633L25.1523 14.9883C25.2695 14.8711 25.3867 14.7539 25.5039 14.5781L26.1484 12.5273C26.5586 11.2969 27.4375 10.2422 28.5508 9.59766C28.6094 9.53906 29.6641 8.83594 31.0117 9.42188C31.832 9.77344 32.4766 10.5352 32.6523 11.4141L33.7656 16.1016C33.9414 16.9805 33.707 17.918 33.1211 18.6211L29.3125 22.8398ZM35.2891 28.8164C34.8203 29.0508 34.293 28.8164 34.0586 28.3477L31.7148 23.0156L33.0625 21.4922L35.7578 27.5859C35.9922 28.0547 35.7578 28.582 35.2891 28.8164Z" fill="#FF9900"/>
</svg>
