<svg width="24" height="31" viewBox="0 0 24 31" fill="none" xmlns="http://www.w3.org/2000/svg">
<path d="M19.0312 25.125H14.3438C14.0508 25.125 13.875 25.3594 13.875 25.5938V26.5312C13.875 26.8242 14.0508 27 14.3438 27H19.0312C19.2656 27 19.5 26.8242 19.5 26.5312V25.5938C19.5 25.3594 19.2656 25.125 19.0312 25.125ZM4.5 14.8125V20.4375C4.5 20.9648 4.96875 21.375 5.55469 21.375H18.3867C18.9727 21.375 19.5 20.9648 19.5 20.4375V14.8125C19.5 14.3438 18.9727 13.875 18.3867 13.875H5.55469C4.96875 13.875 4.5 14.3438 4.5 14.8125ZM6.375 15.75H17.625V19.5H6.375V15.75ZM4.96875 6.375H11.5312C11.7656 6.375 12 6.19922 12 5.90625V4.96875C12 4.73438 11.7656 4.5 11.5312 4.5H4.96875C4.67578 4.5 4.5 4.73438 4.5 4.96875V5.90625C4.5 6.19922 4.67578 6.375 4.96875 6.375ZM4.96875 10.125H11.5312C11.7656 10.125 12 9.94922 12 9.65625V8.71875C12 8.48438 11.7656 8.25 11.5312 8.25H4.96875C4.67578 8.25 4.5 8.48438 4.5 8.71875V9.65625C4.5 9.94922 4.67578 10.125 4.96875 10.125ZM22.3711 6.49219L17.5078 1.62891C16.9805 1.10156 16.2188 0.75 15.5156 0.75H3.50391C1.98047 0.808594 0.75 2.03906 0.75 3.62109V27.9961C0.75 29.5195 1.98047 30.75 3.50391 30.75H20.4375C21.9609 30.75 23.25 29.5195 23.25 27.9961V8.48438C23.25 7.78125 22.8984 7.01953 22.3711 6.49219ZM15.75 2.68359C15.8672 2.74219 16.043 2.80078 16.1602 2.91797L21.082 7.83984C21.1992 7.95703 21.2578 8.13281 21.3164 8.30859H15.75V2.68359ZM21.375 27.9961C21.375 28.4648 20.9062 28.9336 20.4375 28.9336H3.50391C3.03516 28.9336 2.56641 28.4648 2.56641 27.9961V3.62109C2.56641 3.09375 3.03516 2.625 3.50391 2.625H13.875V8.77734C13.875 9.53906 14.4609 10.125 15.2812 10.125H21.375V27.9961Z" fill="#5C7CFA"/>
</svg>
