<svg width="28" height="31" viewBox="0 0 28 31" fill="none" xmlns="http://www.w3.org/2000/svg">
<path d="M26.2461 4.61719L23.2578 1.62891C22.7891 1.16016 21.9102 0.808594 21.2656 0.75H11.1875C9.60547 0.75 8.375 2.03906 8.375 3.5625V6.375H3.6875C2.10547 6.375 0.875 7.66406 0.875 9.1875V27.9375C0.875 29.5195 2.10547 30.75 3.6875 30.75H16.8125C18.3359 30.75 19.625 29.5195 19.625 27.9375V25.125H24.3125C25.8359 25.125 27.125 23.8945 27.125 22.3125V6.60938C27.0664 5.96484 26.7148 5.08594 26.2461 4.61719ZM21.5 2.68359C21.6172 2.74219 21.793 2.80078 21.9102 2.91797L24.957 5.96484C25.0742 6.08203 25.1328 6.25781 25.1914 6.375H21.5V2.68359ZM17.75 27.9375C17.75 28.4648 17.2812 28.875 16.8125 28.875H3.6875C3.16016 28.875 2.75 28.4648 2.75 27.9375V9.1875C2.75 8.71875 3.16016 8.25 3.6875 8.25H8.375V22.3125C8.375 23.8945 9.60547 25.125 11.1875 25.125H17.75V27.9375ZM25.25 22.3125C25.25 22.8398 24.7812 23.25 24.3125 23.25H11.1875C10.6602 23.25 10.25 22.8398 10.25 22.3125V3.5625C10.25 3.09375 10.6602 2.625 11.1875 2.625H19.625V6.84375C19.625 7.66406 20.2109 8.25 21.0312 8.25H25.25V22.3125ZM19.2734 11.4727C19.2734 11.2383 19.0977 11.0625 18.9219 11.0625H16.5781C16.3438 11.0625 16.168 11.2383 16.168 11.4727V14.2266H13.4141C13.1797 14.2266 13.0625 14.4023 13.0625 14.5781V16.9219C13.0625 17.1562 13.1797 17.332 13.4141 17.332H16.168V20.0859C16.168 20.3203 16.3438 20.4375 16.5781 20.4375H18.9219C19.0977 20.4375 19.2734 20.3203 19.2734 20.0859V17.332H22.0273C22.2617 17.332 22.4375 17.1562 22.4375 16.9219V14.5781C22.4375 14.4023 22.2617 14.2266 22.0273 14.2266H19.2734V11.4727Z" fill="#D6336C"/>
</svg>
