<svg width="24" height="31" viewBox="0 0 24 31" fill="none" xmlns="http://www.w3.org/2000/svg">
<path d="M8.71875 19.5H7.78125C7.48828 19.5 7.3125 19.7344 7.3125 19.9688V25.5938C7.3125 25.8867 7.48828 26.0625 7.78125 26.0625H8.71875C8.95312 26.0625 9.1875 25.8867 9.1875 25.5938V19.9688C9.1875 19.7344 8.95312 19.5 8.71875 19.5ZM12.4688 13.875H11.5312C11.2383 13.875 11.0625 14.1094 11.0625 14.3438V25.5938C11.0625 25.8867 11.2383 26.0625 11.5312 26.0625H12.4688C12.7031 26.0625 12.9375 25.8867 12.9375 25.5938V14.3438C12.9375 14.1094 12.7031 13.875 12.4688 13.875ZM14.8125 18.0938V25.5938C14.8125 25.8867 14.9883 26.0625 15.2812 26.0625H16.2188C16.4531 26.0625 16.6875 25.8867 16.6875 25.5938V18.0938C16.6875 17.8594 16.4531 17.625 16.2188 17.625H15.2812C14.9883 17.625 14.8125 17.8594 14.8125 18.0938ZM22.3711 6.49219L17.5078 1.62891C16.9805 1.10156 16.2188 0.75 15.5156 0.75H3.50391C1.98047 0.808594 0.75 2.03906 0.75 3.62109V27.9961C0.75 29.5195 1.98047 30.75 3.50391 30.75H20.4375C21.9609 30.75 23.25 29.5195 23.25 27.9961V8.48438C23.25 7.78125 22.8984 7.01953 22.3711 6.49219ZM15.75 2.68359C15.8672 2.74219 16.043 2.80078 16.1602 2.91797L21.082 7.83984C21.1992 7.95703 21.2578 8.13281 21.3164 8.30859H15.75V2.68359ZM21.375 27.9961C21.375 28.4648 20.9062 28.9336 20.4375 28.9336H3.50391C3.03516 28.9336 2.56641 28.4648 2.56641 27.9961V3.62109C2.56641 3.09375 3.03516 2.625 3.50391 2.625H13.875V8.77734C13.875 9.53906 14.4609 10.125 15.2812 10.125H21.375V27.9961Z" fill="#22B8CF"/>
</svg>
