<svg width="34" height="31" viewBox="0 0 34 31" fill="none" xmlns="http://www.w3.org/2000/svg">
<path d="M9.5 12H12.3125V14.8125C12.3125 15.3398 12.7227 15.75 13.25 15.75H18.875C19.3438 15.75 19.8125 15.3398 19.8125 14.8125V12H22.625C23.0938 12 23.5625 11.5898 23.5625 11.0625V5.4375C23.5625 4.96875 23.0938 4.5 22.625 4.5H19.8125V1.6875C19.8125 1.21875 19.3438 0.75 18.875 0.75H13.25C12.7227 0.75 12.3125 1.21875 12.3125 1.6875V4.5H9.5C8.97266 4.5 8.5625 4.96875 8.5625 5.4375V11.0625C8.5625 11.5898 8.97266 12 9.5 12ZM10.4375 6.375H14.1875V2.625H17.9375V6.375H21.6875V10.125H17.9375V13.875H14.1875V10.125H10.4375V6.375ZM32.8203 20.3203C32.293 19.9102 31.4141 19.5586 30.7695 19.5586C30.125 19.5586 29.1875 19.8516 28.7188 20.2617L25.0859 23.1328C25.0273 23.1914 24.8516 23.25 24.7344 23.25H22.2734C22.4492 22.8984 22.625 22.2539 22.625 21.8438C22.625 21.7266 22.5664 21.4922 22.5664 21.375C22.332 19.7344 20.8086 18.5625 19.168 18.5625H10.7305C9.67578 18.5625 8.15234 19.0898 7.33203 19.7344L5.10547 21.375H0.59375C0.300781 21.375 0.125 21.6094 0.125 21.8438V22.7812C0.125 23.0742 0.300781 23.25 0.59375 23.25H5.75L8.44531 21.1992C9.03125 20.7891 10.0273 20.4375 10.7305 20.4375H19.3438C20.1055 20.4375 20.75 21.082 20.75 21.8438C20.75 22.6641 20.1055 23.25 19.3438 23.25H14.1875C13.6602 23.25 13.25 23.7188 13.25 24.1875C13.25 24.7148 13.6602 25.125 14.1875 25.125H24.7344C25.2031 25.125 25.9062 24.8906 26.2578 24.5977L29.8906 21.7266C30.125 21.5508 30.4766 21.4336 30.7695 21.4336C31.0039 21.4336 31.3555 21.5508 31.5312 21.7266C31.7656 21.9023 32 22.3711 32 22.6641C32 23.0156 31.7656 23.4258 31.5312 23.6016L25.6133 28.3477C25.2031 28.6406 24.5 28.875 24.0312 28.875H0.59375C0.300781 28.875 0.125 29.1094 0.125 29.3438V30.2812C0.125 30.5742 0.300781 30.75 0.59375 30.75H24.0312C24.8516 30.75 26.082 30.3398 26.7852 29.8125L32.7031 25.0664C33.3477 24.5977 33.875 23.4844 33.875 22.6641C33.875 21.9023 33.4062 20.8477 32.8203 20.3203Z" fill="#D6336C"/>
</svg>
