<svg width="38" height="29" viewBox="0 0 38 29" fill="none" xmlns="http://www.w3.org/2000/svg">
<path d="M17.5938 10H14.3125V6.71875C14.3125 6.48438 14.0781 6.25 13.8438 6.25H11.0312C10.7383 6.25 10.5625 6.48438 10.5625 6.71875V10H7.28125C6.98828 10 6.8125 10.2344 6.8125 10.4688V13.2812C6.8125 13.5742 6.98828 13.75 7.28125 13.75H10.5625V17.0312C10.5625 17.3242 10.7383 17.5 11.0312 17.5H13.8438C14.0781 17.5 14.3125 17.3242 14.3125 17.0312V13.75H17.5938C17.8281 13.75 18.0625 13.5742 18.0625 13.2812V10.4688C18.0625 10.2344 17.8281 10 17.5938 10ZM37.2812 21.25H35.875V14.9219C35.875 13.9844 35.4648 12.9883 34.7617 12.2852L29.8398 7.36328C29.1367 6.66016 28.1992 6.25 27.2031 6.25H24.625V3.37891C24.625 1.85547 23.2773 0.625 21.6953 0.625H3.12109C1.53906 0.625 0.25 1.85547 0.25 3.37891V20.4297C0.25 21.9531 1.53906 23.125 3.12109 23.125H4.05859C4 23.4766 4 23.7695 4 24.0625C4 26.6992 6.05078 28.75 8.6875 28.75C11.2656 28.75 13.375 26.6992 13.375 24.0625C13.375 23.7695 13.3164 23.4766 13.2578 23.125H24.6836C24.625 23.4766 24.625 23.7695 24.625 24.0625C24.625 26.6992 26.6758 28.75 29.3125 28.75C31.8906 28.75 34 26.6992 34 24.0625C34 23.7695 33.9414 23.4766 33.8828 23.125H37.2812C37.5156 23.125 37.75 22.9492 37.75 22.6562V21.7188C37.75 21.4844 37.5156 21.25 37.2812 21.25ZM8.6875 26.875C7.10547 26.875 5.875 25.6445 5.875 24.0625C5.875 22.5391 7.10547 21.25 8.6875 21.25C10.2109 21.25 11.5 22.5391 11.5 24.0625C11.5 25.6445 10.2109 26.875 8.6875 26.875ZM22.75 21.25H12.3789C11.5586 20.1367 10.2109 19.375 8.6875 19.375C7.16406 19.375 5.81641 20.1367 4.9375 21.25H3.12109C2.53516 21.25 2.125 20.8984 2.125 20.4297V3.37891C2.125 2.91016 2.53516 2.5 3.12109 2.5H21.6953C22.2812 2.5 22.75 2.91016 22.75 3.37891V21.25ZM24.625 8.125H27.2031C27.6719 8.125 28.1406 8.35938 28.4922 8.71094L33.4141 13.6328C33.4727 13.6914 33.4727 13.75 33.5312 13.8086H24.625V8.125ZM29.3125 26.875C27.7305 26.875 26.5 25.6445 26.5 24.0625C26.5 22.5391 27.7305 21.25 29.3125 21.25C30.8359 21.25 32.125 22.5391 32.125 24.0625C32.125 25.6445 30.8359 26.875 29.3125 26.875ZM34 21.25H33.0039C32.1836 20.1367 30.8359 19.375 29.3125 19.375C27.7891 19.375 26.4414 20.1367 25.5625 21.25H24.625V15.625H34V21.25Z" fill="#D6336C"/>
</svg>
