<svg width="24" height="31" viewBox="0 0 24 31" fill="none" xmlns="http://www.w3.org/2000/svg">
<path d="M22.3711 6.49219L17.5078 1.57031C16.9805 1.04297 16.2188 0.75 15.5156 0.75H3.5625C1.98047 0.75 0.75 2.03906 0.75 3.5625V27.9375C0.75 29.5195 1.98047 30.75 3.5625 30.75H20.4375C21.9609 30.75 23.25 29.5195 23.25 27.9375V8.48438C23.25 7.78125 22.8984 7.01953 22.3711 6.49219ZM21.082 7.83984C21.1992 7.95703 21.2578 8.13281 21.3164 8.25H15.75V2.68359C15.8672 2.74219 16.043 2.80078 16.1602 2.91797L21.082 7.83984ZM20.4375 28.875H3.5625C3.03516 28.875 2.625 28.4648 2.625 27.9375V3.5625C2.625 3.09375 3.03516 2.625 3.5625 2.625H13.875V8.71875C13.875 9.53906 14.4609 10.125 15.2812 10.125H21.375V27.9375C21.375 28.4648 20.9062 28.875 20.4375 28.875ZM11.2969 12C10.8867 12 10.5938 12.3516 10.5938 12.7617L11.0039 19.793C11.0039 20.1445 11.2969 20.4375 11.707 20.4375H12.2344C12.6445 20.4375 12.9375 20.2031 12.9375 19.793L13.3477 12.7617C13.3477 12.3516 13.0547 12 12.6445 12H11.2969ZM13.6406 23.25C13.6406 22.3711 12.8789 21.6094 12 21.6094C11.0625 21.6094 10.3594 22.3711 10.3594 23.25C10.3594 24.1875 11.0625 24.8906 12 24.8906C12.8789 24.8906 13.6406 24.1875 13.6406 23.25Z" fill="#FF9900"/>
</svg>
