<svg width="30" height="31" viewBox="0 0 30 31" fill="none" xmlns="http://www.w3.org/2000/svg">
<path d="M29.707 23.7188C29.6484 23.4844 29.4141 23.3086 29.1211 23.4258L27.9492 23.7188L25.5469 14.8125C25.3125 13.8164 24.2578 13.2305 23.2617 13.5234L15.8203 15.5156C15.8789 15.2812 15.9375 15.0469 15.9375 14.8125C15.9375 13.4648 14.8828 12.293 13.5938 12.0586L12.1875 6.72656C12.0703 6.49219 11.8359 6.375 11.6016 6.43359L10.6641 6.66797C10.4297 6.72656 10.2539 6.96094 10.3711 7.25391L11.6016 12H11.4258L8.14453 8.71875C7.96875 8.54297 7.85156 8.48438 7.67578 8.30859C8.08594 8.01562 8.4375 7.60547 8.73047 7.19531C9.31641 6.19922 9.49219 5.08594 9.19922 3.97266C8.78906 2.09766 7.08984 0.75 5.15625 0.75C3.86719 0.75 2.40234 1.39453 1.52344 2.80078C0.9375 3.79688 0.761719 4.91016 1.05469 6.02344C1.23047 6.78516 1.64062 7.48828 2.22656 8.01562C0.878906 8.89453 0 10.3594 0 12V27.9375C0 29.5195 1.23047 30.75 2.8125 30.75C4.33594 30.75 5.625 29.5195 5.625 27.9375V24.0703L5.80078 24.3047L6.5625 28.4648C6.85547 29.8711 8.20312 31.043 9.84375 30.75C10.6055 30.5742 11.25 30.1641 11.6602 29.5781C12.0703 28.9336 12.2461 28.1719 12.1289 27.4688L11.3086 22.957C11.0742 21.9023 10.5469 20.9062 9.66797 20.2031L7.5 18.3281V15.9844L9.14062 17.625H13.125L14.8242 23.8945C13.7695 24.5391 13.125 25.7109 13.125 27C13.125 29.1094 14.7656 30.75 16.875 30.75C18.6914 30.75 20.2148 29.4023 20.5078 27.6445L29.6484 25.1836C29.8828 25.125 30 24.8906 29.9414 24.6562L29.707 23.7188ZM5.15625 2.625C6.21094 2.625 7.14844 3.38672 7.38281 4.44141C7.79297 6.02344 6.5625 7.3125 5.15625 7.3125C4.10156 7.3125 3.10547 6.60938 2.87109 5.55469C2.46094 3.97266 3.75 2.625 5.15625 2.625ZM3.75 27.9375C3.75 28.4648 3.28125 28.875 2.8125 28.875C2.28516 28.875 1.875 28.4648 1.875 27.9375V20.9062L3.75 22.4883V27.9375ZM9.90234 15.75L6.38672 12.293C6.32812 12.1758 6.21094 12.1172 6.09375 12.1172C5.85938 12.1172 5.625 12.3516 5.625 12.5859V19.1484L8.49609 21.6094C8.96484 22.0781 9.31641 22.6641 9.43359 23.3086L10.2539 27.8203C10.3711 28.2891 10.0195 28.8164 9.55078 28.875C9.49219 28.875 9.43359 28.875 9.375 28.875C8.90625 28.875 8.49609 28.582 8.4375 28.1133L7.61719 23.6602C7.55859 23.4258 7.44141 23.1914 7.26562 23.0742L2.8125 19.2656C2.22656 18.7383 1.875 17.9766 1.875 17.0977V12C1.875 10.5352 3.04688 9.24609 4.51172 9.1875H4.6875C5.56641 9.1875 6.26953 9.53906 6.79688 10.0664L10.6641 13.875H13.125C13.5938 13.875 14.0625 14.3438 14.0625 14.8125C14.0625 15.3398 13.5938 15.75 13.125 15.75H9.90234ZM16.875 28.875C15.8203 28.875 15 28.0547 15 27C15 26.0039 15.8203 25.125 16.875 25.125C17.8711 25.125 18.75 26.0039 18.75 27C18.75 28.0547 17.8711 28.875 16.875 28.875ZM20.3906 25.7695C19.8633 24.3047 18.457 23.25 16.875 23.25C16.7578 23.25 16.6992 23.3086 16.582 23.3086L15.0586 17.625L23.7305 15.2812L26.1328 24.1875L20.3906 25.7695Z" fill="#FF9900"/>
</svg>
