<svg width="30" height="31" viewBox="0 0 30 31" fill="none" xmlns="http://www.w3.org/2000/svg">
<path d="M25.3125 12H24.375V7.19531C24.375 6.66797 24.1406 6.19922 23.7891 5.84766L19.2773 1.33594C18.9258 0.984375 18.457 0.75 17.9297 0.75H7.38281C6.38672 0.75 5.625 1.62891 5.625 2.625V12H4.6875C2.05078 12 0 14.1094 0 16.6875V22.3125C0 22.8398 0.410156 23.25 0.9375 23.25H5.625V29.8125C5.625 30.3398 6.03516 30.75 6.5625 30.75H23.4375C23.9062 30.75 24.375 30.3398 24.375 29.8125V23.25H29.0625C29.5312 23.25 30 22.8398 30 22.3125V16.6875C30 14.1094 27.8906 12 25.3125 12ZM18.75 3.44531L21.6797 6.375H18.75V3.44531ZM7.5 2.625H16.875V6.375C16.875 7.42969 17.6953 8.25 18.75 8.25H22.5V12H7.5V2.625ZM22.5 28.875H7.5V23.25H22.5V28.875ZM28.125 21.375H1.875V16.6875C1.875 15.1641 3.10547 13.875 4.6875 13.875H25.3125C26.8359 13.875 28.125 15.1641 28.125 16.6875V21.375ZM23.4375 16.2188C22.6172 16.2188 22.0312 16.8633 22.0312 17.625C22.0312 18.4453 22.6172 19.0312 23.4375 19.0312C24.1992 19.0312 24.8438 18.4453 24.8438 17.625C24.8438 16.8633 24.1992 16.2188 23.4375 16.2188Z" fill="#589EB8"/>
</svg>
