<svg width="30" height="35" viewBox="0 0 30 35" fill="none" xmlns="http://www.w3.org/2000/svg">
<path d="M29.875 26.2812V1.84375C29.875 0.980469 29.1445 0.25 28.2812 0.25H5.4375C2.44922 0.25 0.125 2.64062 0.125 5.5625V30C0.125 32.3906 1.98438 34.25 4.375 34.25H29.0781C29.4766 34.25 29.875 33.918 29.875 33.4531V32.9219C29.875 32.5234 29.4766 32.125 29.0781 32.125H28.8125C28.5469 30.7969 28.6133 28.8711 28.8789 27.8086C29.4102 27.543 29.8086 26.8789 29.875 26.2812ZM26.9531 32.125H4.375C3.17969 32.125 2.25 31.1953 2.25 30C2.25 28.8711 3.17969 27.875 4.375 27.875H26.9531C26.8867 28.4727 26.8203 29.4688 26.8203 30C26.8203 30.5977 26.8867 31.5938 26.9531 32.125ZM27.75 25.75H4.375C3.71094 25.8164 2.78125 26.082 2.25 26.3477V5.5625C2.25 3.83594 3.64453 2.375 5.4375 2.375H27.75V25.75ZM10.2188 16.1875H13.9375V19.9062C13.9375 20.2383 14.1367 20.4375 14.4688 20.4375H17.6562C17.9219 20.4375 18.1875 20.2383 18.1875 19.9062V16.1875H21.9062C22.1719 16.1875 22.4375 15.9883 22.4375 15.6562V12.4688C22.4375 12.2031 22.1719 11.9375 21.9062 11.9375H18.1875V8.21875C18.1875 7.95312 17.9219 7.6875 17.6562 7.6875H14.4688C14.1367 7.6875 13.9375 7.95312 13.9375 8.21875V11.9375H10.2188C9.88672 11.9375 9.6875 12.2031 9.6875 12.4688V15.6562C9.6875 15.9883 9.88672 16.1875 10.2188 16.1875Z" fill="#82C91E"/>
</svg>
