<svg width="30" height="31" viewBox="0 0 30 31" fill="none" xmlns="http://www.w3.org/2000/svg">
<path d="M15 13.875H28.125C29.1211 13.875 30 13.0547 30 12V4.5C30 3.50391 29.1211 2.625 28.125 2.625H21.5625L19.6875 0.75H15C13.9453 0.75 13.125 1.62891 13.125 2.625V6.375H1.875V1.21875C1.875 0.984375 1.64062 0.75 1.40625 0.75H0.46875C0.175781 0.75 0 0.984375 0 1.21875V24.1875C0 24.7148 0.410156 25.125 0.9375 25.125H13.125V28.875C13.125 29.9297 13.9453 30.75 15 30.75H28.125C29.1211 30.75 30 29.9297 30 28.875V21.375C30 20.3789 29.1211 19.5 28.125 19.5H21.5625L19.6875 17.625H15C13.9453 17.625 13.125 18.5039 13.125 19.5V23.25H1.875V8.25H13.125V12C13.125 13.0547 13.9453 13.875 15 13.875ZM15 19.5H18.8672L20.7422 21.375H28.125V28.875H15V19.5ZM15 2.625H18.8672L20.7422 4.5H28.125V12H15V2.625Z" fill="#5C7CFA"/>
</svg>
