<svg width="34" height="31" viewBox="0 0 34 31" fill="none" xmlns="http://www.w3.org/2000/svg">
<path d="M33.8164 27.5273L23.5039 1.27734C23.3867 0.984375 23.0938 0.75 22.8008 0.75C22.625 0.75 22.5078 0.867188 22.1562 0.984375C21.7461 1.10156 21.5703 1.45312 21.7461 2.03906C20.8086 2.625 18.2891 3.44531 17.3516 3.62109C17.293 3.38672 17.2344 3.21094 16.9414 3.03516V2.625C16.9414 1.62891 16.1211 0.75 15.0664 0.75H9.44141C9.14844 0.75 8.79688 0.925781 8.50391 1.04297C8.26953 0.925781 7.91797 0.75 7.625 0.75H2C0.945312 0.75 0.125 1.62891 0.125 2.625V28.875C0.125 29.9297 0.945312 30.75 2 30.75H7.625C7.91797 30.75 8.26953 30.6328 8.5625 30.5156C8.79688 30.6328 9.14844 30.75 9.5 30.75H15.125C16.1211 30.75 17 29.9297 17 28.875V7.72266L25.8477 30.2812C25.9648 30.5742 26.1992 30.75 26.4922 30.75C26.668 30.75 26.7852 30.6914 27.1953 30.5742C27.5469 30.457 27.7812 30.1055 27.5469 29.5195C28.543 28.9336 31.0039 28.1133 32 27.9375C32.1758 28.582 32.5859 28.6992 32.9375 28.582L33.3477 28.4062C33.7578 28.2891 33.9336 27.8789 33.8164 27.5273ZM7.625 28.875H2V25.125H7.625V28.875ZM7.625 23.25H2V8.25H7.625V23.25ZM7.625 6.375H2V2.625H7.625V6.375ZM15.125 28.875H9.5V25.125H15.125V28.875ZM15.125 23.25H9.5V8.25H15.125V23.25ZM15.125 6.375H9.5V2.625H15.125V6.375ZM27.0195 27.9375L17.8789 5.14453C19.4023 4.91016 21.6289 3.97266 22.332 3.62109L31.4141 26.4141C29.9492 26.6484 27.6641 27.5859 27.0195 27.9375Z" fill="#5C7CFA"/>
</svg>
