<svg width="36" height="34" viewBox="0 0 36 34" fill="none" xmlns="http://www.w3.org/2000/svg">
<path fill-rule="evenodd" clip-rule="evenodd" d="M10.7334 8.56888H12.7356V7.82549C12.7356 4.58453 15.0925 1.95722 17.9998 1.95722C20.9072 1.95722 23.2641 4.58453 23.2641 7.82549V8.56888H25.2663V7.82549C25.2663 3.75429 22.2528 0.000854492 17.9998 0.000854492C13.7469 0.000854492 10.7334 3.75429 10.7334 7.82549V8.56888ZM8.00141 23.9382H27.9986C32.1661 23.9382 36 20.9873 36 16.8325C36 12.6776 32.1661 9.72672 27.9986 9.72672L8.00141 9.72672C3.83394 9.72672 0 12.6776 0 16.8325C0 20.9873 3.83394 23.9382 8.00141 23.9382ZM8.00141 21.9818H27.9986C31.3118 21.9818 33.9977 19.6764 33.9977 16.8325C33.9977 13.9885 31.3118 11.6831 27.9986 11.6831L8.00141 11.6831C4.68817 11.6831 2.00227 13.9885 2.00227 16.8325C2.00227 19.6764 4.68817 21.9818 8.00141 21.9818ZM18.6911 12.0992H17.3086V21.5657H18.6911V12.0992ZM25.2786 25.4328H23.2764V26.1762C23.2764 29.4172 20.9195 32.0445 18.0121 32.0445C15.1048 32.0445 12.7479 29.4172 12.7479 26.1762V25.4328H10.7457V26.1762C10.7457 30.2474 13.7592 34.0009 18.0121 34.0009C22.2651 34.0009 25.2786 30.2474 25.2786 26.1762V25.4328Z" fill="#FF9900"/>
</svg>
