<svg width="24" height="31" viewBox="0 0 24 31" fill="none" xmlns="http://www.w3.org/2000/svg">
<path d="M22.3711 6.49219L17.5078 1.57031C17.0391 1.16016 16.1602 0.75 15.5156 0.75H3.5625C1.98047 0.75 0.75 2.03906 0.75 3.5625V27.9375C0.75 29.5195 1.98047 30.75 3.5625 30.75H20.4375C21.9609 30.75 23.25 29.5195 23.25 27.9375V8.48438C23.1914 7.83984 22.8398 6.96094 22.3711 6.49219ZM21.082 7.83984C21.1992 7.95703 21.2578 8.13281 21.3164 8.25H15.75V2.68359C15.8672 2.74219 16.043 2.80078 16.1602 2.91797L21.082 7.83984ZM20.4375 28.875H3.5625C3.03516 28.875 2.625 28.4648 2.625 27.9375V3.5625C2.625 3.09375 3.03516 2.625 3.5625 2.625H13.875V8.71875V8.77734C13.875 9.53906 14.4609 10.125 15.2227 10.125H15.2812H21.375V27.9375C21.375 28.4648 20.9062 28.875 20.4375 28.875ZM16.1016 22.4297C16.2188 22.3125 16.3359 22.0781 16.3359 21.9023C16.3359 21.7266 16.2188 21.5508 16.1016 21.4336L13.2891 18.5625L16.1016 15.75C16.2188 15.6914 16.3359 15.457 16.3359 15.2812C16.3359 15.1055 16.2188 14.8711 16.1016 14.7539L15.8086 14.4609C15.6914 14.3438 15.457 14.2266 15.2812 14.2266C15.1055 14.2266 14.9297 14.3438 14.8125 14.4609L12 17.2734L9.12891 14.4609C9.07031 14.3438 8.83594 14.2266 8.66016 14.2266C8.48438 14.2266 8.25 14.3438 8.13281 14.4609L7.83984 14.7539C7.72266 14.8711 7.60547 15.1055 7.60547 15.2812C7.60547 15.457 7.72266 15.6328 7.83984 15.75L10.6523 18.5625L7.83984 21.4336C7.72266 21.4922 7.60547 21.7266 7.60547 21.9023C7.60547 22.0781 7.72266 22.3125 7.83984 22.4297L8.13281 22.7227C8.25 22.8398 8.48438 22.957 8.66016 22.957C8.83594 22.957 9.01172 22.8398 9.12891 22.7227L12 19.9102L14.8125 22.7227C14.8711 22.8398 15.1055 22.957 15.2812 22.957C15.457 22.957 15.6914 22.8398 15.8086 22.7227L16.1016 22.4297Z" fill="#5C7CFA"/>
</svg>
