<svg width="44" height="35" viewBox="0 0 44 35" fill="none" xmlns="http://www.w3.org/2000/svg">
<path d="M10.5781 13H7.92188C7.45703 13 7.125 13.3984 7.125 13.7969V16.4531C7.125 16.918 7.45703 17.25 7.92188 17.25H10.5781C10.9766 17.25 11.375 16.918 11.375 16.4531V13.7969C11.375 13.3984 10.9766 13 10.5781 13ZM10.5781 19.375H7.92188C7.45703 19.375 7.125 19.7734 7.125 20.1719V22.8281C7.125 23.293 7.45703 23.625 7.92188 23.625H10.5781C10.9766 23.625 11.375 23.293 11.375 22.8281V20.1719C11.375 19.7734 10.9766 19.375 10.5781 19.375ZM10.5781 25.75H7.92188C7.45703 25.75 7.125 26.1484 7.125 26.5469V29.2031C7.125 29.668 7.45703 30 7.92188 30H10.5781C10.9766 30 11.375 29.668 11.375 29.2031V26.5469C11.375 26.1484 10.9766 25.75 10.5781 25.75ZM16.9531 19.375H14.2969C13.832 19.375 13.5 19.7734 13.5 20.1719V22.8281C13.5 23.293 13.832 23.625 14.2969 23.625H16.9531C17.3516 23.625 17.75 23.293 17.75 22.8281V20.1719C17.75 19.7734 17.3516 19.375 16.9531 19.375ZM16.9531 13H14.2969C13.832 13 13.5 13.3984 13.5 13.7969V16.4531C13.5 16.918 13.832 17.25 14.2969 17.25H16.9531C17.3516 17.25 17.75 16.918 17.75 16.4531V13.7969C17.75 13.3984 17.3516 13 16.9531 13ZM16.9531 25.75H14.2969C13.832 25.75 13.5 26.1484 13.5 26.5469V29.2031C13.5 29.668 13.832 30 14.2969 30H16.9531C17.3516 30 17.75 29.668 17.75 29.2031V26.5469C17.75 26.1484 17.3516 25.75 16.9531 25.75ZM13.5 8.75H15.2266C15.4258 8.75 15.625 8.61719 15.625 8.35156V7.02344C15.625 6.82422 15.4258 6.625 15.2266 6.625H13.5V4.89844C13.5 4.69922 13.3008 4.5 13.1016 4.5H11.7734C11.5078 4.5 11.375 4.69922 11.375 4.89844V6.625H9.64844C9.38281 6.625 9.25 6.82422 9.25 7.02344V8.35156C9.25 8.61719 9.38281 8.75 9.64844 8.75H11.375V10.4766C11.375 10.7422 11.5078 10.875 11.7734 10.875H13.1016C13.3008 10.875 13.5 10.7422 13.5 10.4766V8.75ZM32.625 21.5C36.0781 21.5 39 18.6445 39 15.125C39 11.6719 36.0781 8.75 32.625 8.75C29.1055 8.75 26.25 11.6719 26.25 15.125C26.25 18.6445 29.1055 21.5 32.625 21.5ZM32.625 10.875C34.9492 10.875 36.875 12.8008 36.875 15.125C36.875 17.5156 34.9492 19.375 32.625 19.375C30.2344 19.375 28.375 17.5156 28.375 15.125C28.375 12.8008 30.2344 10.9414 32.625 10.875ZM42.1211 25.6172C40.9922 23.8906 39.0664 22.9609 37.0078 22.9609C35.2148 22.9609 34.75 23.625 32.625 23.625C30.5 23.625 30.0352 22.9609 28.1758 22.9609C26.1172 22.9609 24.1914 23.8906 23.0625 25.6172C22.4648 26.4805 22 28.0742 22 29.1367V31.5938C22 33.1211 23.1289 34.25 24.6562 34.25H40.5938C42.0547 34.25 43.25 33.1211 43.25 31.5938V29.1367C43.25 28.0742 42.7188 26.4805 42.1211 25.6172ZM41.125 31.5938C41.125 31.9258 40.8594 32.125 40.5938 32.125H24.6562C24.3242 32.125 24.125 31.9258 24.125 31.5938V29.1367C24.125 28.4062 24.3906 27.3438 24.7891 26.7461C25.5195 25.75 26.7812 25.0859 28.1758 25.0859C29.6367 25.0859 30.168 25.75 32.625 25.75C35.0156 25.75 35.6133 25.0859 37.0078 25.0859C38.4023 25.0859 39.6641 25.75 40.3945 26.7461C40.793 27.3438 41.125 28.4062 41.125 29.1367V31.5938ZM22 8.75V23.5586C22.4648 22.9609 23.3945 22.2305 24.125 21.8984V8.75C24.125 7.62109 23.1289 6.625 22 6.625H20.9375V2.375C20.9375 1.24609 19.9414 0.25 18.8125 0.25H6.0625C4.86719 0.25 3.9375 1.24609 3.9375 2.375V6.625H2.875C1.67969 6.625 0.75 7.62109 0.75 8.75V33.7188C0.75 34.0508 0.949219 34.25 1.28125 34.25H2.34375C2.60938 34.25 2.875 34.0508 2.875 33.7188V8.75H6.0625V2.375H18.8125V8.75H22Z" fill="#82C91E"/>
</svg>
