<svg width="28" height="31" viewBox="0 0 28 31" fill="none" xmlns="http://www.w3.org/2000/svg">
<path d="M10.25 10.5938V7.78125C10.25 7.01953 9.60547 6.375 8.84375 6.375H6.5V1.21875C6.5 0.984375 6.26562 0.75 6.03125 0.75H5.09375C4.80078 0.75 4.625 0.984375 4.625 1.21875V6.375H2.28125C1.46094 6.375 0.875 7.01953 0.875 7.78125V10.5938C0.875 11.4141 1.46094 12 2.28125 12H4.625V30.2812C4.625 30.5742 4.80078 30.75 5.09375 30.75H6.03125C6.26562 30.75 6.5 30.5742 6.5 30.2812V12H8.84375C9.60547 12 10.25 11.4141 10.25 10.5938ZM8.375 10.125H2.75V8.25H8.375V10.125ZM17.2812 19.5H14.9375V1.21875C14.9375 0.984375 14.7031 0.75 14.4688 0.75H13.5312C13.2383 0.75 13.0625 0.984375 13.0625 1.21875V19.5H10.7188C9.89844 19.5 9.3125 20.1445 9.3125 20.9062V23.7188C9.3125 24.5391 9.89844 25.125 10.7188 25.125H13.0625V30.2812C13.0625 30.5742 13.2383 30.75 13.5312 30.75H14.4688C14.7031 30.75 14.9375 30.5742 14.9375 30.2812V25.125H17.2812C18.043 25.125 18.6875 24.5391 18.6875 23.7188V20.9062C18.6875 20.1445 18.043 19.5 17.2812 19.5ZM16.8125 23.25H11.1875V21.375H16.8125V23.25ZM25.7188 10.125H23.375V1.21875C23.375 0.984375 23.1406 0.75 22.9062 0.75H21.9688C21.6758 0.75 21.5 0.984375 21.5 1.21875V10.125H19.1562C18.3359 10.125 17.75 10.7695 17.75 11.5312V14.3438C17.75 15.1641 18.3359 15.75 19.1562 15.75H21.5V30.2812C21.5 30.5742 21.6758 30.75 21.9688 30.75H22.9062C23.1406 30.75 23.375 30.5742 23.375 30.2812V15.75H25.7188C26.4805 15.75 27.125 15.1641 27.125 14.3438V11.5312C27.125 10.7695 26.4805 10.125 25.7188 10.125ZM25.25 13.875H19.625V12H25.25V13.875Z" fill="#589EB8"/>
</svg>
