<svg width="31" height="31" viewBox="0 0 31 31" fill="none" xmlns="http://www.w3.org/2000/svg">
<path d="M12.7773 4.44141C14.2422 2.03906 17.6992 2.09766 19.1641 4.44141L21.8594 8.77734L18.8125 8.07422C18.4023 7.95703 18.0508 8.19141 17.9336 8.60156L17.875 9.01172C17.7578 9.42188 17.9922 9.77344 18.4023 9.89062L23.8516 11.1211C24.2617 11.2383 24.6133 11.0039 24.7305 10.5938L25.9609 5.14453C26.0781 4.73438 25.8438 4.38281 25.4336 4.26562L25.0234 4.14844C24.6133 4.08984 24.2617 4.32422 24.1445 4.67578L23.4414 7.78125L20.7461 3.44531C18.5195 -0.128906 13.4219 -0.128906 11.1953 3.44531L8.67578 7.48828C8.44141 7.83984 8.55859 8.25 8.91016 8.48438L9.26172 8.71875C9.61328 8.89453 10.0234 8.83594 10.2578 8.48438L12.7773 4.44141ZM30.1211 18.4453L27.0156 13.4648C26.7812 13.1133 26.3711 13.0547 26.0195 13.2305L25.668 13.4648C25.3164 13.6992 25.1992 14.1094 25.4336 14.4609L28.5391 19.4414C30.0625 21.9023 28.3047 25.125 25.3164 25.125H19.1641L21.3906 22.957C21.6836 22.6641 21.6836 22.1953 21.3906 21.9609L21.0391 21.6094C20.8047 21.3164 20.3359 21.3164 20.043 21.6094L16.0586 25.5938C15.8242 25.8867 15.8242 26.2969 16.0586 26.5898L20.043 30.5742C20.3359 30.8672 20.8047 30.8672 21.0391 30.5742L21.3906 30.2227C21.6836 29.9883 21.6836 29.5195 21.3906 29.2266L19.1641 27H25.3164C29.7695 27 32.4648 22.1953 30.1211 18.4453ZM3.40234 19.4414L6.68359 14.168L7.38672 17.2148C7.50391 17.625 7.85547 17.8594 8.26562 17.7422L8.67578 17.6836C9.08594 17.5664 9.32031 17.2148 9.20312 16.8047L7.97266 11.2969C7.85547 10.9453 7.50391 10.7109 7.09375 10.8281L1.64453 12.0586C1.23438 12.1758 1 12.5273 1.11719 12.9375L1.17578 13.3477C1.29297 13.7578 1.64453 13.9922 2.05469 13.875L5.10156 13.1719L1.82031 18.4453C-0.523438 22.1367 2.17188 27 6.625 27H12.4844C12.8359 27 13.1875 26.707 13.1875 26.2969V25.8281C13.1875 25.4766 12.8359 25.125 12.4844 25.125H6.625C3.63672 25.125 1.87891 21.9023 3.40234 19.4414Z" fill="#FF9900"/>
</svg>
