<svg width="24" height="31" viewBox="0 0 24 31" fill="none" xmlns="http://www.w3.org/2000/svg">
<path d="M22.3711 6.49219L17.5078 1.62891C16.9805 1.10156 16.2188 0.75 15.5156 0.75H3.50391C1.98047 0.808594 0.75 2.03906 0.75 3.62109V27.9961C0.75 29.5195 1.98047 30.75 3.50391 30.75H20.4375C21.9609 30.75 23.25 29.5195 23.25 27.9961V8.48438C23.25 7.78125 22.8984 7.01953 22.3711 6.49219ZM15.75 2.68359C15.8672 2.74219 16.043 2.80078 16.1602 2.91797L21.082 7.83984C21.1992 7.95703 21.2578 8.13281 21.3164 8.30859H15.75V2.68359ZM16.6875 28.9336H7.3125V27.0586C7.3125 26.0039 8.07422 25.125 9.24609 25.125C9.94922 25.125 10.4766 25.5352 12 25.5352C13.4648 25.5352 13.9922 25.125 14.6953 25.125C15.8672 25.125 16.6875 26.0039 16.6875 27.0586V28.9336ZM21.375 27.9961C21.375 28.4648 20.9062 28.9336 20.4375 28.9336H18.5625V27.0586C18.5625 26.2383 18.2695 25.5352 17.8594 24.8906C17.1562 23.8359 15.9258 23.25 14.6953 23.25C13.582 23.25 13.2891 23.6602 12 23.6602C10.6523 23.6602 10.3594 23.25 9.24609 23.25C8.01562 23.25 6.78516 23.8359 6.08203 24.8906C5.67188 25.5352 5.4375 26.2383 5.4375 27.0586V28.9336H3.50391C3.03516 28.9336 2.56641 28.4648 2.56641 27.9961V3.62109C2.56641 3.09375 3.03516 2.625 3.50391 2.625H13.875V8.77734C13.875 9.53906 14.4609 10.125 15.2812 10.125H21.375V27.9961ZM7.3125 17.625C7.3125 20.2617 9.36328 22.3125 12 22.3125C14.5781 22.3125 16.6875 20.2617 16.6875 17.625C16.6875 15.0469 14.5781 12.9375 12 12.9375C9.36328 12.9375 7.3125 15.0469 7.3125 17.625ZM14.8125 17.625C14.8125 19.207 13.5234 20.4375 12 20.4375C10.418 20.4375 9.1875 19.207 9.1875 17.625C9.1875 16.1016 10.418 14.8125 12 14.8125C13.5234 14.8125 14.8125 16.1016 14.8125 17.625Z" fill="#FF9900"/>
</svg>
