<svg width="30" height="23" viewBox="0 0 30 23" fill="none" xmlns="http://www.w3.org/2000/svg">
<path d="M24.8438 17.375H25.7812C26.0156 17.375 26.25 17.1992 26.25 16.9062V2.84375C26.25 2.60938 26.0156 2.375 25.7812 2.375H24.8438C24.5508 2.375 24.375 2.60938 24.375 2.84375V16.9062C24.375 17.1992 24.5508 17.375 24.8438 17.375ZM19.2188 17.375H20.1562C20.3906 17.375 20.625 17.1992 20.625 16.9062V8.46875C20.625 8.23438 20.3906 8 20.1562 8H19.2188C18.9258 8 18.75 8.23438 18.75 8.46875V16.9062C18.75 17.1992 18.9258 17.375 19.2188 17.375ZM7.96875 17.375H8.90625C9.14062 17.375 9.375 17.1992 9.375 16.9062V12.2188C9.375 11.9844 9.14062 11.75 8.90625 11.75H7.96875C7.67578 11.75 7.5 11.9844 7.5 12.2188V16.9062C7.5 17.1992 7.67578 17.375 7.96875 17.375ZM13.5938 17.375H14.5312C14.7656 17.375 15 17.1992 15 16.9062V4.71875C15 4.48438 14.7656 4.25 14.5312 4.25H13.5938C13.3008 4.25 13.125 4.48438 13.125 4.71875V16.9062C13.125 17.1992 13.3008 17.375 13.5938 17.375ZM29.5312 21.125H1.875V0.96875C1.875 0.734375 1.64062 0.5 1.40625 0.5H0.46875C0.175781 0.5 0 0.734375 0 0.96875V22.0625C0 22.5898 0.410156 23 0.9375 23H29.5312C29.7656 23 30 22.8242 30 22.5312V21.5938C30 21.3594 29.7656 21.125 29.5312 21.125Z" fill="#FF9900"/>
</svg>
