<svg width="30" height="23" viewBox="0 0 30 23" fill="none" xmlns="http://www.w3.org/2000/svg">
<path d="M29.5312 21.125H1.875V0.96875C1.875 0.734375 1.64062 0.5 1.40625 0.5H0.46875C0.175781 0.5 0 0.734375 0 0.96875V22.0625C0 22.5898 0.410156 23 0.9375 23H29.5312C29.7656 23 30 22.8242 30 22.5312V21.5938C30 21.3594 29.7656 21.125 29.5312 21.125ZM9.375 15.0312C10.1367 15.0312 10.7812 14.4453 10.7812 13.625C10.7812 12.8633 10.1367 12.2188 9.375 12.2188C8.55469 12.2188 7.96875 12.8633 7.96875 13.625C7.96875 14.4453 8.55469 15.0312 9.375 15.0312ZM24.375 5.65625C25.1367 5.65625 25.7812 5.07031 25.7812 4.25C25.7812 3.48828 25.1367 2.84375 24.375 2.84375C23.5547 2.84375 22.9688 3.48828 22.9688 4.25C22.9688 5.07031 23.5547 5.65625 24.375 5.65625ZM11.25 5.65625C12.0117 5.65625 12.6562 5.07031 12.6562 4.25C12.6562 3.48828 12.0117 2.84375 11.25 2.84375C10.4297 2.84375 9.84375 3.48828 9.84375 4.25C9.84375 5.07031 10.4297 5.65625 11.25 5.65625ZM22.5 15.0312C23.2617 15.0312 23.9062 14.4453 23.9062 13.625C23.9062 12.8633 23.2617 12.2188 22.5 12.2188C21.6797 12.2188 21.0938 12.8633 21.0938 13.625C21.0938 14.4453 21.6797 15.0312 22.5 15.0312ZM16.875 11.2812C17.6367 11.2812 18.2812 10.6953 18.2812 9.875C18.2812 9.11328 17.6367 8.46875 16.875 8.46875C16.0547 8.46875 15.4688 9.11328 15.4688 9.875C15.4688 10.6953 16.0547 11.2812 16.875 11.2812Z" fill="#FF9900"/>
</svg>
