<svg width="38" height="31" viewBox="0 0 38 31" fill="none" xmlns="http://www.w3.org/2000/svg">
<path d="M35.875 0.75H11.5C10.4453 0.75 9.625 1.62891 9.625 2.625V8.25C6.46094 8.25 4 10.7695 4 13.875C4 17.0391 6.46094 19.5 9.625 19.5C12.7305 19.5 15.25 17.0391 15.25 13.875C15.25 11.4727 13.668 9.42188 11.5 8.60156V2.625H35.875V23.25H18.1211C18.0625 23.25 18.0625 23.1914 18.0039 23.1328C17.0078 21.6094 15.3086 20.8477 13.4922 20.8477C11.9102 20.8477 11.5 21.375 9.625 21.375C7.75 21.375 7.33984 20.8477 5.69922 20.8477C3.88281 20.8477 2.18359 21.6094 1.1875 23.1328C0.601562 24.0117 0.25 25.0664 0.25 26.2383V28.4062C0.25 29.7539 1.24609 30.75 2.59375 30.75H16.6562C17.9453 30.75 19 29.7539 19 28.4062V26.2383C19 25.8867 18.9414 25.5352 18.8242 25.125H35.875C36.8711 25.125 37.75 24.3047 37.75 23.25V2.625C37.75 1.62891 36.8711 0.75 35.875 0.75ZM13.375 13.875C13.375 15.9844 11.6758 17.625 9.625 17.625C7.51562 17.625 5.875 15.9844 5.875 13.875C5.875 11.8242 7.51562 10.125 9.625 10.125C11.6758 10.125 13.375 11.8242 13.375 13.875ZM17.125 28.4062C17.125 28.6992 16.8906 28.875 16.6562 28.875H2.59375C2.30078 28.875 2.125 28.6992 2.125 28.4062V26.2383C2.125 25.4766 2.30078 24.7734 2.71094 24.1289C3.35547 23.25 4.46875 22.7227 5.69922 22.7227C6.98828 22.7227 7.45703 23.25 9.625 23.25C11.7344 23.25 12.2617 22.7227 13.4922 22.7227C14.7227 22.7227 15.8359 23.25 16.4805 24.1289C16.8906 24.7734 17.125 25.4766 17.125 26.2383V28.4062ZM20.0547 9.71484C19.5273 9.1875 18.6484 9.1875 18.0625 9.71484L16.5977 11.2383C16.832 11.8828 17.0078 12.6445 17.0664 13.4062L19.0586 11.3555L22.75 15.0469C23.043 15.3398 23.3945 15.5156 23.7461 15.5156C24.0977 15.5156 24.4492 15.3398 24.7422 15.0469L28.1992 11.6484L30.1328 13.582C30.3672 13.8164 30.6602 13.875 30.9531 13.875C31.5391 13.875 32.125 13.4648 32.125 12.7617V7.13672C32.125 6.72656 31.7734 6.375 31.3633 6.375H25.7383C24.7422 6.375 24.2148 7.60547 24.918 8.36719L26.8516 10.3008L23.7461 13.4062L20.0547 9.71484ZM30.25 8.25V11.0039L27.4961 8.25H30.25Z" fill="#FF9900"/>
</svg>
