<svg width="28" height="31" viewBox="0 0 28 31" fill="none" xmlns="http://www.w3.org/2000/svg">
<path d="M24.3125 4.5H21.5V1.45312C21.5 1.10156 21.1484 0.75 20.7969 0.75H20.3281C19.918 0.75 19.625 1.10156 19.625 1.45312V4.5H8.375V1.45312C8.375 1.10156 8.02344 0.75 7.67188 0.75H7.20312C6.79297 0.75 6.5 1.10156 6.5 1.45312V4.5H3.6875C2.10547 4.5 0.875 5.78906 0.875 7.3125V27.9375C0.875 29.5195 2.10547 30.75 3.6875 30.75H24.3125C25.8359 30.75 27.125 29.5195 27.125 27.9375V7.3125C27.125 5.78906 25.8359 4.5 24.3125 4.5ZM3.6875 6.375H24.3125C24.7812 6.375 25.25 6.84375 25.25 7.3125V10.125H2.75V7.3125C2.75 6.84375 3.16016 6.375 3.6875 6.375ZM24.3125 28.875H3.6875C3.16016 28.875 2.75 28.4648 2.75 27.9375V12H25.25V27.9375C25.25 28.4648 24.7812 28.875 24.3125 28.875ZM20.3867 17.5078C20.6797 17.2148 20.6797 16.7461 20.3867 16.5117L19.918 15.9844C19.625 15.6914 19.1562 15.6914 18.9219 15.9844L12.0078 22.8398L9.01953 19.8516C8.78516 19.6172 8.31641 19.6172 8.02344 19.8516L7.55469 20.3789C7.26172 20.6133 7.26172 21.082 7.55469 21.375L11.4805 25.3008C11.7734 25.5938 12.2422 25.5938 12.4766 25.3008L20.3867 17.5078Z" fill="#FF9900"/>
</svg>
