<svg width="38" height="31" viewBox="0 0 38 31" fill="none" xmlns="http://www.w3.org/2000/svg">
<path d="M36.8125 13.875H28.375V1.6875C28.375 1.21875 27.9062 0.75 27.4375 0.75H10.5625C10.0352 0.75 9.625 1.21875 9.625 1.6875V13.875H1.1875C0.660156 13.875 0.25 14.3438 0.25 14.8125V29.8125C0.25 30.3398 0.660156 30.75 1.1875 30.75H36.8125C37.2812 30.75 37.75 30.3398 37.75 29.8125V14.8125C37.75 14.3438 37.2812 13.875 36.8125 13.875ZM26.5 15.75H30.25V19.4414L28.375 18.7969L26.5 19.4414V15.75ZM20.875 2.625V6.31641L19 5.67188L17.125 6.31641V2.625H20.875ZM11.5 2.625H15.25V8.89453L19 7.66406L22.75 8.89453V2.625H26.5V13.875H11.5V2.625ZM11.5 15.75V19.4414L9.625 18.7969L7.75 19.4414V15.75H11.5ZM2.125 15.75H5.875V22.0195L9.625 20.7891L13.375 22.0195V15.75H18.0625V28.875H2.125V15.75ZM35.875 28.875H19.9375V15.75H24.625V22.0195L28.375 20.7891L32.125 22.0195V15.75H35.875V28.875Z" fill="#FF9900"/>
</svg>
