<svg width="38" height="29" viewBox="0 0 38 29" fill="none" xmlns="http://www.w3.org/2000/svg">
<path d="M36.8125 20.3125H34V4.375C33.9414 2.32422 32.3008 0.683594 30.25 0.625H7.75C5.64062 0.683594 4 2.32422 4 4.375V20.3125H1.1875C0.660156 20.3125 0.25 20.7812 0.25 21.25V24.0625C0.25 26.6992 2.30078 28.75 4.9375 28.75H33.0625C35.6406 28.75 37.6914 26.6992 37.75 24.0625V21.25C37.75 20.7812 37.2812 20.3125 36.8125 20.3125ZM5.875 4.375C5.875 3.37891 6.69531 2.5 7.75 2.5H30.25C31.2461 2.5 32.125 3.37891 32.125 4.375V20.3125H23.1602C22.9258 20.3125 22.75 20.5469 22.6914 20.7812C22.457 21.6016 21.7539 22.1875 20.875 22.1875H17.125H17.0664C16.1875 22.1875 15.4844 21.6016 15.25 20.7812C15.1914 20.5469 15.0156 20.3125 14.7812 20.3125H5.875V4.375ZM35.875 24.0625C35.8164 25.6445 34.5859 26.875 33.0625 26.875H4.9375C3.35547 26.875 2.125 25.6445 2.125 24.0625V22.1875H13.4922C13.9023 23.3008 14.957 24.0625 16.1875 24.0625H21.8125C22.9844 24.0625 24.0391 23.3008 24.4492 22.1875H35.875V24.0625ZM17.125 17.0312C17.125 17.3242 17.3008 17.5 17.5938 17.5H20.4062C20.6406 17.5 20.875 17.3242 20.875 17.0312V13.75H24.1562C24.3906 13.75 24.625 13.5742 24.625 13.2812V10.4688C24.625 10.2344 24.3906 10 24.1562 10H20.875V6.71875C20.875 6.48438 20.6406 6.25 20.4062 6.25H17.5938C17.3008 6.25 17.125 6.48438 17.125 6.71875V10H13.8438C13.5508 10 13.375 10.2344 13.375 10.4688V13.2812C13.375 13.5742 13.5508 13.75 13.8438 13.75H17.125V17.0312Z" fill="#FF9900"/>
</svg>
