<svg width="28" height="31" viewBox="0 0 28 31" fill="none" xmlns="http://www.w3.org/2000/svg">
<path d="M24.3125 4.5H21.5V1.21875C21.5 0.984375 21.2656 0.75 21.0312 0.75H20.0938C19.8008 0.75 19.625 0.984375 19.625 1.21875V4.5H8.375V1.21875C8.375 0.984375 8.14062 0.75 7.90625 0.75H6.96875C6.67578 0.75 6.5 0.984375 6.5 1.21875V4.5H3.6875C2.10547 4.5 0.875 5.78906 0.875 7.3125V27.9375C0.875 29.5195 2.10547 30.75 3.6875 30.75H24.3125C25.8359 30.75 27.125 29.5195 27.125 27.9375V7.3125C27.125 5.78906 25.8359 4.5 24.3125 4.5ZM25.25 27.9375C25.25 28.4648 24.7812 28.875 24.3125 28.875H3.6875C3.16016 28.875 2.75 28.4648 2.75 27.9375V12H25.25V27.9375ZM25.25 10.125H2.75V7.3125C2.75 6.84375 3.16016 6.375 3.6875 6.375H24.3125C24.7812 6.375 25.25 6.84375 25.25 7.3125V10.125ZM7.4375 23.25H13.0625C13.5312 23.25 14 22.8398 14 22.3125V16.6875C14 16.2188 13.5312 15.75 13.0625 15.75H7.4375C6.91016 15.75 6.5 16.2188 6.5 16.6875V22.3125C6.5 22.8398 6.91016 23.25 7.4375 23.25ZM8.375 17.625H12.125V21.375H8.375V17.625Z" fill="#FF9900"/>
</svg>
