<svg width="38" height="31" viewBox="0 0 38 31" fill="none" xmlns="http://www.w3.org/2000/svg">
<path d="M12.4375 21.375H34.9375C35.4062 21.375 35.875 20.9648 35.875 20.4375V5.4375C35.875 4.96875 35.4062 4.5 34.9375 4.5H12.4375C11.9102 4.5 11.5 4.96875 11.5 5.4375V20.4375C11.5 20.9648 11.9102 21.375 12.4375 21.375ZM20.875 6.375H26.5V11.1211L24.332 10.3008L23.6875 10.0078L22.9844 10.3008L20.875 11.1211V6.375ZM13.375 6.375H19V13.875L23.6875 12L28.375 13.875V6.375H34V19.5H13.375V6.375ZM37.2812 25.125H7.75V1.21875C7.75 0.984375 7.51562 0.75 7.28125 0.75H0.71875C0.425781 0.75 0.25 0.984375 0.25 1.21875V2.15625C0.25 2.44922 0.425781 2.625 0.71875 2.625H5.875V26.5312C5.875 26.8242 6.05078 27 6.34375 27H9.74219C9.68359 27.293 9.625 27.6445 9.625 27.9375C9.625 29.5195 10.8555 30.75 12.4375 30.75C13.9609 30.75 15.25 29.5195 15.25 27.9375C15.25 27.6445 15.1328 27.293 15.0742 27H26.6758C26.5586 27.293 26.5 27.6445 26.5 27.9375C26.5 29.5195 27.7305 30.75 29.3125 30.75C30.8359 30.75 32.125 29.5195 32.125 27.9375C32.125 27.6445 32.0078 27.293 31.9492 27H37.2812C37.5156 27 37.75 26.8242 37.75 26.5312V25.5938C37.75 25.3594 37.5156 25.125 37.2812 25.125ZM12.4375 28.875C11.9102 28.875 11.5 28.4648 11.5 27.9375C11.5 27.4688 11.9102 27 12.4375 27C12.9062 27 13.375 27.4688 13.375 27.9375C13.375 28.4648 12.9062 28.875 12.4375 28.875ZM29.3125 28.875C28.7852 28.875 28.375 28.4648 28.375 27.9375C28.375 27.4688 28.7852 27 29.3125 27C29.7812 27 30.25 27.4688 30.25 27.9375C30.25 28.4648 29.7812 28.875 29.3125 28.875Z" fill="#FF9900"/>
</svg>
