<svg width="27" height="35" viewBox="0 0 27 35" fill="none" xmlns="http://www.w3.org/2000/svg">
<path d="M12.5781 6.5625H4.92188C4.58008 6.5625 4.375 6.35742 4.375 6.01562V4.92188C4.375 4.64844 4.58008 4.375 4.92188 4.375H12.5781C12.8516 4.375 13.125 4.64844 13.125 4.92188V6.01562C13.125 6.35742 12.8516 6.5625 12.5781 6.5625Z" fill="#FF9900"/>
<path d="M12.5781 10.9375H4.92188C4.58008 10.9375 4.375 10.7324 4.375 10.3906V9.29688C4.375 9.02344 4.58008 8.75 4.92188 8.75H12.5781C12.8516 8.75 13.125 9.02344 13.125 9.29688V10.3906C13.125 10.7324 12.8516 10.9375 12.5781 10.9375Z" fill="#FF9900"/>
<path fill-rule="evenodd" clip-rule="evenodd" d="M18.375 22.9688H21.8458C22.6516 22.9688 23.3333 23.6204 23.3333 24.3906V30.0781C23.3333 30.8779 22.6516 31.5 21.8458 31.5H4.9875C4.15078 31.5 3.5 30.8779 3.5 30.0781V24.3906C3.5 23.6204 4.15078 22.9688 4.9875 22.9688H8.45833V17.7552C8.45833 16.985 9.10911 16.3333 9.94583 16.3333H16.8875C17.6932 16.3333 18.375 16.985 18.375 17.7552V22.9688ZM12.425 17.7552H9.94583V22.9688H16.8875V17.7552H14.4083V19.888C14.4083 20.0361 14.2844 20.125 14.1604 20.125H12.6729C12.518 20.125 12.425 20.0361 12.425 19.888V17.7552ZM4.9875 30.0781H12.6729V24.3906H9.94583V26.5234C9.94583 26.6715 9.82187 26.7604 9.69792 26.7604H8.21042C8.05547 26.7604 7.9625 26.6715 7.9625 26.5234V24.3906H4.9875V30.0781ZM14.1604 30.0781H21.8458V24.3906H18.8708V26.5234C18.8708 26.6715 18.7469 26.7604 18.6229 26.7604H17.1354C16.9805 26.7604 16.8875 26.6715 16.8875 26.5234V24.3906H14.1604V30.0781Z" fill="#FF9900"/>
<path fill-rule="evenodd" clip-rule="evenodd" d="M19.5508 1.02539L25.2246 6.69922C25.8398 7.31445 26.25 8.20312 26.25 9.02344V31.7871C26.25 33.5645 24.7461 35 22.9688 35H3.21289C1.43555 35 0 33.5645 0 31.7871V3.34961C0 1.50391 1.43555 0.0683594 3.21289 0H17.2266C18.0469 0 18.9355 0.410156 19.5508 1.02539ZM17.6065 2.30517C17.5684 2.28813 17.5323 2.272 17.5 2.25586V8.81836H23.9941C23.9258 8.61328 23.8574 8.4082 23.7207 8.27148L17.9785 2.5293C17.8741 2.42485 17.7297 2.3603 17.6065 2.30517ZM22.9688 32.8809C23.5156 32.8809 24.0625 32.334 24.0625 31.7871V10.9375H16.9531C15.9961 10.9375 15.3125 10.2539 15.3125 9.36523V2.1875H3.21289C2.66602 2.1875 2.11914 2.73438 2.11914 3.34961V31.7871C2.11914 32.334 2.66602 32.8809 3.21289 32.8809H22.9688Z" fill="#FF9900"/>
</svg>
