<svg width="38" height="31" viewBox="0 0 38 31" fill="none" xmlns="http://www.w3.org/2000/svg">
<path d="M8.74609 23.7188C9.27344 23.0742 9.625 22.2539 9.625 21.375C9.625 19.3242 7.92578 17.625 5.875 17.625C3.76562 17.625 2.125 19.3242 2.125 21.375C2.125 22.3125 2.41797 23.0742 2.94531 23.7188C1.36328 24.4805 0.25 26.0625 0.25 27.9375V28.9922C0.25 29.9883 1.01172 30.75 2.00781 30.75H9.68359C10.6797 30.75 11.5 29.9883 11.5 28.9922V27.9375C11.5 26.0625 10.3867 24.4805 8.74609 23.7188ZM5.875 19.5C6.87109 19.5 7.75 20.3789 7.75 21.375C7.75 22.4297 6.87109 23.25 5.875 23.25C4.82031 23.25 4 22.4297 4 21.375C4 20.3789 4.82031 19.5 5.875 19.5ZM2.125 28.9922V27.9375C2.125 26.4141 3.35547 25.125 4.9375 25.125H6.8125C8.33594 25.125 9.625 26.4141 9.625 27.9375L9.68359 28.875L2.125 28.9922ZM8.74609 6.84375C9.27344 6.19922 9.625 5.37891 9.625 4.5C9.625 2.44922 7.92578 0.75 5.875 0.75C3.76562 0.75 2.125 2.44922 2.125 4.5C2.125 5.4375 2.41797 6.19922 2.94531 6.84375C1.36328 7.60547 0.25 9.1875 0.25 11.0625V12.1172C0.25 13.1133 1.01172 13.875 2.00781 13.875H9.68359C10.6797 13.875 11.5 13.1133 11.5 12.1172V11.0625C11.5 9.1875 10.3867 7.60547 8.74609 6.84375ZM5.875 2.625C6.87109 2.625 7.75 3.50391 7.75 4.5C7.75 5.55469 6.87109 6.375 5.875 6.375C4.82031 6.375 4 5.55469 4 4.5C4 3.50391 4.82031 2.625 5.875 2.625ZM2.125 12.1172V11.0625C2.125 9.53906 3.35547 8.25 4.9375 8.25H6.8125C8.33594 8.25 9.625 9.53906 9.625 11.0625L9.68359 12L2.125 12.1172ZM36.3438 2.625H14.7812C13.9609 2.625 13.375 3.26953 13.375 4.03125V10.5938C13.375 11.4141 13.9609 12 14.7812 12H36.3438C37.1055 12 37.75 11.4141 37.75 10.5938V4.03125C37.75 3.26953 37.1055 2.625 36.3438 2.625ZM28.375 10.125H15.25V4.5H28.375V10.125ZM35.875 10.125H30.25V4.5H35.875V10.125ZM36.3438 19.5H14.7812C13.9609 19.5 13.375 20.1445 13.375 20.9062V27.4688C13.375 28.2891 13.9609 28.875 14.7812 28.875H36.3438C37.1055 28.875 37.75 28.2891 37.75 27.4688V20.9062C37.75 20.1445 37.1055 19.5 36.3438 19.5ZM19 27H15.25V21.375H19V27ZM35.875 27H20.875V21.375H35.875V27Z" fill="#FF9900"/>
</svg>
