<svg width="38" height="31" viewBox="0 0 38 31" fill="none" xmlns="http://www.w3.org/2000/svg">
<path d="M36.8711 17.9766C37.9844 16.9219 37.9844 15.1055 36.8711 13.9922L24.5078 1.62891C23.9805 1.10156 23.2773 0.75 22.5156 0.75H19.4688L21.3438 2.625H22.5156C22.75 2.625 22.9844 2.74219 23.1602 2.91797L35.582 15.3398C35.9336 15.6914 35.9336 16.2773 35.582 16.6875L23.6289 28.6406C23.2188 28.9922 22.6328 28.9922 22.2812 28.6406L22.1641 28.5234L20.875 29.8711L20.9336 29.9297C22.0469 31.043 23.8633 31.043 24.918 29.9297L36.8711 17.9766ZM15.0156 2.625C15.25 2.625 15.4844 2.74219 15.6602 2.91797L28.082 15.3398C28.4336 15.6914 28.4336 16.2773 28.082 16.6875L16.1289 28.6406C15.7188 28.9922 15.1328 28.9922 14.7812 28.6406L2.35938 16.2188C2.18359 16.043 2.125 15.8086 2.125 15.5742V3.5625C2.125 3.09375 2.53516 2.625 3.0625 2.625H15.0156ZM15.0156 0.75H3.0625C1.48047 0.75 0.25 2.03906 0.25 3.5625V15.5742C0.25 16.3359 0.542969 17.0391 1.07031 17.5664L13.4336 29.9297C14.5469 31.043 16.3633 31.043 17.418 29.9297L29.3711 17.9766C30.4844 16.9219 30.4844 15.1055 29.3711 13.9922L17.0078 1.62891C16.4805 1.10156 15.7773 0.75 15.0156 0.75ZM8.6875 8.01562C9.33203 8.01562 9.85938 8.54297 9.85938 9.1875C9.85938 9.89062 9.33203 10.3594 8.6875 10.3594C7.98438 10.3594 7.51562 9.89062 7.51562 9.1875C7.51562 8.54297 7.98438 8.01562 8.6875 8.01562ZM8.6875 6.375C7.10547 6.375 5.875 7.66406 5.875 9.1875C5.875 10.7695 7.10547 12 8.6875 12C10.2109 12 11.5 10.7695 11.5 9.1875C11.5 7.66406 10.2109 6.375 8.6875 6.375Z" fill="#D6336C"/>
</svg>
