<svg width="38" height="31" viewBox="0 0 38 31" fill="none" xmlns="http://www.w3.org/2000/svg">
<path d="M34.9375 4.5H23.6875L20.4648 1.33594C20.1133 0.984375 19.6445 0.75 19.1172 0.75H10.5625C8.98047 0.75 7.75 2.03906 7.75 3.5625V8.25H3.0625C1.48047 8.25 0.25 9.53906 0.25 11.0625V27.9375C0.25 29.5195 1.48047 30.75 3.0625 30.75H27.4375C28.9609 30.75 30.25 29.5195 30.25 27.9375V23.25H34.9375C36.4609 23.25 37.75 22.0195 37.75 20.4375V7.3125C37.75 5.78906 36.4609 4.5 34.9375 4.5ZM28.375 27.9375C28.375 28.4648 27.9062 28.875 27.4375 28.875H3.0625C2.53516 28.875 2.125 28.4648 2.125 27.9375V11.0625C2.125 10.5938 2.53516 10.125 3.0625 10.125H7.75V20.4375C7.75 22.0195 8.98047 23.25 10.5625 23.25H28.375V27.9375ZM35.875 20.4375C35.875 20.9648 35.4062 21.375 34.9375 21.375H10.5625C10.0352 21.375 9.625 20.9648 9.625 20.4375V3.5625C9.625 3.09375 10.0352 2.625 10.5625 2.625H19.1172L22.3398 5.84766C22.6914 6.19922 23.1602 6.375 23.6875 6.375H34.9375C35.4062 6.375 35.875 6.84375 35.875 7.3125V20.4375Z" fill="#D6336C"/>
</svg>
