<svg width="34" height="31" viewBox="0 0 34 31" fill="none" xmlns="http://www.w3.org/2000/svg">
<path d="M32.9375 0.75C32.4102 0.75 32 1.21875 32 1.6875V5.4375H28.25V4.5C28.25 3.50391 27.3711 2.625 26.375 2.625H24.5C23.4453 2.625 22.625 3.50391 22.625 4.5V5.4375H17V4.5C17 3.50391 16.1211 2.625 15.125 2.625H13.25C12.1953 2.625 11.375 3.50391 11.375 4.5V5.4375H9.5V4.5C9.5 3.50391 8.62109 2.625 7.625 2.625H5.75C4.69531 2.625 3.875 3.50391 3.875 4.5V5.4375H2V1.6875C2 1.21875 1.53125 0.75 1.0625 0.75C0.535156 0.75 0.125 1.21875 0.125 1.6875V30.2812C0.125 30.5742 0.300781 30.75 0.59375 30.75H1.53125C1.76562 30.75 2 30.5742 2 30.2812V26.0625H3.875V27C3.875 28.0547 4.69531 28.875 5.75 28.875H7.625C8.62109 28.875 9.5 28.0547 9.5 27V26.0625H11.375V27C11.375 28.0547 12.1953 28.875 13.25 28.875H15.125C16.1211 28.875 17 28.0547 17 27V26.0625H22.625V27C22.625 28.0547 23.4453 28.875 24.5 28.875H26.375C27.3711 28.875 28.25 28.0547 28.25 27V26.0625H32V30.2812C32 30.5742 32.1758 30.75 32.4688 30.75H33.4062C33.6406 30.75 33.875 30.5742 33.875 30.2812V1.6875C33.875 1.21875 33.4062 0.75 32.9375 0.75ZM24.5 4.5H26.375V8.25H24.5V4.5ZM13.25 4.5H15.125V8.25H13.25V4.5ZM5.75 4.5H7.625V8.25H5.75V4.5ZM7.625 27H5.75V23.25H7.625V27ZM15.125 27H13.25V23.25H15.125V27ZM26.375 27H24.5V23.25H26.375V27ZM32 24.1875H28.25V23.25C28.25 22.2539 27.3711 21.375 26.375 21.375H24.5C23.4453 21.375 22.625 22.2539 22.625 23.25V24.1875H17V23.25C17 22.2539 16.1211 21.375 15.125 21.375H13.25C12.1953 21.375 11.375 22.2539 11.375 23.25V24.1875H9.5V23.25C9.5 22.2539 8.62109 21.375 7.625 21.375H5.75C4.69531 21.375 3.875 22.2539 3.875 23.25V24.1875H2V16.6875H3.875V17.625C3.875 18.6797 4.69531 19.5 5.75 19.5H7.625C8.62109 19.5 9.5 18.6797 9.5 17.625V16.6875H11.375V17.625C11.375 18.6797 12.1953 19.5 13.25 19.5H15.125C16.1211 19.5 17 18.6797 17 17.625V16.6875H18.875V17.625C18.875 18.6797 19.6953 19.5 20.75 19.5H22.625C23.6211 19.5 24.5 18.6797 24.5 17.625V16.6875H32V24.1875ZM5.75 17.625V13.875H7.625V17.625H5.75ZM13.25 17.625V13.875H15.125V17.625H13.25ZM20.75 17.625V13.875H22.625V17.625H20.75ZM32 14.8125H24.5V13.875C24.5 12.8789 23.6211 12 22.625 12H20.75C19.6953 12 18.875 12.8789 18.875 13.875V14.8125H17V13.875C17 12.8789 16.1211 12 15.125 12H13.25C12.1953 12 11.375 12.8789 11.375 13.875V14.8125H9.5V13.875C9.5 12.8789 8.62109 12 7.625 12H5.75C4.69531 12 3.875 12.8789 3.875 13.875V14.8125H2V7.3125H3.875V8.25C3.875 9.30469 4.69531 10.125 5.75 10.125H7.625C8.62109 10.125 9.5 9.30469 9.5 8.25V7.3125H11.375V8.25C11.375 9.30469 12.1953 10.125 13.25 10.125H15.125C16.1211 10.125 17 9.30469 17 8.25V7.3125H22.625V8.25C22.625 9.30469 23.4453 10.125 24.5 10.125H26.375C27.3711 10.125 28.25 9.30469 28.25 8.25V7.3125H32V14.8125Z" fill="#D6336C"/>
</svg>
