<svg width="30" height="29" viewBox="0 0 30 29" fill="none" xmlns="http://www.w3.org/2000/svg">
<path d="M5.15625 9.125H11.7188C11.9531 9.125 12.1875 8.94922 12.1875 8.65625V7.71875C12.1875 7.48438 11.9531 7.25 11.7188 7.25H5.15625C4.86328 7.25 4.6875 7.48438 4.6875 7.71875V8.65625C4.6875 8.94922 4.86328 9.125 5.15625 9.125ZM5.44922 23.6562L6.09375 24.3008C6.26953 24.5352 6.5625 24.5352 6.73828 24.3008L8.4375 22.6602L10.0781 24.3008C10.2539 24.5352 10.5469 24.5352 10.7227 24.3008L11.3672 23.6562C11.6016 23.4805 11.6016 23.1875 11.3672 23.0117L9.72656 21.3125L11.3672 19.6719C11.6016 19.4961 11.6016 19.2031 11.3672 19.0273L10.7227 18.3828C10.5469 18.1484 10.2539 18.1484 10.0781 18.3828L8.4375 20.0234L6.73828 18.3828C6.5625 18.1484 6.26953 18.1484 6.09375 18.3828L5.44922 19.0273C5.21484 19.2031 5.21484 19.4961 5.44922 19.6719L7.08984 21.3125L5.44922 23.0117C5.33203 23.0703 5.27344 23.1875 5.27344 23.3047C5.27344 23.4805 5.33203 23.5977 5.44922 23.6562ZM27.1875 0.6875H2.8125C1.75781 0.6875 0.9375 1.56641 0.9375 2.5625V26.9375C0.9375 27.9922 1.75781 28.8125 2.8125 28.8125H27.1875C28.1836 28.8125 29.0625 27.9922 29.0625 26.9375V2.5625C29.0625 1.56641 28.1836 0.6875 27.1875 0.6875ZM14.0625 26.9375H2.8125V15.6875H14.0625V26.9375ZM14.0625 13.8125H2.8125V2.5625H14.0625V13.8125ZM27.1875 26.9375H15.9375V15.6875H27.1875V26.9375ZM27.1875 13.8125H15.9375V2.5625H27.1875V13.8125ZM18.2812 9.125H20.625V11.4688C20.625 11.7617 20.8008 11.9375 21.0938 11.9375H22.0312C22.2656 11.9375 22.5 11.7617 22.5 11.4688V9.125H24.8438C25.0781 9.125 25.3125 8.94922 25.3125 8.65625V7.71875C25.3125 7.48438 25.0781 7.25 24.8438 7.25H22.5V4.90625C22.5 4.67188 22.2656 4.4375 22.0312 4.4375H21.0938C20.8008 4.4375 20.625 4.67188 20.625 4.90625V7.25H18.2812C17.9883 7.25 17.8125 7.48438 17.8125 7.71875V8.65625C17.8125 8.94922 17.9883 9.125 18.2812 9.125ZM18.2812 24.125H24.8438C25.0781 24.125 25.3125 23.9492 25.3125 23.6562V22.7188C25.3125 22.4844 25.0781 22.25 24.8438 22.25H18.2812C17.9883 22.25 17.8125 22.4844 17.8125 22.7188V23.6562C17.8125 23.9492 17.9883 24.125 18.2812 24.125ZM18.2812 20.375H24.8438C25.0781 20.375 25.3125 20.1992 25.3125 19.9062V18.9688C25.3125 18.7344 25.0781 18.5 24.8438 18.5H18.2812C17.9883 18.5 17.8125 18.7344 17.8125 18.9688V19.9062C17.8125 20.1992 17.9883 20.375 18.2812 20.375Z" fill="#D6336C"/>
</svg>
