<svg width="38" height="31" viewBox="0 0 38 31" fill="none" xmlns="http://www.w3.org/2000/svg">
<path d="M6.8125 17.625H31.1875C31.6562 17.625 32.125 17.2148 32.125 16.6875V5.4375C32.125 4.96875 31.6562 4.5 31.1875 4.5H20.875V1.6875C20.875 1.21875 20.4062 0.75 19.9375 0.75H6.8125C6.28516 0.75 5.875 1.21875 5.875 1.6875V16.6875C5.875 17.2148 6.28516 17.625 6.8125 17.625ZM20.875 6.375H30.25V15.75H20.875V6.375ZM7.75 2.625H19V15.75H7.75V2.625ZM37.2812 21.375C37.5156 21.375 37.75 21.1992 37.75 20.9062V19.9688C37.75 19.7344 37.5156 19.5 37.2812 19.5H0.71875C0.425781 19.5 0.25 19.7344 0.25 19.9688V20.9062C0.25 21.1992 0.425781 21.375 0.71875 21.375H4V28.875H0.71875C0.425781 28.875 0.25 29.1094 0.25 29.3438V30.2812C0.25 30.5742 0.425781 30.75 0.71875 30.75H37.2812C37.5156 30.75 37.75 30.5742 37.75 30.2812V29.3438C37.75 29.1094 37.5156 28.875 37.2812 28.875H34V21.375H37.2812ZM9.625 28.875H5.875V21.375H9.625V28.875ZM26.5 28.875H11.5V21.375H26.5V28.875ZM32.125 28.875H28.375V21.375H32.125V28.875Z" fill="#D6336C"/>
</svg>
