<svg width="30" height="27" viewBox="0 0 30 27" fill="none" xmlns="http://www.w3.org/2000/svg">
<path d="M28.5938 9.94141H1.40625C0.585938 9.94141 0 10.5859 0 11.3477V16.0352C0 16.8555 0.585938 17.4414 1.40625 17.4414H28.5938C29.3555 17.4414 30 16.8555 30 16.0352V11.3477C30 10.5859 29.3555 9.94141 28.5938 9.94141ZM7.5 15.5664H1.875V11.8164H7.5V15.5664ZM28.125 15.5664H9.375V11.8164H28.125V15.5664ZM28.5938 0.566406H1.40625C0.585938 0.566406 0 1.21094 0 1.97266V6.66016C0 7.48047 0.585938 8.06641 1.40625 8.06641H28.5938C29.3555 8.06641 30 7.48047 30 6.66016V1.97266C30 1.21094 29.3555 0.566406 28.5938 0.566406ZM18.75 6.19141H1.875V2.44141H18.75V6.19141ZM28.125 6.19141H20.625V2.44141H28.125V6.19141ZM28.5938 19.3164H1.40625C0.585938 19.3164 0 19.9609 0 20.7227V25.4102C0 26.2305 0.585938 26.8164 1.40625 26.8164H28.5938C29.3555 26.8164 30 26.2305 30 25.4102V20.7227C30 19.9609 29.3555 19.3164 28.5938 19.3164ZM15 24.9414H1.875V21.1914H15V24.9414ZM28.125 24.9414H16.875V21.1914H28.125V24.9414Z" fill="#D6336C"/>
</svg>
