<svg width="38" height="31" viewBox="0 0 38 31" fill="none" xmlns="http://www.w3.org/2000/svg">
<path d="M30.3086 12.6445L29.1953 11.1797L26.3828 13.2891L27.4961 14.7539L30.3086 12.6445ZM34 12C34.7617 12 35.4648 11.7656 36.0508 11.4141C36.4609 11.1211 36.8125 10.7695 37.1055 10.3594C37.5156 9.77344 37.75 9.07031 37.75 8.25C37.75 7.48828 37.5156 6.78516 37.1055 6.19922C36.9297 5.96484 36.8125 5.78906 36.6367 5.61328C36.4609 5.4375 36.2852 5.32031 36.0508 5.14453C35.4648 4.73438 34.7617 4.5 34 4.5C33.1797 4.5 32.4766 4.73438 31.8906 5.14453C31.4805 5.4375 31.1289 5.78906 30.8359 6.19922C30.4844 6.78516 30.25 7.48828 30.25 8.25C30.25 10.3594 31.8906 12 34 12ZM34 6.375C34.9961 6.375 35.875 7.25391 35.875 8.25C35.875 9.30469 34.9961 10.125 34 10.125C32.9453 10.125 32.125 9.30469 32.125 8.25C32.125 7.25391 32.9453 6.375 34 6.375ZM6.05078 15.457C5.46484 15.0469 4.76172 14.8125 4 14.8125C3.17969 14.8125 2.47656 15.0469 1.89062 15.457C1.48047 15.75 1.12891 16.1016 0.835938 16.5117C0.484375 17.0977 0.25 17.8008 0.25 18.5625C0.25 20.6719 1.89062 22.3125 4 22.3125C6.05078 22.3125 7.75 20.6719 7.75 18.5625C7.75 17.8008 7.51562 17.0977 7.10547 16.5117C6.8125 16.1016 6.46094 15.75 6.05078 15.457ZM4 20.4375C2.94531 20.4375 2.125 19.6172 2.125 18.5625C2.125 17.5664 2.94531 16.6875 4 16.6875C4.99609 16.6875 5.875 17.5664 5.875 18.5625C5.875 19.6172 4.99609 20.4375 4 20.4375ZM9.15625 19.5H11.9688V17.625H9.15625V19.5ZM36.6367 24.3633C36.4609 24.1875 36.2852 24.0703 36.0508 23.8945C35.4648 23.4844 34.7617 23.25 34 23.25C33.1797 23.25 32.4766 23.4844 31.8906 23.8945C31.6562 24.0703 31.4805 24.1875 31.3633 24.3633L25.9727 21.1406C26.2656 20.3203 26.5 19.5 26.5 18.5625C26.5 14.9883 23.5117 12 19.9375 12C19.2344 12 18.6484 12.1758 18.0039 12.3516L15.7188 7.42969C16.5391 6.72656 17.125 5.67188 17.125 4.5C17.125 3.73828 16.8906 3.03516 16.4805 2.44922C16.1875 2.03906 15.8359 1.6875 15.4258 1.39453C14.8398 0.984375 14.1367 0.75 13.375 0.75C12.5547 0.75 11.8516 0.984375 11.2656 1.39453C10.8555 1.6875 10.5039 2.03906 10.2109 2.44922C9.85938 3.03516 9.625 3.73828 9.625 4.5C9.625 6.60938 11.2656 8.25 13.375 8.25C13.6094 8.25 13.7852 8.25 14.0195 8.19141L16.3047 13.1133C14.5469 14.2852 13.375 16.2773 13.375 18.5625C13.375 22.1953 16.3047 25.125 19.9375 25.125C21.9883 25.125 23.7461 24.1875 24.9766 22.7227L30.3672 25.9453C30.3086 26.2969 30.25 26.6484 30.25 27C30.25 29.1094 31.8906 30.75 34 30.75C34.7617 30.75 35.4648 30.5156 36.0508 30.1641C36.4609 29.8711 36.8125 29.5195 37.1055 29.1094C37.5156 28.5234 37.75 27.8203 37.75 27C37.75 26.2383 37.5156 25.5352 37.1055 24.9492C36.9297 24.7148 36.8125 24.5391 36.6367 24.3633ZM13.375 6.375C12.3203 6.375 11.5 5.55469 11.5 4.5C11.5 3.50391 12.3203 2.625 13.375 2.625C14.3711 2.625 15.25 3.50391 15.25 4.5C15.25 5.55469 14.3711 6.375 13.375 6.375ZM19.9375 23.25C17.3008 23.25 15.25 21.1992 15.25 18.5625C15.25 15.9844 17.3008 13.875 19.9375 13.875C22.5156 13.875 24.625 15.9844 24.625 18.5625C24.625 21.1992 22.5156 23.25 19.9375 23.25ZM34 28.875C32.9453 28.875 32.125 28.0547 32.125 27C32.125 26.0039 32.9453 25.125 34 25.125C34.9961 25.125 35.875 26.0039 35.875 27C35.875 28.0547 34.9961 28.875 34 28.875Z" fill="#D6336C"/>
</svg>
