<svg width="24" height="31" viewBox="0 0 24 31" fill="none" xmlns="http://www.w3.org/2000/svg">
<path d="M17.1562 14.8125H10.5938C10.3008 14.8125 10.125 15.0469 10.125 15.2812V16.2188C10.125 16.5117 10.3008 16.6875 10.5938 16.6875H17.1562C17.3906 16.6875 17.625 16.5117 17.625 16.2188V15.2812C17.625 15.0469 17.3906 14.8125 17.1562 14.8125ZM17.1562 20.4375H10.5938C10.3008 20.4375 10.125 20.6719 10.125 20.9062V21.8438C10.125 22.1367 10.3008 22.3125 10.5938 22.3125H17.1562C17.3906 22.3125 17.625 22.1367 17.625 21.8438V20.9062C17.625 20.6719 17.3906 20.4375 17.1562 20.4375ZM7.3125 14.3438C6.49219 14.3438 5.90625 14.9883 5.90625 15.75C5.90625 16.5703 6.49219 17.1562 7.3125 17.1562C8.07422 17.1562 8.71875 16.5703 8.71875 15.75C8.71875 14.9883 8.07422 14.3438 7.3125 14.3438ZM7.3125 19.9688C6.49219 19.9688 5.90625 20.6133 5.90625 21.375C5.90625 22.1953 6.49219 22.7812 7.3125 22.7812C8.07422 22.7812 8.71875 22.1953 8.71875 21.375C8.71875 20.6133 8.07422 19.9688 7.3125 19.9688ZM20.4375 4.5H15.2227C15.2227 4.38281 15.2812 4.20703 15.2812 4.03125C15.2812 2.27344 13.7578 0.75 12 0.75C10.1836 0.75 8.71875 2.27344 8.71875 4.03125C8.71875 4.20703 8.71875 4.38281 8.71875 4.5H3.5625C1.98047 4.5 0.75 5.78906 0.75 7.3125V27.9375C0.75 29.5195 1.98047 30.75 3.5625 30.75H20.4375C21.9609 30.75 23.25 29.5195 23.25 27.9375V7.3125C23.25 5.78906 21.9609 4.5 20.4375 4.5ZM12 2.625C12.7617 2.625 13.4062 3.26953 13.4062 4.03125C13.4062 4.85156 12.7617 5.4375 12 5.4375C11.1797 5.4375 10.5938 4.85156 10.5938 4.03125C10.5938 3.26953 11.1797 2.625 12 2.625ZM21.375 27.9375C21.375 28.4648 20.9062 28.875 20.4375 28.875H3.5625C3.03516 28.875 2.625 28.4648 2.625 27.9375V7.3125C2.625 6.84375 3.03516 6.375 3.5625 6.375H6.375V7.54688C6.375 7.95703 6.66797 8.25 7.07812 8.25H16.9219C17.2734 8.25 17.625 7.95703 17.625 7.54688V6.375H20.4375C20.9062 6.375 21.375 6.84375 21.375 7.3125V27.9375Z" fill="#D6336C"/>
</svg>
