<svg width="24" height="31" viewBox="0 0 24 31" fill="none" xmlns="http://www.w3.org/2000/svg">
<path d="M22.3711 6.49219L17.5078 1.62891C16.9805 1.10156 16.2773 0.75 15.5156 0.75H3.5625C1.98047 0.75 0.75 2.03906 0.75 3.5625V27.9375C0.75 29.5195 1.98047 30.75 3.5625 30.75H20.4375C21.9609 30.75 23.25 29.5195 23.25 27.9375V8.48438C23.25 7.72266 22.8984 7.01953 22.3711 6.49219ZM21.082 7.83984C21.1992 7.95703 21.2578 8.13281 21.3164 8.25H15.75V2.68359C15.8672 2.74219 16.043 2.80078 16.1602 2.91797L21.082 7.83984ZM20.4375 28.875H3.5625C3.03516 28.875 2.625 28.4648 2.625 27.9375V3.5625C2.625 3.09375 3.03516 2.625 3.5625 2.625H13.875V8.71875C13.875 9.53906 14.4609 10.125 15.2812 10.125H21.375V27.9375C21.375 28.4648 20.9062 28.875 20.4375 28.875ZM10.9453 24.9492H11.0039C11.1797 24.9492 11.2969 24.8906 11.2969 24.7734L14.6953 13.0547C14.7539 12.9961 14.7539 12.9961 14.7539 12.9375C14.7539 12.8203 14.6367 12.7031 14.5195 12.6445L12.9961 12.2344H12.9375C12.7617 12.2344 12.6445 12.293 12.6445 12.4102L9.24609 24.1289C9.1875 24.1875 9.1875 24.1875 9.1875 24.2461C9.1875 24.3633 9.30469 24.4805 9.42188 24.5391L10.9453 24.9492ZM8.13281 22.1367L9.1875 21.0234C9.24609 20.9648 9.24609 20.9062 9.24609 20.7891C9.24609 20.7305 9.24609 20.6133 9.1875 20.5547L6.90234 18.5625L9.1875 16.6289C9.24609 16.5703 9.24609 16.4531 9.24609 16.3945C9.24609 16.2773 9.24609 16.2188 9.1875 16.1602L8.13281 15.0469C8.07422 14.9883 7.95703 14.9297 7.89844 14.9297C7.83984 14.9297 7.72266 14.9297 7.66406 14.9883L4.08984 18.3867C4.03125 18.4453 3.97266 18.5039 3.97266 18.5625C3.97266 18.6797 4.03125 18.7383 4.08984 18.7969L7.66406 22.1953C7.72266 22.2539 7.83984 22.2539 7.89844 22.2539C7.95703 22.2539 8.07422 22.1953 8.13281 22.1367ZM16.2773 22.1953L19.8516 18.7969C19.9102 18.7383 19.9688 18.6797 19.9688 18.5625C19.9688 18.5039 19.9102 18.4453 19.8516 18.3867L16.2773 14.9883C16.2188 14.9297 16.1016 14.9297 16.043 14.9297C15.9844 14.9297 15.8672 14.9883 15.8086 15.0469L14.7539 16.1602C14.6953 16.2188 14.6953 16.2773 14.6953 16.3945C14.6953 16.4531 14.6953 16.5703 14.7539 16.6289L17.0391 18.5625L14.7539 20.5547C14.6953 20.6133 14.6953 20.7305 14.6953 20.7891C14.6953 20.9062 14.6953 20.9648 14.7539 21.0234L15.8086 22.1367C15.8672 22.1953 15.9844 22.2539 16.043 22.2539C16.1016 22.2539 16.2188 22.2539 16.2773 22.1953Z" fill="#D6336C"/>
</svg>
